<svg width="44" height="44" viewBox="0 0 44 44" fill="none" xmlns="http://www.w3.org/2000/svg">
<path d="M27.05 30.28C26.07 31.23 25 31.08 23.97 30.63C22.88 30.17 21.88 30.15 20.73 30.63C19.29 31.25 18.53 31.07 17.67 30.28C12.79 25.25 13.51 17.59 19.05 17.31C20.4 17.38 21.34 18.05 22.13 18.11C23.31 17.87 24.44 17.18 25.7 17.27C27.21 17.39 28.35 17.99 29.1 19.07C25.98 20.94 26.72 25.05 29.58 26.2C29.01 27.7 28.27 29.19 27.04 30.29L27.05 30.28V30.28ZM22.03 17.25C21.88 15.02 23.69 13.18 25.77 13C26.06 15.58 23.43 17.5 22.03 17.25Z" fill="#23262B"/>
</svg>
