<svg width="44" height="44" viewBox="0 0 44 44" fill="none" xmlns="http://www.w3.org/2000/svg">
<path fill-rule="evenodd" clip-rule="evenodd" d="M15.385 12.75C14.482 12.75 13.75 13.482 13.75 14.385V21.25H32C32.1989 21.25 32.3897 21.329 32.5303 21.4697C32.671 21.6103 32.75 21.8011 32.75 22C32.75 22.1989 32.671 22.3897 32.5303 22.5303C32.3897 22.671 32.1989 22.75 32 22.75H31.732C31.7387 22.7947 31.7433 22.84 31.746 22.886C31.7493 22.9447 31.7507 23.0047 31.75 23.066V23.105C31.75 23.48 31.75 23.7 31.734 23.945C31.592 26.181 30.384 28.247 28.633 29.597L28.671 29.665L29.671 31.665C29.7159 31.7532 29.7429 31.8494 29.7504 31.9481C29.758 32.0468 29.7459 32.146 29.7149 32.24C29.6839 32.334 29.6346 32.421 29.5699 32.4958C29.5051 32.5707 29.4262 32.632 29.3376 32.6762C29.2491 32.7204 29.1526 32.7467 29.0539 32.7534C28.9551 32.7602 28.856 32.7474 28.7622 32.7156C28.6685 32.6839 28.5819 32.634 28.5076 32.5686C28.4332 32.5033 28.3725 32.4239 28.329 32.335L27.361 30.4C26.3605 30.9112 25.2563 31.1865 24.133 31.205H24.126C23.386 31.233 22.662 31.25 22 31.25C21.338 31.25 20.614 31.233 19.874 31.205H19.867C18.7437 31.1865 17.6395 30.9112 16.639 30.4L15.671 32.335C15.6275 32.4239 15.5668 32.5033 15.4924 32.5686C15.4181 32.634 15.3315 32.6839 15.2378 32.7156C15.144 32.7474 15.0449 32.7602 14.9461 32.7534C14.8474 32.7467 14.7509 32.7204 14.6624 32.6762C14.5738 32.632 14.4949 32.5707 14.4301 32.4958C14.3654 32.421 14.3161 32.334 14.2851 32.24C14.2541 32.146 14.242 32.0468 14.2496 31.9481C14.2571 31.8494 14.2841 31.7532 14.329 31.665L15.329 29.665L15.367 29.597C13.616 28.247 12.407 26.181 12.266 23.945C12.2516 23.6652 12.2463 23.3851 12.25 23.105V22.75H12C11.8011 22.75 11.6103 22.671 11.4697 22.5303C11.329 22.3897 11.25 22.1989 11.25 22C11.25 21.8011 11.329 21.6103 11.4697 21.4697C11.6103 21.329 11.8011 21.25 12 21.25H12.25V14.385C12.2499 13.6563 12.5037 12.9504 12.9677 12.3886C13.4316 11.8267 14.0768 11.444 14.7923 11.3063C15.5078 11.1685 16.249 11.2843 16.8884 11.6337C17.5278 11.9832 18.0255 12.5444 18.296 13.221L18.406 13.496C19.2267 13.2862 20.0937 13.3538 20.872 13.688C21.3566 13.8967 21.7947 14.1999 22.1608 14.5798C22.5269 14.9598 22.8135 15.4089 23.004 15.901C23.0752 16.0822 23.0732 16.2839 22.9983 16.4636C22.9235 16.6433 22.7817 16.7869 22.603 16.864L16.643 19.43C16.5508 19.4698 16.4514 19.4907 16.3509 19.4915C16.2505 19.4922 16.1509 19.4727 16.058 19.4342C15.9652 19.3957 15.8811 19.3389 15.8107 19.2672C15.7402 19.1955 15.6849 19.1104 15.648 19.017C15.2552 18.0172 15.2624 16.9046 15.668 15.91C15.9535 15.2018 16.4311 14.5874 17.047 14.136L16.903 13.778C16.7817 13.4746 16.5722 13.2144 16.3016 13.0312C16.0311 12.848 15.7118 12.75 15.385 12.75ZM14.083 22.75H13.983C13.9197 22.7543 13.8604 22.7825 13.8171 22.829C13.7738 22.8754 13.7499 22.9365 13.75 23V23.083C13.75 23.485 13.75 23.657 13.763 23.85C13.948 26.772 16.458 29.378 19.37 29.673C19.565 29.693 19.673 29.696 19.93 29.706C20.658 29.733 21.363 29.75 22 29.75C22.637 29.75 23.342 29.733 24.07 29.706C24.327 29.696 24.435 29.692 24.63 29.672C27.542 29.378 30.052 26.772 30.238 23.85C30.25 23.657 30.25 23.485 30.25 23.083V22.984C30.25 22.982 30.25 22.982 30.25 22.984C30.246 22.9233 30.22 22.8662 30.1769 22.8234C30.1339 22.7805 30.0767 22.7547 30.016 22.751C30.0173 22.751 30.0173 22.751 30.016 22.751H30L29.918 22.75H14.083ZM20.283 15.068C19.9694 14.9334 19.6303 14.8685 19.2892 14.8776C18.948 14.8868 18.6129 14.9698 18.307 15.121C17.7373 15.4023 17.292 15.8847 17.057 16.475C16.8994 16.8634 16.8343 17.2831 16.867 17.701L21.247 15.815C20.9951 15.487 20.6627 15.2297 20.282 15.068" fill="#F5F5F5"/>
</svg>
