<svg width="44" height="44" viewBox="0 0 44 44" fill="none" xmlns="http://www.w3.org/2000/svg">
<path d="M18.352 30.242C18.7872 30.7922 19.3416 31.2364 19.9736 31.541C20.6056 31.8455 21.2985 32.0025 22 32C22.7015 32.0025 23.3944 31.8455 24.0264 31.541C24.6584 31.2364 25.2129 30.7922 25.648 30.242C23.227 30.5697 20.773 30.5697 18.352 30.242ZM28.75 19V19.704C28.75 20.549 28.99 21.375 29.442 22.078L30.55 23.801C31.561 25.375 30.789 27.514 29.03 28.011C24.4337 29.3127 19.5663 29.3127 14.97 28.011C13.211 27.514 12.439 25.375 13.45 23.801L14.558 22.078C15.0112 21.3692 15.2517 20.5453 15.251 19.704V19C15.251 15.134 18.273 12 22 12C25.727 12 28.75 15.134 28.75 19Z" fill="#23262B"/>
</svg>
