<svg width="44" height="44" viewBox="0 0 44 44" fill="none" xmlns="http://www.w3.org/2000/svg">
<path fill-rule="evenodd" clip-rule="evenodd" d="M17 11.75C17.1989 11.75 17.3897 11.829 17.5303 11.9697C17.671 12.1103 17.75 12.3011 17.75 12.5V13.263C18.412 13.25 19.141 13.25 19.944 13.25H24.056C24.859 13.25 25.588 13.25 26.25 13.263V12.5C26.25 12.3011 26.329 12.1103 26.4697 11.9697C26.6103 11.829 26.8011 11.75 27 11.75C27.1989 11.75 27.3897 11.829 27.5303 11.9697C27.671 12.1103 27.75 12.3011 27.75 12.5V13.327C28.01 13.347 28.2563 13.3723 28.489 13.403C29.661 13.561 30.61 13.893 31.359 14.641C32.107 15.39 32.439 16.339 32.597 17.511C32.6463 17.8857 32.682 18.2957 32.704 18.741C32.7584 18.8885 32.765 19.0495 32.723 19.201C32.75 20.002 32.75 20.913 32.75 21.944V24.056C32.75 25.894 32.75 27.35 32.597 28.489C32.439 29.661 32.107 30.61 31.359 31.359C30.61 32.107 29.661 32.439 28.489 32.597C27.349 32.75 25.894 32.75 24.056 32.75H19.944C18.106 32.75 16.65 32.75 15.511 32.597C14.339 32.439 13.39 32.107 12.641 31.359C11.893 30.61 11.561 29.661 11.403 28.489C11.25 27.349 11.25 25.894 11.25 24.056V21.944C11.25 20.913 11.25 20.002 11.277 19.2C11.2353 19.0484 11.2423 18.8874 11.297 18.74C11.3183 18.2953 11.3537 17.8857 11.403 17.511C11.561 16.339 11.893 15.39 12.641 14.641C13.39 13.893 14.339 13.561 15.511 13.403C15.7443 13.3723 15.9907 13.347 16.25 13.327V12.5C16.25 12.3011 16.329 12.1103 16.4697 11.9697C16.6103 11.829 16.8011 11.75 17 11.75ZM12.763 19.75C12.75 20.403 12.75 21.146 12.75 22V24C12.75 25.907 12.752 27.262 12.89 28.29C13.025 29.295 13.279 29.875 13.702 30.298C14.125 30.721 14.705 30.975 15.711 31.11C16.739 31.248 18.093 31.25 20 31.25H24C25.907 31.25 27.262 31.248 28.29 31.11C29.295 30.975 29.875 30.721 30.298 30.298C30.721 29.875 30.975 29.295 31.11 28.289C31.248 27.262 31.25 25.907 31.25 24V22C31.25 21.146 31.25 20.403 31.237 19.75H12.763ZM31.168 18.25H12.832C12.848 18.0607 12.8673 17.8807 12.89 17.71C13.025 16.705 13.279 16.125 13.702 15.702C14.125 15.279 14.705 15.025 15.711 14.89C16.739 14.752 18.093 14.75 20 14.75H24C25.907 14.75 27.262 14.752 28.29 14.89C29.295 15.025 29.875 15.279 30.298 15.702C30.721 16.125 30.975 16.705 31.11 17.711C31.1327 17.881 31.152 18.0607 31.168 18.25Z" fill="#F5F5F5"/>
</svg>
