<svg width="44" height="44" viewBox="0 0 44 44" fill="none" xmlns="http://www.w3.org/2000/svg">
<path fill-rule="evenodd" clip-rule="evenodd" d="M15.25 19.303V18C15.25 16.2098 15.9612 14.4929 17.227 13.227C18.4929 11.9612 20.2098 11.25 22 11.25C23.7902 11.25 25.5071 11.9612 26.773 13.227C28.0388 14.4929 28.75 16.2098 28.75 18V19.303C28.9767 19.3183 29.1907 19.3397 29.392 19.367C30.292 19.487 31.05 19.747 31.652 20.348C32.254 20.95 32.512 21.708 32.634 22.608C32.75 23.475 32.75 24.578 32.75 25.945V26.055C32.75 27.422 32.75 28.525 32.634 29.392C32.512 30.292 32.254 31.05 31.652 31.652C31.05 32.254 30.292 32.512 29.392 32.634C28.525 32.75 27.422 32.75 26.055 32.75H17.945C16.578 32.75 15.475 32.75 14.608 32.634C13.708 32.512 12.95 32.254 12.348 31.652C11.746 31.05 11.488 30.292 11.367 29.392C11.25 28.525 11.25 27.422 11.25 26.055V25.945C11.25 24.578 11.25 23.475 11.367 22.608C11.487 21.708 11.747 20.95 12.348 20.348C12.95 19.746 13.708 19.488 14.608 19.367C14.8087 19.3397 15.0227 19.3183 15.25 19.303ZM16.75 18C16.75 16.6076 17.3031 15.2723 18.2877 14.2877C19.2723 13.3031 20.6076 12.75 22 12.75C23.3924 12.75 24.7277 13.3031 25.7123 14.2877C26.6969 15.2723 27.25 16.6076 27.25 18V19.253C26.8767 19.2503 26.4783 19.2493 26.055 19.25H17.945C17.5223 19.25 17.124 19.251 16.75 19.253V18ZM13.409 21.409C13.686 21.132 14.074 20.952 14.809 20.853C15.563 20.752 16.565 20.75 18 20.75H26C27.435 20.75 28.436 20.752 29.192 20.853C29.926 20.952 30.314 21.133 30.591 21.409C30.868 21.686 31.048 22.074 31.147 22.809C31.248 23.564 31.25 24.565 31.25 26C31.25 27.435 31.248 28.436 31.147 29.192C31.048 29.926 30.867 30.314 30.591 30.591C30.314 30.868 29.926 31.048 29.191 31.147C28.436 31.248 27.435 31.25 26 31.25H18C16.565 31.25 15.563 31.248 14.808 31.147C14.074 31.048 13.686 30.867 13.409 30.591C13.132 30.314 12.952 29.926 12.853 29.191C12.752 28.436 12.75 27.435 12.75 26C12.75 24.565 12.752 23.563 12.853 22.808C12.952 22.074 13.133 21.686 13.409 21.409Z" fill="#F5F5F5"/>
</svg>
