<svg width="44" height="44" viewBox="0 0 44 44" fill="none" xmlns="http://www.w3.org/2000/svg">
<path fill-rule="evenodd" clip-rule="evenodd" d="M32.295 16.31C32.3857 16.3488 32.4678 16.4051 32.5367 16.4757C32.6056 16.5462 32.6599 16.6297 32.6965 16.7213C32.7331 16.8129 32.7513 16.9108 32.75 17.0094C32.7487 17.108 32.728 17.2054 32.689 17.296L32 17L32.69 17.296L32.688 17.3L32.685 17.307L32.675 17.331L32.636 17.415C32.4176 17.8681 32.1749 18.3091 31.909 18.736C31.3759 19.5941 30.7574 20.3962 30.063 21.13L31.031 22.099C31.1635 22.2412 31.2356 22.4292 31.2322 22.6235C31.2287 22.8178 31.15 23.0032 31.0126 23.1406C30.8752 23.278 30.6898 23.3568 30.4955 23.3602C30.3012 23.3636 30.1132 23.2915 29.971 23.159L28.97 22.159C28.2734 22.7455 27.5101 23.248 26.696 23.656L27.63 25.091C27.7385 25.2578 27.7762 25.4609 27.735 25.6556C27.6937 25.8502 27.5768 26.0205 27.41 26.129C27.2432 26.2375 27.0401 26.2752 26.8454 26.234C26.6508 26.1927 26.4805 26.0758 26.372 25.909L25.283 24.235C24.503 24.49 23.66 24.663 22.751 24.725V26.5C22.751 26.6989 22.672 26.8897 22.5313 27.0303C22.3907 27.171 22.1999 27.25 22.001 27.25C21.8021 27.25 21.6113 27.171 21.4707 27.0303C21.33 26.8897 21.251 26.6989 21.251 26.5V24.725C20.4153 24.6684 19.5895 24.5119 18.791 24.259L17.717 25.909C17.6633 25.9916 17.5938 26.0628 17.5126 26.1186C17.4314 26.1743 17.3399 26.2136 17.2436 26.234C17.1472 26.2544 17.0477 26.2557 16.9508 26.2377C16.854 26.2196 16.7616 26.1827 16.679 26.129C16.5122 26.0205 16.3953 25.8502 16.354 25.6556C16.3336 25.5592 16.3323 25.4597 16.3504 25.3629C16.3684 25.266 16.4053 25.1736 16.459 25.091L17.372 23.689C16.5511 23.2853 15.7813 22.7851 15.079 22.199L14.119 23.159C13.9776 23.2957 13.7882 23.3714 13.5915 23.3698C13.3949 23.3682 13.2067 23.2894 13.0676 23.1504C12.9285 23.0114 12.8495 22.8233 12.8477 22.6267C12.8459 22.43 12.9214 22.2405 13.058 22.099L13.982 21.175C12.9997 20.1462 12.1687 18.9829 11.514 17.72C11.4485 17.592 11.3859 17.4627 11.326 17.332L11.316 17.307L11.312 17.3V17.297H11.31C11.2315 17.1141 11.2288 16.9066 11.3026 16.7218C11.3764 16.537 11.5206 16.389 11.7035 16.3105C11.8864 16.232 12.0929 16.2294 12.2777 16.3032C12.4626 16.377 12.6105 16.5211 12.689 16.704V16.706L12.696 16.72L12.725 16.783C12.7517 16.8403 12.7933 16.9253 12.85 17.038C13.5423 18.3774 14.4574 19.5894 15.556 20.622C16.422 21.427 17.483 22.168 18.752 22.656C19.7888 23.0526 20.89 23.254 22 23.25C23.1331 23.254 24.2568 23.044 25.312 22.631C26.574 22.134 27.628 21.388 28.487 20.582C29.6355 19.4915 30.58 18.2046 31.276 16.782L31.304 16.719L31.31 16.706M32.295 16.31C32.1122 16.2319 31.906 16.2305 31.7215 16.3044C31.537 16.3783 31.3893 16.5224 31.311 16.705L32.295 16.31Z" fill="#F5F5F5"/>
</svg>
