<svg width="44" height="44" viewBox="0 0 44 44" fill="none" xmlns="http://www.w3.org/2000/svg">
<path fill-rule="evenodd" clip-rule="evenodd" d="M22 11.25C20.172 11.25 18.661 11.411 17.498 11.607L17.364 11.63C16.354 11.799 15.514 11.94 14.857 12.748C14.437 13.267 14.3 13.828 14.269 14.453L13.777 14.617C13.314 14.771 12.907 14.907 12.586 15.057C12.238 15.219 11.919 15.427 11.675 15.766C11.431 16.105 11.334 16.473 11.29 16.854C11.25 17.207 11.25 17.634 11.25 18.123V18.268C11.25 18.67 11.25 19.025 11.28 19.322C11.312 19.643 11.383 19.956 11.56 20.258C11.739 20.561 11.977 20.775 12.243 20.959C12.488 21.129 12.798 21.302 13.15 21.497L15.79 22.964C16.33 24.025 17.071 24.971 18.09 25.654C18.977 26.25 20.042 26.624 21.303 26.723C21.2691 26.8115 21.2511 26.9053 21.25 27V28.75H19.82C19.4154 28.75 19.0233 28.8902 18.7105 29.1467C18.3976 29.4033 18.1833 29.7603 18.104 30.157L17.885 31.25H16C15.8011 31.25 15.6103 31.329 15.4697 31.4697C15.329 31.6103 15.25 31.8011 15.25 32C15.25 32.1989 15.329 32.3897 15.4697 32.5303C15.6103 32.671 15.8011 32.75 16 32.75H28C28.1989 32.75 28.3897 32.671 28.5303 32.5303C28.671 32.3897 28.75 32.1989 28.75 32C28.75 31.8011 28.671 31.6103 28.5303 31.4697C28.3897 31.329 28.1989 31.25 28 31.25H26.115L25.896 30.157C25.8167 29.7603 25.6024 29.4033 25.2895 29.1467C24.9767 28.8902 24.5846 28.75 24.18 28.75H22.75V27C22.7489 26.9053 22.7309 26.8115 22.697 26.723C23.958 26.623 25.023 26.25 25.91 25.655C26.93 24.971 27.67 24.025 28.21 22.964L30.85 21.497C31.202 21.302 31.512 21.129 31.757 20.959C32.022 20.775 32.261 20.561 32.439 20.259C32.617 19.956 32.689 19.643 32.72 19.322C32.75 19.025 32.75 18.67 32.75 18.268V18.123C32.75 17.635 32.75 17.207 32.71 16.854C32.666 16.473 32.57 16.104 32.325 15.766C32.081 15.427 31.762 15.219 31.415 15.056C31.092 14.906 30.686 14.771 30.223 14.617L29.731 14.453C29.701 13.827 29.564 13.267 29.143 12.748C28.487 11.939 27.647 11.798 26.637 11.63L26.502 11.607C25.0139 11.3625 23.508 11.2431 22 11.25ZM24.585 31.25L24.425 30.451C24.4137 30.3944 24.3831 30.3434 24.3384 30.3067C24.2938 30.2701 24.2378 30.25 24.18 30.25H19.82C19.7622 30.25 19.7062 30.2701 19.6616 30.3067C19.6169 30.3434 19.5863 30.3944 19.575 30.451L19.415 31.25H24.585ZM14.288 16.028L14.302 16.023C14.374 17.543 14.545 19.223 14.973 20.793L13.907 20.202C13.518 19.985 13.274 19.849 13.098 19.727C12.936 19.614 12.883 19.547 12.854 19.497C12.824 19.447 12.792 19.369 12.772 19.173C12.7513 18.8608 12.744 18.5478 12.75 18.235V18.162C12.75 17.623 12.751 17.282 12.78 17.024C12.808 16.786 12.852 16.697 12.892 16.643C12.931 16.588 13.001 16.518 13.218 16.417C13.454 16.307 13.778 16.199 14.288 16.028ZM29.698 16.022C29.627 17.542 29.455 19.222 29.028 20.792L30.093 20.201C30.482 19.984 30.726 19.848 30.902 19.726C31.064 19.613 31.117 19.546 31.146 19.496C31.176 19.446 31.208 19.368 31.228 19.172C31.249 18.958 31.25 18.679 31.25 18.234V18.161C31.25 17.622 31.249 17.281 31.22 17.023C31.192 16.785 31.148 16.696 31.108 16.642C31.069 16.587 30.999 16.517 30.782 16.416C30.546 16.306 30.222 16.197 29.712 16.026L29.698 16.022ZM17.748 13.086C19.1535 12.8559 20.5758 12.7435 22 12.75C23.74 12.75 25.167 12.903 26.252 13.086C27.459 13.29 27.712 13.366 27.979 13.694C28.241 14.016 28.266 14.322 28.212 15.677C28.122 17.935 27.824 20.373 26.902 22.227C26.446 23.141 25.85 23.889 25.075 24.409C24.304 24.926 23.309 25.25 22 25.25C20.691 25.25 19.697 24.926 18.926 24.409C18.15 23.889 17.554 23.141 17.099 22.226C16.176 20.373 15.879 17.936 15.789 15.676C15.735 14.322 15.759 14.016 16.022 13.694C16.288 13.366 16.541 13.29 17.748 13.086Z" fill="#A980FF"/>
</svg>
