<svg width="44" height="44" viewBox="0 0 44 44" fill="none" xmlns="http://www.w3.org/2000/svg">
<path d="M22 31.375C20.4581 31.3753 18.94 30.9954 17.58 30.2688C16.2201 29.5421 15.0604 28.4913 14.2036 27.2094C13.3468 25.9275 12.8195 24.4541 12.6682 22.9196C12.517 21.3852 12.7465 19.8371 13.3365 18.4126C13.9265 16.9881 14.8588 15.7311 16.0507 14.7529C17.2426 13.7748 18.6573 13.1057 20.1696 12.805C21.6818 12.5043 23.2449 12.5812 24.7204 13.029C26.1958 13.4767 27.538 14.2814 28.6281 15.3719C28.733 15.4764 28.8162 15.6006 28.873 15.7373C28.9298 15.8741 28.959 16.0207 28.959 16.1688C28.959 16.3168 28.9298 16.4634 28.873 16.6002C28.8162 16.7369 28.733 16.8611 28.6281 16.9656C28.4147 17.1729 28.1288 17.2889 27.8313 17.2889C27.5337 17.2889 27.2478 17.1729 27.0344 16.9656C26.376 16.3004 25.5918 15.773 24.7274 15.414C23.8631 15.0551 22.9359 14.8719 22 14.875C20.6391 14.876 19.3069 15.2666 18.1611 16.0009C17.0152 16.7351 16.1036 17.7821 15.534 19.0181C14.9645 20.2541 14.7608 21.6273 14.9471 22.9754C15.1334 24.3235 15.7019 25.59 16.5853 26.6252C17.4688 27.6604 18.6302 28.4209 19.9322 28.8168C21.2343 29.2127 22.6225 29.2275 23.9326 28.8593C25.2428 28.4911 26.4201 27.7554 27.3253 26.7392C28.2305 25.723 28.8258 24.4688 29.0406 23.125H22C21.7016 23.125 21.4155 23.0065 21.2045 22.7955C20.9935 22.5845 20.875 22.2984 20.875 22C20.875 21.7016 20.9935 21.4155 21.2045 21.2045C21.4155 20.9935 21.7016 20.875 22 20.875H30.25C30.5484 20.875 30.8345 20.9935 31.0455 21.2045C31.2565 21.4155 31.375 21.7016 31.375 22C31.3701 24.4849 30.3807 26.8666 28.6237 28.6237C26.8666 30.3807 24.4849 31.37 22 31.375V31.375Z" fill="#23262B"/>
</svg>
