<svg width="44" height="44" viewBox="0 0 44 44" fill="none" xmlns="http://www.w3.org/2000/svg">
<path d="M27.75 17C27.75 16.8011 27.671 16.6103 27.5303 16.4697C27.3897 16.329 27.1989 16.25 27 16.25C26.8011 16.25 26.6103 16.329 26.4697 16.4697C26.329 16.6103 26.25 16.8011 26.25 17V19C26.25 19.1989 26.329 19.3897 26.4697 19.5303C26.6103 19.671 26.8011 19.75 27 19.75C27.1989 19.75 27.3897 19.671 27.5303 19.5303C27.671 19.3897 27.75 19.1989 27.75 19V17ZM27.75 24C27.75 23.8011 27.671 23.6103 27.5303 23.4697C27.3897 23.329 27.1989 23.25 27 23.25C26.8011 23.25 26.6103 23.329 26.4697 23.4697C26.329 23.6103 26.25 23.8011 26.25 24V26C26.25 26.1989 26.329 26.3897 26.4697 26.5303C26.6103 26.671 26.8011 26.75 27 26.75C27.1989 26.75 27.3897 26.671 27.5303 26.5303C27.671 26.3897 27.75 26.1989 27.75 26V24Z" fill="#F5F5F5"/>
<path fill-rule="evenodd" clip-rule="evenodd" d="M22.056 11.25H21.944C20.106 11.25 18.65 11.25 17.511 11.403C16.339 11.561 15.39 11.893 14.641 12.641C13.893 13.39 13.561 14.339 13.403 15.511C13.25 16.651 13.25 18.106 13.25 19.944V23.056C13.25 24.894 13.25 26.35 13.403 27.489C13.561 28.661 13.893 29.61 14.641 30.359C15.101 30.818 15.635 31.12 16.25 31.322V32C16.25 32.414 16.586 32.75 17 32.75H18C18.1989 32.75 18.3897 32.671 18.5303 32.5303C18.671 32.3897 18.75 32.1989 18.75 32V31.704C19.657 31.75 20.715 31.75 21.944 31.75H22.056C23.286 31.75 24.343 31.75 25.25 31.704V32C25.25 32.414 25.586 32.75 26 32.75H27C27.1989 32.75 27.3897 32.671 27.5303 32.5303C27.671 32.3897 27.75 32.1989 27.75 32V31.322C28.365 31.12 28.9 30.818 29.359 30.359C30.107 29.61 30.439 28.661 30.597 27.489C30.75 26.349 30.75 24.894 30.75 23.056V19.945C30.75 18.107 30.75 16.651 30.597 15.512C30.439 14.34 30.107 13.391 29.359 12.642C28.61 11.894 27.661 11.562 26.489 11.404C25.349 11.251 23.894 11.251 22.056 11.251M15.702 13.702C16.125 13.279 16.705 13.025 17.711 12.89C18.739 12.752 20.093 12.75 22 12.75C23.907 12.75 25.262 12.752 26.29 12.89C27.295 13.025 27.875 13.279 28.298 13.702C28.721 14.125 28.975 14.705 29.11 15.711C29.248 16.739 29.25 18.093 29.25 20V20.75H14.75V20C14.75 18.093 14.752 16.739 14.89 15.71C15.025 14.705 15.279 14.125 15.702 13.702ZM14.75 22.25H29.25V23C29.25 24.907 29.248 26.262 29.11 27.29C28.975 28.295 28.721 28.875 28.298 29.298C27.875 29.721 27.295 29.975 26.289 30.11C25.261 30.248 23.907 30.25 22 30.25C20.093 30.25 18.739 30.248 17.71 30.11C16.705 29.975 16.125 29.721 15.702 29.298C15.279 28.875 15.025 28.295 14.89 27.289C14.752 26.262 14.75 24.907 14.75 23V22.25Z" fill="#F5F5F5"/>
</svg>
