<svg width="44" height="44" viewBox="0 0 44 44" fill="none" xmlns="http://www.w3.org/2000/svg">
<path fill-rule="evenodd" clip-rule="evenodd" d="M18.905 14.25H25.095C25.933 14.25 26.467 14.25 26.927 14.341C27.8484 14.5243 28.6947 14.9767 29.359 15.641C30.0233 16.3053 30.4757 17.1516 30.659 18.073C30.729 18.423 30.745 18.816 30.749 19.353C31.3253 19.5161 31.8325 19.8629 32.1937 20.3407C32.5549 20.8185 32.7502 21.4011 32.75 22V24.444C32.75 25.974 31.952 27.318 30.75 28.081V29C30.75 29.1989 30.671 29.3897 30.5303 29.5303C30.3897 29.671 30.1989 29.75 30 29.75C29.8011 29.75 29.6103 29.671 29.4697 29.5303C29.329 29.3897 29.25 29.1989 29.25 29V28.675C28.9887 28.725 28.72 28.75 28.444 28.75H15.556C15.28 28.75 15.0113 28.725 14.75 28.675V29C14.75 29.1989 14.671 29.3897 14.5303 29.5303C14.3897 29.671 14.1989 29.75 14 29.75C13.8011 29.75 13.6103 29.671 13.4697 29.5303C13.329 29.3897 13.25 29.1989 13.25 29V28.081C12.6369 27.6929 12.1321 27.156 11.7824 26.5202C11.4327 25.8845 11.2495 25.1706 11.25 24.445V22C11.25 20.74 12.096 19.68 13.251 19.353C13.255 18.816 13.271 18.423 13.341 18.073C13.5243 17.1516 13.9767 16.3053 14.641 15.641C15.3053 14.9767 16.1516 14.5243 17.073 14.341C17.533 14.25 18.067 14.25 18.905 14.25ZM14.752 19.354C15.3276 19.5176 15.834 19.8645 16.1946 20.342C16.5552 20.8195 16.7502 21.4016 16.75 22V23.2C16.75 23.228 16.772 23.25 16.8 23.25H27.2C27.2133 23.25 27.226 23.2447 27.2354 23.2354C27.2447 23.226 27.25 23.2133 27.25 23.2V22C27.25 20.742 28.095 19.681 29.248 19.354C29.244 18.844 29.231 18.584 29.188 18.366C29.0627 17.7354 28.7531 17.1562 28.2985 16.7015C27.8438 16.2469 27.2646 15.9373 26.634 15.812C26.338 15.754 25.965 15.75 25 15.75H19C18.035 15.75 17.662 15.754 17.366 15.812C16.7354 15.9373 16.1562 16.2469 15.7015 16.7015C15.2469 17.1562 14.9373 17.7354 14.812 18.366C14.769 18.584 14.756 18.845 14.752 19.354ZM14 20.75C13.31 20.75 12.75 21.31 12.75 22V24.444C12.75 25.1882 13.0456 25.9019 13.5719 26.4281C14.0981 26.9544 14.8118 27.25 15.556 27.25H28.444C29.1882 27.25 29.9019 26.9544 30.4281 26.4281C30.9544 25.9019 31.25 25.1882 31.25 24.444V22C31.25 21.6685 31.1183 21.3505 30.8839 21.1161C30.6495 20.8817 30.3315 20.75 30 20.75C29.6685 20.75 29.3505 20.8817 29.1161 21.1161C28.8817 21.3505 28.75 21.6685 28.75 22V23.2C28.75 23.6111 28.5867 24.0053 28.296 24.296C28.0053 24.5867 27.6111 24.75 27.2 24.75H16.8C16.3889 24.75 15.9947 24.5867 15.704 24.296C15.4133 24.0053 15.25 23.6111 15.25 23.2V22C15.25 21.31 14.69 20.75 14 20.75Z" fill="#F5F5F5"/>
</svg>
