<svg width="44" height="44" viewBox="0 0 44 44" fill="none" xmlns="http://www.w3.org/2000/svg">
<path d="M22 27C22.5304 27 23.0391 27.2107 23.4142 27.5858C23.7893 27.9609 24 28.4696 24 29C24 29.5304 23.7893 30.0391 23.4142 30.4142C23.0391 30.7893 22.5304 31 22 31C21.4696 31 20.9609 30.7893 20.5858 30.4142C20.2107 30.0391 20 29.5304 20 29C20 28.4696 20.2107 27.9609 20.5858 27.5858C20.9609 27.2107 21.4696 27 22 27ZM22 20C22.5304 20 23.0391 20.2107 23.4142 20.5858C23.7893 20.9609 24 21.4696 24 22C24 22.5304 23.7893 23.0391 23.4142 23.4142C23.0391 23.7893 22.5304 24 22 24C21.4696 24 20.9609 23.7893 20.5858 23.4142C20.2107 23.0391 20 22.5304 20 22C20 21.4696 20.2107 20.9609 20.5858 20.5858C20.9609 20.2107 21.4696 20 22 20ZM22 13C22.5304 13 23.0391 13.2107 23.4142 13.5858C23.7893 13.9609 24 14.4696 24 15C24 15.5304 23.7893 16.0391 23.4142 16.4142C23.0391 16.7893 22.5304 17 22 17C21.4696 17 20.9609 16.7893 20.5858 16.4142C20.2107 16.0391 20 15.5304 20 15C20 14.4696 20.2107 13.9609 20.5858 13.5858C20.9609 13.2107 21.4696 13 22 13Z" fill="#F5F5F5"/>
</svg>
