<svg width="44" height="44" viewBox="0 0 44 44" fill="none" xmlns="http://www.w3.org/2000/svg">
<path fill-rule="evenodd" clip-rule="evenodd" d="M18.75 12.013V32H25C27.828 32 29.243 32 30.121 31.121C31 30.243 31 28.828 31 26V18C31 15.172 31 13.757 30.121 12.879C29.243 12 27.828 12 25 12H19L18.75 12.013ZM20.75 16.5C20.75 16.3011 20.829 16.1103 20.9697 15.9697C21.1103 15.829 21.3011 15.75 21.5 15.75H26.5C26.6989 15.75 26.8897 15.829 27.0303 15.9697C27.171 16.1103 27.25 16.3011 27.25 16.5C27.25 16.6989 27.171 16.8897 27.0303 17.0303C26.8897 17.171 26.6989 17.25 26.5 17.25H21.5C21.3011 17.25 21.1103 17.171 20.9697 17.0303C20.829 16.8897 20.75 16.6989 20.75 16.5ZM20.75 20C20.75 19.8011 20.829 19.6103 20.9697 19.4697C21.1103 19.329 21.3011 19.25 21.5 19.25H26.5C26.6989 19.25 26.8897 19.329 27.0303 19.4697C27.171 19.6103 27.25 19.8011 27.25 20C27.25 20.1989 27.171 20.3897 27.0303 20.5303C26.8897 20.671 26.6989 20.75 26.5 20.75H21.5C21.3011 20.75 21.1103 20.671 20.9697 20.5303C20.829 20.3897 20.75 20.1989 20.75 20ZM13 17.25C13.008 14.914 13.081 13.676 13.879 12.879C14.554 12.204 15.545 12.047 17.25 12.011V31.989C15.545 31.953 14.554 31.796 13.879 31.121C13.081 30.324 13.008 29.086 13.001 26.75H14C14.1989 26.75 14.3897 26.671 14.5303 26.5303C14.671 26.3897 14.75 26.1989 14.75 26C14.75 25.8011 14.671 25.6103 14.5303 25.4697C14.3897 25.329 14.1989 25.25 14 25.25H13V22.75H14C14.1989 22.75 14.3897 22.671 14.5303 22.5303C14.671 22.3897 14.75 22.1989 14.75 22C14.75 21.8011 14.671 21.6103 14.5303 21.4697C14.3897 21.329 14.1989 21.25 14 21.25H13V18.75H14C14.1989 18.75 14.3897 18.671 14.5303 18.5303C14.671 18.3897 14.75 18.1989 14.75 18C14.75 17.8011 14.671 17.6103 14.5303 17.4697C14.3897 17.329 14.1989 17.25 14 17.25H13ZM13 17.25H12C11.8011 17.25 11.6103 17.329 11.4697 17.4697C11.329 17.6103 11.25 17.8011 11.25 18C11.25 18.1989 11.329 18.3897 11.4697 18.5303C11.6103 18.671 11.8011 18.75 12 18.75H13V17.25ZM13 22.75H12C11.8011 22.75 11.6103 22.671 11.4697 22.5303C11.329 22.3897 11.25 22.1989 11.25 22C11.25 21.8011 11.329 21.6103 11.4697 21.4697C11.6103 21.329 11.8011 21.25 12 21.25H13V22.75ZM13 25.25H12C11.8011 25.25 11.6103 25.329 11.4697 25.4697C11.329 25.6103 11.25 25.8011 11.25 26C11.25 26.1989 11.329 26.3897 11.4697 26.5303C11.6103 26.671 11.8011 26.75 12 26.75H13.001L13 25.25Z" fill="#F5F5F5"/>
</svg>
