<svg width="44" height="44" viewBox="0 0 44 44" fill="none" xmlns="http://www.w3.org/2000/svg">
<path d="M18.3519 30.242C18.7871 30.7922 19.3416 31.2364 19.9736 31.541C20.6055 31.8455 21.2984 32.0025 21.9999 32C22.7015 32.0025 23.3944 31.8455 24.0263 31.541C24.6583 31.2364 25.2128 30.7922 25.6479 30.242C23.227 30.5697 20.7729 30.5697 18.3519 30.242ZM28.7499 19V19.704C28.7499 20.549 28.9899 21.375 29.4419 22.078L30.5499 23.801C31.5609 25.375 30.7889 27.514 29.0299 28.011C24.4337 29.3127 19.5662 29.3127 14.9699 28.011C13.2109 27.514 12.4389 25.375 13.4499 23.801L14.5579 22.078C15.0112 21.3692 15.2517 20.5453 15.2509 19.704V19C15.2509 15.134 18.2729 12 21.9999 12C25.7269 12 28.7499 15.134 28.7499 19Z" fill="#23262B"/>
<circle cx="34" cy="10" r="6" fill="#FF5A00"/>
</svg>
