<svg width="44" height="44" viewBox="0 0 44 44" fill="none" xmlns="http://www.w3.org/2000/svg">
<path fill-rule="evenodd" clip-rule="evenodd" d="M22 18.25C21.0054 18.25 20.0516 18.6451 19.3483 19.3483C18.6451 20.0516 18.25 21.0054 18.25 22C18.25 22.9946 18.6451 23.9484 19.3483 24.6517C20.0516 25.3549 21.0054 25.75 22 25.75C22.9946 25.75 23.9484 25.3549 24.6517 24.6517C25.3549 23.9484 25.75 22.9946 25.75 22C25.75 21.0054 25.3549 20.0516 24.6517 19.3483C23.9484 18.6451 22.9946 18.25 22 18.25ZM19.75 22C19.75 21.4033 19.9871 20.831 20.409 20.409C20.831 19.9871 21.4033 19.75 22 19.75C22.5967 19.75 23.169 19.9871 23.591 20.409C24.0129 20.831 24.25 21.4033 24.25 22C24.25 22.5967 24.0129 23.169 23.591 23.591C23.169 24.0129 22.5967 24.25 22 24.25C21.4033 24.25 20.831 24.0129 20.409 23.591C19.9871 23.169 19.75 22.5967 19.75 22Z" fill="#F5F5F5"/>
<path fill-rule="evenodd" clip-rule="evenodd" d="M22 13.25C17.486 13.25 14.445 15.954 12.68 18.247L12.649 18.288C12.249 18.807 11.882 19.284 11.633 19.848C11.366 20.453 11.25 21.112 11.25 22C11.25 22.888 11.366 23.547 11.633 24.152C11.883 24.716 12.25 25.194 12.649 25.712L12.681 25.753C14.445 28.046 17.486 30.75 22 30.75C26.514 30.75 29.555 28.046 31.32 25.753L31.351 25.712C31.751 25.194 32.118 24.716 32.367 24.152C32.634 23.547 32.75 22.888 32.75 22C32.75 21.112 32.634 20.453 32.367 19.848C32.117 19.284 31.75 18.807 31.351 18.288L31.319 18.247C29.555 15.954 26.514 13.25 22 13.25ZM13.87 19.162C15.498 17.045 18.15 14.75 22 14.75C25.85 14.75 28.501 17.045 30.13 19.162C30.57 19.732 30.826 20.072 30.995 20.454C31.153 20.812 31.25 21.249 31.25 22C31.25 22.751 31.153 23.188 30.995 23.546C30.826 23.928 30.569 24.268 30.131 24.838C28.5 26.955 25.85 29.25 22 29.25C18.15 29.25 15.499 26.955 13.87 24.838C13.43 24.268 13.174 23.928 13.005 23.546C12.847 23.188 12.75 22.751 12.75 22C12.75 21.249 12.847 20.812 13.005 20.454C13.174 20.072 13.432 19.732 13.87 19.162Z" fill="#F5F5F5"/>
</svg>
