<svg width="44" height="44" viewBox="0 0 44 44" fill="none" xmlns="http://www.w3.org/2000/svg">
<path fill-rule="evenodd" clip-rule="evenodd" d="M16.75 18C16.7483 16.721 17.2135 15.4853 18.0583 14.525C18.9032 13.5647 20.0695 12.9459 21.3383 12.7847C22.6072 12.6235 23.8912 12.931 24.9493 13.6496C26.0074 14.3681 26.7669 15.4482 27.085 16.687C27.1391 16.8746 27.2641 17.0337 27.4336 17.1305C27.6031 17.2274 27.8037 17.2543 27.9928 17.2056C28.1818 17.1569 28.3444 17.0364 28.446 16.8698C28.5477 16.7031 28.5803 16.5034 28.537 16.313C28.1273 14.7211 27.1508 13.3334 25.7908 12.4102C24.4307 11.4871 22.7805 11.092 21.1498 11.299C19.5191 11.5061 18.02 12.3011 16.9338 13.5348C15.8476 14.7685 15.2489 16.3562 15.25 18V19.303C15.0233 19.3183 14.8093 19.3397 14.608 19.367C13.708 19.487 12.95 19.747 12.348 20.348C11.746 20.95 11.488 21.708 11.367 22.608C11.25 23.475 11.25 24.578 11.25 25.945V26.055C11.25 27.422 11.25 28.525 11.367 29.392C11.487 30.292 11.747 31.05 12.348 31.652C12.95 32.254 13.708 32.512 14.608 32.634C15.475 32.75 16.578 32.75 17.945 32.75H26.055C27.422 32.75 28.525 32.75 29.392 32.634C30.292 32.512 31.05 32.254 31.652 31.652C32.254 31.05 32.512 30.292 32.634 29.392C32.75 28.525 32.75 27.422 32.75 26.055V25.945C32.75 24.578 32.75 23.475 32.634 22.608C32.512 21.708 32.254 20.95 31.652 20.348C31.05 19.746 30.292 19.488 29.392 19.367C28.525 19.25 27.422 19.25 26.055 19.25H17.945C17.5223 19.25 17.124 19.251 16.75 19.253V18ZM13.409 21.409C13.686 21.132 14.074 20.952 14.809 20.853C15.563 20.752 16.565 20.75 18 20.75H26C27.435 20.75 28.436 20.752 29.192 20.853C29.926 20.952 30.314 21.133 30.591 21.409C30.868 21.686 31.048 22.074 31.147 22.809C31.248 23.564 31.25 24.565 31.25 26C31.25 27.435 31.248 28.436 31.147 29.192C31.048 29.926 30.867 30.314 30.591 30.591C30.314 30.868 29.926 31.048 29.191 31.147C28.436 31.248 27.435 31.25 26 31.25H18C16.565 31.25 15.563 31.248 14.808 31.147C14.074 31.048 13.686 30.867 13.409 30.591C13.132 30.314 12.952 29.926 12.853 29.191C12.752 28.436 12.75 27.435 12.75 26C12.75 24.565 12.752 23.563 12.853 22.808C12.952 22.074 13.133 21.686 13.409 21.409Z" fill="#F5F5F5"/>
</svg>
