<svg width="44" height="44" viewBox="0 0 44 44" fill="none" xmlns="http://www.w3.org/2000/svg">
<path fill-rule="evenodd" clip-rule="evenodd" d="M22 12.75C19.5467 12.75 17.194 13.7246 15.4593 15.4593C13.7246 17.194 12.75 19.5467 12.75 22C12.75 24.4533 13.7246 26.806 15.4593 28.5407C17.194 30.2754 19.5467 31.25 22 31.25C24.4533 31.25 26.806 30.2754 28.5407 28.5407C30.2754 26.806 31.25 24.4533 31.25 22C31.25 19.5467 30.2754 17.194 28.5407 15.4593C26.806 13.7246 24.4533 12.75 22 12.75ZM11.25 22C11.25 16.063 16.063 11.25 22 11.25C27.937 11.25 32.75 16.063 32.75 22C32.75 27.937 27.937 32.75 22 32.75C16.063 32.75 11.25 27.937 11.25 22ZM22 17.75C21.379 17.75 20.875 18.254 20.875 18.875C20.875 19.0739 20.796 19.2647 20.6553 19.4053C20.5147 19.546 20.3239 19.625 20.125 19.625C19.9261 19.625 19.7353 19.546 19.5947 19.4053C19.454 19.2647 19.375 19.0739 19.375 18.875C19.375 18.4153 19.4957 17.9637 19.725 17.5653C19.9543 17.1669 20.2842 16.8357 20.6817 16.6048C21.0793 16.374 21.5304 16.2516 21.9901 16.2498C22.4498 16.2481 22.9019 16.3671 23.3011 16.595C23.7004 16.8228 24.0328 17.1515 24.2651 17.5482C24.4974 17.9448 24.6215 18.3956 24.6249 18.8552C24.6284 19.3149 24.511 19.7674 24.2846 20.1675C24.0583 20.5676 23.7308 20.9012 23.335 21.135C23.1616 21.2329 23.0047 21.3574 22.87 21.504C22.768 21.624 22.75 21.704 22.75 21.75V23C22.75 23.1989 22.671 23.3897 22.5303 23.5303C22.3897 23.671 22.1989 23.75 22 23.75C21.8011 23.75 21.6103 23.671 21.4697 23.5303C21.329 23.3897 21.25 23.1989 21.25 23V21.75C21.25 21.244 21.472 20.834 21.727 20.533C21.979 20.236 22.293 20.009 22.572 19.844C22.7853 19.7191 22.9516 19.5274 23.0449 19.2985C23.1383 19.0696 23.1536 18.8163 23.0884 18.5778C23.0233 18.3393 22.8813 18.129 22.6846 17.9793C22.4878 17.8297 22.2472 17.7491 22 17.75ZM22 27C22.2652 27 22.5196 26.8946 22.7071 26.7071C22.8946 26.5196 23 26.2652 23 26C23 25.7348 22.8946 25.4804 22.7071 25.2929C22.5196 25.1054 22.2652 25 22 25C21.7348 25 21.4804 25.1054 21.2929 25.2929C21.1054 25.4804 21 25.7348 21 26C21 26.2652 21.1054 26.5196 21.2929 26.7071C21.4804 26.8946 21.7348 27 22 27Z" fill="#F5F5F5"/>
</svg>
