<svg width="44" height="44" viewBox="0 0 44 44" fill="none" xmlns="http://www.w3.org/2000/svg">
<path fill-rule="evenodd" clip-rule="evenodd" d="M22.476 14.75C19.726 14.75 17.512 16.95 17.512 19.647C17.512 20.109 17.577 20.556 17.697 20.978C18.194 21.122 18.66 21.338 19.08 21.618C19.1664 21.6703 19.2413 21.7396 19.3003 21.8216C19.3593 21.9036 19.4011 21.9966 19.4232 22.0952C19.4453 22.1938 19.4473 22.2958 19.4291 22.3951C19.4108 22.4944 19.3726 22.5891 19.3169 22.6733C19.2612 22.7576 19.189 22.8297 19.1047 22.8853C19.0204 22.941 18.9258 22.9791 18.8264 22.9972C18.7271 23.0154 18.6251 23.0133 18.5265 22.9911C18.428 22.9689 18.335 22.927 18.253 22.868C17.6699 22.4817 16.9855 22.2767 16.286 22.279C14.325 22.279 12.75 23.849 12.75 25.765C12.75 27.681 14.325 29.25 16.286 29.25H26.286C29.036 29.25 31.25 27.05 31.25 24.353C31.25 22.216 29.86 20.391 27.912 19.725C27.3887 19.5457 26.8392 19.4544 26.286 19.455C25.703 19.455 25.146 19.555 24.628 19.735C24.4414 19.7959 24.2383 19.7813 24.0624 19.6942C23.8865 19.607 23.7517 19.4544 23.6871 19.2691C23.6224 19.0837 23.633 18.8804 23.7166 18.7028C23.8001 18.5252 23.95 18.3874 24.134 18.319C25.1037 17.9798 26.1401 17.8753 27.158 18.014C26.8087 17.054 26.1715 16.2253 25.3335 15.6411C24.4955 15.0569 23.4975 14.7457 22.476 14.75ZM28.831 18.471C28.272 15.494 25.634 13.25 22.476 13.25C18.914 13.25 16.012 16.106 16.012 19.647C16.012 20.035 16.046 20.4133 16.114 20.782C13.42 20.872 11.25 23.06 11.25 25.765C11.25 28.526 13.513 30.75 16.286 30.75H26.286C29.847 30.75 32.75 27.894 32.75 24.353C32.75 21.709 31.131 19.448 28.831 18.471Z" fill="#F5F5F5"/>
</svg>
