<svg width="44" height="44" viewBox="0 0 44 44" fill="none" xmlns="http://www.w3.org/2000/svg">
<path fill-rule="evenodd" clip-rule="evenodd" d="M24.1 12.391C24.8332 11.6725 25.8203 11.2724 26.8468 11.2776C27.8733 11.2828 28.8563 11.693 29.5821 12.4189C30.3079 13.1449 30.7178 14.1279 30.7229 15.1544C30.7279 16.1809 30.3276 17.168 29.609 17.901L22.015 25.495C21.587 25.923 21.325 26.185 21.035 26.412C20.6916 26.6795 20.3201 26.9089 19.927 27.096C19.593 27.255 19.242 27.372 18.668 27.563L15.996 28.454L15.354 28.668C15.0724 28.7621 14.7701 28.7758 14.481 28.7077C14.192 28.6396 13.9277 28.4923 13.7177 28.2823C13.5077 28.0723 13.3604 27.808 13.2923 27.519C13.2242 27.2299 13.2379 26.9276 13.332 26.646L14.437 23.332C14.628 22.758 14.745 22.407 14.904 22.073C15.0915 21.6802 15.3212 21.309 15.589 20.966C15.816 20.675 16.077 20.413 16.505 19.986L24.1 12.391ZM15.96 26.885L15.116 26.039L15.844 23.854C16.056 23.218 16.144 22.959 16.258 22.719C16.3993 22.4237 16.5703 22.147 16.771 21.889C16.935 21.679 17.127 21.485 17.601 21.01L23.492 15.12C23.7981 15.8847 24.2571 16.5789 24.841 17.16C25.4222 17.7435 26.1163 18.2022 26.881 18.508L20.99 24.398C20.515 24.873 20.322 25.065 20.112 25.228C19.8533 25.4293 19.5767 25.6007 19.282 25.742C19.042 25.856 18.782 25.944 18.146 26.156L15.96 26.885ZM28.076 17.312C27.9219 17.278 27.77 17.2349 27.621 17.183C26.9725 16.9576 26.3841 16.5868 25.901 16.099C25.4143 15.615 25.0437 15.0269 24.817 14.379C24.7647 14.23 24.7213 14.0781 24.687 13.924L25.16 13.452C25.6118 13.0148 26.2172 12.7727 26.8459 12.7779C27.4745 12.783 28.0759 13.035 28.5204 13.4795C28.965 13.9241 29.217 14.5255 29.2221 15.1541C29.2273 15.7828 28.9852 16.3882 28.548 16.84L28.076 17.312Z" fill="#23262B"/>
<path fill-rule="evenodd" clip-rule="evenodd" d="M13.25 32C13.25 31.8011 13.329 31.6103 13.4697 31.4697C13.6103 31.329 13.8011 31.25 14 31.25H30C30.1989 31.25 30.3897 31.329 30.5303 31.4697C30.671 31.6103 30.75 31.8011 30.75 32C30.75 32.1989 30.671 32.3897 30.5303 32.5303C30.3897 32.671 30.1989 32.75 30 32.75H14C13.8011 32.75 13.6103 32.671 13.4697 32.5303C13.329 32.3897 13.25 32.1989 13.25 32Z" fill="#23262B"/>
</svg>
