<svg width="44" height="44" viewBox="0 0 44 44" fill="none" xmlns="http://www.w3.org/2000/svg">
<path d="M19.153 15.408C20.42 13.136 21.053 12 22 12C22.947 12 23.58 13.136 24.847 15.408L25.175 15.996C25.535 16.642 25.715 16.965 25.995 17.178C26.275 17.391 26.625 17.47 27.325 17.628L27.961 17.772C30.421 18.329 31.65 18.607 31.943 19.548C32.235 20.488 31.397 21.469 29.72 23.43L29.286 23.937C28.81 24.494 28.571 24.773 28.464 25.117C28.357 25.462 28.393 25.834 28.465 26.577L28.531 27.254C28.784 29.871 28.911 31.179 28.145 31.76C27.379 32.341 26.227 31.811 23.925 30.751L23.328 30.477C22.674 30.175 22.347 30.025 22 30.025C21.653 30.025 21.326 30.175 20.672 30.477L20.076 30.751C17.773 31.811 16.621 32.341 15.856 31.761C15.089 31.179 15.216 29.871 15.469 27.254L15.535 26.578C15.607 25.834 15.643 25.462 15.535 25.118C15.429 24.773 15.19 24.494 14.714 23.938L14.28 23.43C12.603 21.47 11.765 20.489 12.057 19.548C12.349 18.607 13.58 18.328 16.04 17.772L16.676 17.628C17.375 17.47 17.724 17.391 18.005 17.178C18.286 16.965 18.465 16.642 18.825 15.996L19.153 15.408Z" fill="#FFB700"/>
</svg>
