<svg width="44" height="44" viewBox="0 0 44 44" fill="none" xmlns="http://www.w3.org/2000/svg">
<path fill-rule="evenodd" clip-rule="evenodd" d="M24.279 12.152C23.909 12 23.439 12 22.5 12C21.561 12 21.092 12 20.721 12.152C20.4769 12.2517 20.2549 12.3988 20.0678 12.5846C19.8808 12.7705 19.7323 12.9915 19.631 13.235C19.537 13.458 19.501 13.719 19.486 14.098C19.4789 14.3725 19.4021 14.6407 19.2628 14.8774C19.1236 15.114 18.9265 15.3114 18.69 15.451C18.4487 15.5851 18.1775 15.6561 17.9015 15.6575C17.6255 15.6589 17.3536 15.5907 17.111 15.459C16.773 15.281 16.528 15.183 16.286 15.151C15.7566 15.0819 15.2213 15.2242 14.796 15.547C14.478 15.789 14.243 16.193 13.774 17C13.304 17.807 13.07 18.21 13.017 18.605C12.947 19.131 13.091 19.663 13.417 20.084C13.565 20.276 13.774 20.437 14.097 20.639C14.574 20.936 14.88 21.442 14.88 22C14.88 22.558 14.574 23.064 14.098 23.36C13.774 23.563 13.565 23.724 13.416 23.916C13.2556 24.1242 13.1377 24.362 13.0693 24.6158C13.0008 24.8696 12.983 25.1343 13.017 25.395C13.07 25.789 13.304 26.193 13.774 27C14.244 27.807 14.478 28.21 14.796 28.453C15.22 28.776 15.756 28.918 16.286 28.849C16.528 28.817 16.773 28.719 17.111 28.541C17.3537 28.4092 17.6258 28.3408 17.902 28.3422C18.1782 28.3436 18.4496 28.4147 18.691 28.549C19.177 28.829 19.465 29.344 19.486 29.902C19.501 30.282 19.537 30.542 19.631 30.765C19.835 31.255 20.227 31.645 20.721 31.848C21.091 32 21.561 32 22.5 32C23.439 32 23.909 32 24.279 31.848C24.5231 31.7483 24.7451 31.6012 24.9321 31.4154C25.1192 31.2295 25.2677 31.0085 25.369 30.765C25.463 30.542 25.499 30.282 25.514 29.902C25.534 29.344 25.823 28.828 26.31 28.549C26.5513 28.4149 26.8225 28.3439 27.0985 28.3425C27.3745 28.3411 27.6464 28.4093 27.889 28.541C28.227 28.719 28.472 28.817 28.714 28.849C29.244 28.919 29.78 28.776 30.204 28.453C30.522 28.211 30.757 27.807 31.226 27C31.696 26.193 31.93 25.79 31.983 25.395C32.0168 25.1343 31.9989 24.8695 31.9302 24.6157C31.8616 24.3619 31.7436 24.1241 31.583 23.916C31.435 23.724 31.226 23.563 30.903 23.361C30.426 23.064 30.12 22.558 30.12 22C30.12 21.442 30.426 20.936 30.902 20.64C31.226 20.437 31.435 20.276 31.584 20.084C31.7444 19.8758 31.8622 19.638 31.9307 19.3842C31.9992 19.1304 32.0169 18.8657 31.983 18.605C31.93 18.211 31.696 17.807 31.226 17C30.756 16.193 30.522 15.79 30.204 15.547C29.7787 15.2242 29.2434 15.0819 28.714 15.151C28.472 15.183 28.227 15.281 27.889 15.459C27.6463 15.5908 27.3742 15.6592 27.098 15.6578C26.8218 15.6564 26.5504 15.5853 26.309 15.451C26.0727 15.3113 25.8758 15.1139 25.7367 14.8772C25.5977 14.6405 25.521 14.3724 25.514 14.098C25.499 13.718 25.463 13.458 25.369 13.235C25.2677 12.9915 25.1192 12.7705 24.9321 12.5846C24.7451 12.3988 24.5231 12.2517 24.279 12.152ZM22.5 25C24.17 25 25.523 23.657 25.523 22C25.523 20.343 24.169 19 22.5 19C20.831 19 19.477 20.343 19.477 22C19.477 23.657 20.831 25 22.5 25Z" fill="#23262B"/>
</svg>
