<svg width="44" height="44" viewBox="0 0 44 44" fill="none" xmlns="http://www.w3.org/2000/svg">
<path fill-rule="evenodd" clip-rule="evenodd" d="M12.249 12.292C12.0612 12.226 11.8549 12.2372 11.6754 12.3233C11.496 12.4094 11.358 12.5632 11.292 12.751C11.226 12.9388 11.2372 13.1451 11.3233 13.3246C11.4094 13.504 11.5632 13.642 11.751 13.708L12.013 13.799C12.68 14.034 13.119 14.189 13.442 14.348C13.745 14.497 13.879 14.618 13.967 14.746C14.057 14.878 14.127 15.06 14.167 15.423C14.207 15.803 14.208 16.298 14.208 17.038V19.76C14.208 21.213 14.222 22.26 14.359 23.06C14.505 23.914 14.797 24.526 15.344 25.102C15.938 25.729 16.69 26.002 17.587 26.128C18.445 26.25 19.535 26.25 20.88 26.25H26.286C27.028 26.25 27.652 26.25 28.156 26.188C28.693 26.123 29.181 25.979 29.608 25.632C30.034 25.284 30.273 24.835 30.445 24.323C30.608 23.841 30.734 23.23 30.884 22.503L31.392 20.034L31.394 20.029L31.404 19.977C31.569 19.152 31.707 18.458 31.742 17.9C31.778 17.314 31.711 16.736 31.329 16.24C31.094 15.934 30.764 15.761 30.463 15.656C30.1379 15.5489 29.8018 15.4785 29.461 15.446C28.774 15.37 27.939 15.37 27.121 15.37H15.667L15.657 15.262C15.603 14.765 15.487 14.312 15.204 13.9C14.92 13.484 14.542 13.218 14.102 13.001C13.69 12.799 13.166 12.615 12.549 12.398L12.249 12.292ZM15.709 16.87H27.089C27.945 16.87 28.699 16.871 29.294 16.937C29.59 16.971 29.811 17.017 29.966 17.071C30.029 17.0898 30.0884 17.1189 30.142 17.157C30.204 17.239 30.27 17.387 30.244 17.808C30.217 18.252 30.101 18.844 29.923 19.734V19.736L29.423 22.156C29.263 22.939 29.153 23.459 29.024 23.844C28.901 24.21 28.785 24.367 28.66 24.469C28.535 24.571 28.357 24.653 27.975 24.699C27.571 24.749 27.04 24.75 26.241 24.75H20.938C19.521 24.75 18.538 24.748 17.798 24.643C17.082 24.542 16.705 24.358 16.432 24.07C16.112 23.732 15.939 23.402 15.837 22.807C15.727 22.157 15.708 21.249 15.708 19.76L15.709 16.87ZM17.5 31.75C16.9033 31.75 16.331 31.5129 15.909 31.091C15.4871 30.669 15.25 30.0967 15.25 29.5C15.25 28.9033 15.4871 28.331 15.909 27.909C16.331 27.487 16.9033 27.25 17.5 27.25C18.0967 27.25 18.669 27.487 19.091 27.909C19.513 28.331 19.75 28.9033 19.75 29.5C19.75 30.0967 19.513 30.669 19.091 31.091C18.669 31.5129 18.0967 31.75 17.5 31.75ZM16.75 29.5C16.75 29.6989 16.829 29.8897 16.9697 30.0303C17.1103 30.171 17.3011 30.25 17.5 30.25C17.6989 30.25 17.8897 30.171 18.0303 30.0303C18.171 29.8897 18.25 29.6989 18.25 29.5C18.25 29.3011 18.171 29.1103 18.0303 28.9697C17.8897 28.829 17.6989 28.75 17.5 28.75C17.3011 28.75 17.1103 28.829 16.9697 28.9697C16.829 29.1103 16.75 29.3011 16.75 29.5ZM26.5 31.75C25.9033 31.75 25.331 31.5129 24.909 31.091C24.4871 30.669 24.25 30.0967 24.25 29.5C24.25 28.9033 24.4871 28.331 24.909 27.909C25.331 27.487 25.9033 27.25 26.5 27.25C27.0967 27.25 27.669 27.487 28.091 27.909C28.513 28.331 28.75 28.9033 28.75 29.5C28.75 30.0967 28.513 30.669 28.091 31.091C27.669 31.5129 27.0967 31.75 26.5 31.75ZM25.75 29.5C25.75 29.6989 25.829 29.8897 25.9697 30.0303C26.1103 30.171 26.3011 30.25 26.5 30.25C26.6989 30.25 26.8897 30.171 27.0303 30.0303C27.171 29.8897 27.25 29.6989 27.25 29.5C27.25 29.3011 27.171 29.1103 27.0303 28.9697C26.8897 28.829 26.6989 28.75 26.5 28.75C26.3011 28.75 26.1103 28.829 25.9697 28.9697C25.829 29.1103 25.75 29.3011 25.75 29.5Z" fill="#F5F5F5"/>
</svg>
