<svg width="24" height="24" viewBox="0 0 24 24" fill="none" xmlns="http://www.w3.org/2000/svg">
<path d="M2.08401 2.751C2.14994 2.56338 2.28769 2.40963 2.46697 2.32356C2.64625 2.23748 2.85237 2.22613 3.04001 2.292L3.34201 2.398C3.95801 2.615 4.48201 2.799 4.89401 3.001C5.33401 3.218 5.71301 3.484 5.99701 3.9C6.27901 4.312 6.39501 4.765 6.44901 5.262C6.47234 5.484 6.48668 5.73 6.49201 6H17.131C18.816 6 20.332 6 20.776 6.577C21.22 7.154 21.046 8.024 20.7 9.763L20.2 12.188C19.885 13.716 19.727 14.481 19.175 14.93C18.624 15.38 17.843 15.38 16.282 15.38H10.98C8.19101 15.38 6.79701 15.38 5.93001 14.466C5.06301 13.552 5.00001 12.582 5.00001 9.64V7.038C5.00001 6.298 5.00001 5.803 4.95901 5.423C4.91901 5.06 4.84901 4.878 4.75901 4.746C4.67101 4.617 4.53801 4.496 4.23401 4.348C3.91201 4.19 3.47301 4.034 2.80501 3.799L2.54401 3.708C2.45099 3.67536 2.36532 3.6247 2.2919 3.55892C2.21848 3.49314 2.15875 3.41354 2.11612 3.32466C2.07349 3.23577 2.0488 3.13936 2.04346 3.04093C2.03812 2.94249 2.05124 2.84397 2.08401 2.751ZM7.50001 18C7.89783 18 8.27936 18.158 8.56067 18.4393C8.84197 18.7206 9.00001 19.1022 9.00001 19.5C9.00001 19.8978 8.84197 20.2794 8.56067 20.5607C8.27936 20.842 7.89783 21 7.50001 21C7.10218 21 6.72065 20.842 6.43935 20.5607C6.15804 20.2794 6.00001 19.8978 6.00001 19.5C6.00001 19.1022 6.15804 18.7206 6.43935 18.4393C6.72065 18.158 7.10218 18 7.50001 18ZM16.5 18C16.8978 18 17.2794 18.158 17.5607 18.4393C17.842 18.7206 18 19.1022 18 19.5C18 19.8978 17.842 20.2794 17.5607 20.5607C17.2794 20.842 16.8978 21 16.5 21C16.1022 21 15.7207 20.842 15.4393 20.5607C15.158 20.2794 15 19.8978 15 19.5C15 19.1022 15.158 18.7206 15.4393 18.4393C15.7207 18.158 16.1022 18 16.5 18Z" fill="#FFB700"/>
</svg>
