<svg width="44" height="44" viewBox="0 0 44 44" fill="none" xmlns="http://www.w3.org/2000/svg">
<path d="M26.03 20.03C26.1037 19.9613 26.1628 19.8785 26.2038 19.7865C26.2448 19.6945 26.2668 19.5952 26.2686 19.4945C26.2704 19.3938 26.2518 19.2938 26.2141 19.2004C26.1764 19.107 26.1203 19.0222 26.049 18.951C25.9778 18.8797 25.893 18.8236 25.7996 18.7859C25.7062 18.7482 25.6062 18.7296 25.5055 18.7314C25.4048 18.7332 25.3055 18.7552 25.2135 18.7962C25.1215 18.8372 25.0387 18.8963 24.97 18.97L20.5 23.44L19.03 21.97C18.8878 21.8375 18.6998 21.7654 18.5055 21.7688C18.3112 21.7723 18.1258 21.851 17.9884 21.9884C17.851 22.1258 17.7723 22.3112 17.7688 22.5055C17.7654 22.6998 17.8375 22.8878 17.97 23.03L19.97 25.03C20.1106 25.1705 20.3012 25.2493 20.5 25.2493C20.6987 25.2493 20.8894 25.1705 21.03 25.03L26.03 20.03Z" fill="#F5F5F5"/>
<path fill-rule="evenodd" clip-rule="evenodd" d="M22.057 11.25H21.943C19.634 11.25 17.825 11.25 16.413 11.44C14.969 11.634 13.829 12.04 12.934 12.934C12.039 13.829 11.634 14.969 11.44 16.414C11.25 17.825 11.25 19.634 11.25 21.943V22.057C11.25 24.366 11.25 26.175 11.44 27.587C11.634 29.031 12.04 30.171 12.934 31.066C13.829 31.961 14.969 32.366 16.414 32.56C17.825 32.75 19.634 32.75 21.943 32.75H22.057C24.366 32.75 26.175 32.75 27.587 32.56C29.031 32.366 30.171 31.96 31.066 31.066C31.961 30.171 32.366 29.031 32.56 27.586C32.75 26.175 32.75 24.366 32.75 22.057V21.943C32.75 19.634 32.75 17.825 32.56 16.413C32.366 14.969 31.96 13.829 31.066 12.934C30.171 12.039 29.031 11.634 27.586 11.44C26.175 11.25 24.366 11.25 22.057 11.25ZM13.995 13.995C14.565 13.425 15.335 13.098 16.614 12.926C17.914 12.752 19.622 12.75 22 12.75C24.378 12.75 26.086 12.752 27.386 12.926C28.665 13.098 29.436 13.426 30.006 13.995C30.575 14.565 30.902 15.335 31.074 16.614C31.248 17.914 31.25 19.622 31.25 22C31.25 24.378 31.248 26.086 31.074 27.386C30.902 28.665 30.574 29.436 30.005 30.006C29.435 30.575 28.665 30.902 27.386 31.074C26.086 31.248 24.378 31.25 22 31.25C19.622 31.25 17.914 31.248 16.614 31.074C15.335 30.902 14.564 30.574 13.994 30.005C13.425 29.435 13.098 28.665 12.926 27.386C12.752 26.086 12.75 24.378 12.75 22C12.75 19.622 12.752 17.914 12.926 16.614C13.098 15.335 13.426 14.565 13.995 13.995Z" fill="#F5F5F5"/>
</svg>
