<svg width="44" height="44" viewBox="0 0 44 44" fill="none" xmlns="http://www.w3.org/2000/svg">
<path fill-rule="evenodd" clip-rule="evenodd" d="M22 11.25C20.7402 11.25 19.532 11.7504 18.6412 12.6412C17.7504 13.532 17.25 14.7402 17.25 16C17.25 17.2598 17.7504 18.468 18.6412 19.3588C19.532 20.2496 20.7402 20.75 22 20.75C23.2598 20.75 24.468 20.2496 25.3588 19.3588C26.2496 18.468 26.75 17.2598 26.75 16C26.75 14.7402 26.2496 13.532 25.3588 12.6412C24.468 11.7504 23.2598 11.25 22 11.25ZM18.75 16C18.75 15.138 19.0924 14.3114 19.7019 13.7019C20.3114 13.0924 21.138 12.75 22 12.75C22.8619 12.75 23.6886 13.0924 24.2981 13.7019C24.9076 14.3114 25.25 15.138 25.25 16C25.25 16.862 24.9076 17.6886 24.2981 18.2981C23.6886 18.9076 22.8619 19.25 22 19.25C21.138 19.25 20.3114 18.9076 19.7019 18.2981C19.0924 17.6886 18.75 16.862 18.75 16ZM22 22.25C19.687 22.25 17.555 22.776 15.976 23.664C14.42 24.54 13.25 25.866 13.25 27.5V27.602C13.249 28.764 13.248 30.222 14.527 31.264C15.156 31.776 16.037 32.141 17.227 32.381C18.419 32.623 19.974 32.75 22 32.75C24.026 32.75 25.58 32.623 26.774 32.381C27.964 32.141 28.844 31.776 29.474 31.264C30.753 30.222 30.751 28.764 30.75 27.602V27.5C30.75 25.866 29.58 24.54 28.025 23.664C26.445 22.776 24.314 22.25 22 22.25ZM14.75 27.5C14.75 26.649 15.372 25.725 16.711 24.972C18.027 24.232 19.895 23.75 22.001 23.75C24.105 23.75 25.973 24.232 27.289 24.972C28.629 25.725 29.25 26.649 29.25 27.5C29.25 28.808 29.21 29.544 28.526 30.1C28.156 30.402 27.536 30.697 26.476 30.911C25.419 31.125 23.974 31.25 22 31.25C20.026 31.25 18.58 31.125 17.524 30.911C16.464 30.697 15.844 30.402 15.474 30.101C14.79 29.544 14.75 28.808 14.75 27.5Z" fill="#F5F5F5"/>
</svg>
