<svg width="82" height="129" viewBox="0 0 82 129" fill="none" xmlns="http://www.w3.org/2000/svg">
<path d="M36.692 48L0.191559 91.4996L43.6911 128L80.1916 84.5005L36.692 48Z" fill="#0E0626"/>
<path d="M11.1597 75.4717C12.1957 73.996 14.4707 71.3832 15.7221 69.9459C15.745 69.9195 15.7679 69.8931 15.7908 69.8667C16.0878 69.5256 16.3644 69.1993 16.6883 68.8169C17.4608 67.9049 18.5044 66.6729 20.7462 64.1549C21.3736 63.4014 22.0025 62.6489 22.6327 61.8978C26.8502 56.8717 31.1055 51.8773 35.3798 46.8989C35.9895 46.1458 37.0399 46.0781 37.7931 46.6878C40.8491 49.3116 43.8991 51.9426 46.9467 54.5765C47.0497 54.6619 47.1545 54.7487 47.2603 54.8364C49.305 56.5313 51.8405 58.633 53.3893 60.0063C55.3584 61.7524 56.6843 62.952 57.7715 63.9393C64.1345 69.4405 70.5061 74.9316 76.9194 80.3729C78.2309 81.4855 79.5442 82.5962 80.8596 83.7044C81.3165 84.0743 81.3575 84.7116 80.9876 85.1685C80.3973 85.8691 79.8077 86.5703 79.2188 87.2721C77.6586 89.1315 76.1017 90.9946 74.5485 92.86C73.6657 93.9646 72.8324 95.0199 72.0597 95.9984C70.9739 97.3736 70.0072 98.5977 69.191 99.5939C67.2243 101.994 64.9179 104.654 63.205 106.629C62.9251 106.951 62.6608 107.256 62.4166 107.538C61.0985 109.142 59.7812 110.747 58.4645 112.352C58.3656 112.45 58.2655 112.548 58.1637 112.648C56.8934 113.895 55.4951 115.565 53.2939 118.193C52.3353 119.338 51.2242 120.664 49.9053 122.217C49.0555 123.217 48.5699 123.69 48.1732 124.076C48.0565 124.19 47.9471 124.297 47.8388 124.407C47.4674 124.783 47.1451 125.239 46.7644 125.776C46.2704 126.474 45.6779 127.311 44.7518 128.296C44.6457 128.409 44.542 128.52 44.4406 128.629C44.0924 129.059 43.4924 129.098 43.0622 128.75C40.1433 126.032 38.6547 124.987 37.5188 124.191C37.1731 123.948 36.8599 123.728 36.5491 123.491C35.5414 122.723 34.1977 121.519 33.2055 120.581C32.4187 119.838 30.7217 118.496 29.4138 117.504C28.9193 117.129 28.2764 116.591 27.5195 115.956C26.7361 115.3 25.8299 114.541 24.8389 113.754C22.3346 111.765 21.0063 110.705 19.9386 109.853C19.6342 109.61 19.3508 109.384 19.0674 109.158C18.172 108.444 17.0685 107.549 15.9513 106.642C14.6143 105.558 13.2574 104.457 12.2142 103.632C9.60124 101.386 6.99425 99.1327 4.3877 96.8796C3.04899 95.722 1.84328 94.5175 1.04127 93.5266C0.239568 92.5357 -0.0944643 91.8406 0.117166 91.5882C0.328875 91.3359 1.07157 91.5443 2.18657 92.1617C3.30166 92.7795 4.69744 93.7575 6.06987 94.8749C8.83432 97.1263 11.5993 99.3781 14.3572 101.638C17.7167 104.391 21.0662 107.156 24.3931 109.947C26.7204 111.9 29.0427 113.859 31.361 115.823C31.5996 116.025 31.8383 116.227 32.0768 116.429C34.0841 118.008 36.083 119.589 37.4747 120.722C38.6239 121.658 39.4237 122.386 40.1087 123.009C40.5801 123.438 40.9972 123.817 41.4362 124.181C41.6719 124.376 41.9955 124.641 42.3857 124.961C43.0055 125.468 43.7938 126.114 44.6666 126.838L42.5286 127.025C43.665 125.654 44.994 124.075 46.284 122.613C47.2208 121.551 48.331 120.336 49.3909 119.176C50.9063 117.517 52.3195 115.97 52.9781 115.142C54.1347 113.69 55.5337 112.086 56.7698 110.668C57.949 109.315 58.9802 108.133 59.5118 107.414C60.1469 106.555 60.7518 105.875 61.651 104.865C62.2747 104.165 63.0401 103.305 64.0556 102.116C65.2281 100.742 66.0844 99.7935 66.8122 98.9869C67.8365 97.8517 68.6072 96.9976 69.6503 95.636C70.8091 94.1236 72.0467 92.5651 73.0742 91.382C73.5423 90.8432 74.0647 90.2159 74.6083 89.5633C75.328 88.6993 76.0849 87.7905 76.8023 86.9828C77.3934 86.3172 77.9152 85.7949 78.3769 85.3327C78.5209 85.1885 78.6591 85.05 78.7917 84.915C79.0522 84.6039 79.3126 84.2926 79.5728 83.9813L79.6724 85.1192C79.4399 84.9249 79.2074 84.7307 78.9748 84.5366C78.8802 84.4707 78.7805 84.4019 78.6765 84.33C78.1545 83.969 77.5128 83.5251 76.7528 82.9344C75.5499 81.9996 74.5496 81.1136 73.4945 80.1787C72.673 79.4509 71.8184 78.6935 70.8088 77.8608C70.1204 77.293 69.3252 76.6599 68.537 76.0323C67.3663 75.1002 66.2104 74.1796 65.4395 73.5014C65.1507 73.2473 64.9233 73.004 64.6983 72.7631C64.6974 72.762 64.6964 72.7609 64.6955 72.7598C64.6802 72.7434 64.6648 72.7271 64.6495 72.7107C62.715 71.1274 60.7783 69.5463 58.8406 67.9668C58.668 67.8355 58.4938 67.7025 58.3212 67.5708C57.4777 66.927 56.6582 66.3014 56.1003 65.9215C55.4958 65.5098 54.0668 64.3662 52.5608 63.1612C51.5747 62.372 50.5551 61.5561 49.7126 60.9022C49.2201 60.5199 48.7939 60.1083 48.3555 59.6847C47.9464 59.2895 47.5265 58.8838 47.0322 58.4822C46.7846 58.2811 46.5097 58.0728 46.2163 57.8505C45.9579 57.6548 45.6848 57.4479 45.4036 57.2257C45.1424 57.0191 44.5889 56.5253 43.8791 55.8923C43.4405 55.5011 42.942 55.0567 42.4159 54.5937C40.9807 53.4231 39.546 52.2515 38.1127 51.0788C37.7934 50.8583 37.5063 50.6789 37.2642 50.5546C37.0905 50.4655 36.933 50.4009 36.7714 50.3345C36.5514 50.2441 36.3239 50.1505 36.0382 49.9883C35.8149 49.8616 35.5749 49.6843 35.4341 49.541C35.4276 49.5344 35.4214 49.5279 35.4153 49.5215L38.2135 49.2767C38.1547 49.3321 38.102 49.3714 38.0538 49.4073C37.9925 49.453 37.9379 49.4939 37.8861 49.5562C37.8488 49.6012 37.8193 49.6558 37.7827 49.7228C37.7243 49.8298 37.6482 49.9687 37.4971 50.1505C36.9348 50.8271 36.2844 51.5867 35.6472 52.3308C34.9387 53.1583 34.2462 53.9671 33.708 54.6229C33.1051 55.3575 32.1994 56.3652 31.2922 57.3747C30.6594 58.0789 30.0258 58.7843 29.4932 59.3986C28.9713 60.0007 28.4576 60.6526 27.9603 61.284C27.3634 62.0419 26.7893 62.7709 26.2517 63.3487C26.1429 63.4655 25.9774 63.585 25.7698 63.735C25.6227 63.8413 25.4536 63.9638 25.2696 64.1104C24.6247 64.879 23.9781 65.6464 23.3303 66.4125C23.3127 66.444 23.2946 66.4763 23.2765 66.5088C23.2763 66.5094 23.276 66.5099 23.2758 66.5105C22.8681 67.2441 22.31 68.2479 21.1921 69.3781C20.908 69.6653 20.6983 69.8203 20.5094 69.96C20.3239 70.0972 20.1581 70.2198 19.9617 70.4381C19.7386 70.686 19.511 71.0088 19.2628 71.3606C18.9143 71.8545 18.5251 72.4063 18.0508 72.8897C18.0184 72.9227 17.9836 72.9581 17.9474 72.9951C17.6041 73.346 17.096 73.8654 16.5473 74.3461C15.1497 75.9655 13.748 77.5818 12.344 79.1959C10.0037 81.8864 7.6561 84.5718 5.30924 87.2564C4.16715 88.5622 2.98175 89.7389 2.00743 90.5224C1.0328 91.3058 0.350449 91.6329 0.1029 91.4252C-0.144563 91.2174 0.0592628 90.4887 0.661403 89.393C1.2638 88.2974 2.21681 86.9257 3.30451 85.5742C5.07863 83.3708 6.85327 81.1666 8.631 78.9658C8.72116 78.8479 8.81189 78.7296 8.9025 78.6122C9.5766 77.7384 10.1646 76.8962 10.7529 76.0534C10.888 75.8598 11.0234 75.6658 11.1597 75.4717Z" fill="#0E0626"/>
<path d="M20.332 80.55C24.5254 75.5524 31.9762 74.9005 36.9738 79.094C41.9714 83.2875 42.6232 90.7383 38.4298 95.7358C37.8487 96.4283 37.2027 97.034 36.5118 97.5582C37.6365 94.8995 36.9599 91.7119 34.6331 89.7594C31.7774 87.3632 27.5197 87.7358 25.1234 90.5914C23.0302 93.086 23.0492 96.6507 24.9911 99.1096C23.8575 98.6556 22.7744 98.0195 21.7879 97.1918C16.7904 92.9983 16.1385 85.5475 20.332 80.55Z" fill="#F5F5F5"/>
<path d="M41.6747 79.2474C45.8681 74.2498 53.3189 73.5979 58.3165 77.7914C63.3141 81.9849 63.9659 89.4357 59.7725 94.4332C58.9398 95.4255 57.9766 96.2431 56.9318 96.8888C58.8612 94.0585 58.369 90.1718 55.6892 87.9232C52.8335 85.5269 48.5759 85.8994 46.1796 88.7552C43.892 91.4816 44.1293 95.4842 46.6402 97.9264C45.3949 97.4678 44.2057 96.7913 43.1306 95.8892C38.1331 91.6957 37.4812 84.2449 41.6747 79.2474Z" fill="#F5F5F5"/>
<g clip-path="url(#clip0_1117_7320)">
<path d="M71.524 66.8072L7.58885 72.4008L19.5794 59.2863L20.1884 58.6202L18.892 43.8014L23.4588 43.4018L24.3883 54.0266L35.028 42.3897L71.524 66.8072Z" fill="#0E0626"/>
<path d="M22.0351 68.9505C23.38 68.6547 26.0093 68.4974 27.4556 68.4109C27.4821 68.4092 27.5086 68.4075 27.5351 68.4059C27.8784 68.3853 28.2025 68.3594 28.5823 68.3289C29.4878 68.256 30.7112 68.1577 33.2729 68.0471C34.015 67.978 34.7574 67.9108 35.4999 67.8458C43.5181 67.1443 51.5492 66.5898 59.5828 66.0644C59.6841 66.0546 59.787 66.0447 59.891 66.0346C61.9005 65.8404 64.3923 65.5997 65.9648 65.5271C67.9641 65.4348 69.3238 65.3926 70.4408 65.361C70.7579 65.3404 71.0749 65.3197 71.392 65.299L70.6821 68.0655C65.7069 64.5761 60.7226 61.1003 55.7009 57.6805C54.0447 56.5527 52.3842 55.4308 50.7188 54.3167C49.1853 53.2907 47.6482 52.2691 46.1088 51.2519C45.1942 50.6865 44.3196 50.1565 43.5086 49.6651C42.3689 48.9745 41.3544 48.3595 40.5312 47.8296C38.5476 46.5527 36.3605 45.0102 34.7364 43.8647C34.573 43.7495 34.4152 43.6382 34.2639 43.5316L36.042 43.3168C35.962 43.4002 35.8842 43.4813 35.8088 43.5601C34.7619 44.741 33.716 45.9233 32.6708 47.1058C32.5888 47.1736 32.5058 47.2416 32.4214 47.3106C31.3675 48.1717 30.2522 49.3953 28.4965 51.321C27.7319 52.1596 26.8457 53.1315 25.7903 54.2646C25.5885 54.4814 25.4111 54.6624 25.2527 54.8169C24.4937 55.6781 23.3426 55.2702 23.2216 54.1287C23.2059 53.6047 23.2279 53.2606 23.2468 52.9633C23.2547 52.8389 23.2621 52.7223 23.266 52.6046C23.2793 52.201 23.1903 51.7847 23.0852 51.2928C22.9488 50.6547 22.7851 49.8892 22.7824 48.8592C22.7748 45.9834 22.5335 44.5379 22.3145 43.5019L23.5589 44.5461C23.4126 44.577 23.2745 44.6075 23.1417 44.6368C22.8268 44.7062 22.5414 44.7691 22.2476 44.8158C21.3297 44.9619 20.023 45.0158 18.9984 45.018L20.1086 43.6949C20.1087 43.7336 20.1087 43.7719 20.1086 43.8098C20.1072 44.6345 20.3228 46.2654 20.5235 47.499C20.5994 47.9655 20.6558 48.6003 20.7221 49.3481C20.7906 50.1219 20.8698 51.0172 20.9926 51.9716C21.3031 54.3836 21.4635 55.6658 21.5922 56.6966C21.6289 56.9905 21.6629 57.2642 21.6973 57.5376C21.734 57.8297 21.7721 58.1458 21.8113 58.4782C21.8507 58.8228 21.6179 59.4572 21.3907 59.7194C21.2013 59.9394 21.0033 60.1683 20.8003 60.4026C20.545 60.6971 20.2816 61 20.0171 61.3043C19.1583 62.292 18.2867 63.2945 17.6376 64.0701C15.8358 65.9713 14.0256 67.8652 12.2159 69.7587C11.2861 70.7312 10.2902 71.5695 9.44244 72.0831C8.5946 72.5965 7.96537 72.7449 7.68674 72.4903C7.40816 72.2356 7.49988 71.5955 7.93539 70.7052C8.37121 69.8149 9.11695 68.7479 10.0024 67.7349C11.7867 65.6946 13.5713 63.6539 15.3647 61.6216C16.3722 60.4799 17.3826 59.3408 18.3974 58.2057C18.598 57.9814 18.7987 57.7572 18.9996 57.5332L18.5838 58.7605C18.4409 57.2895 18.3041 55.8179 18.1753 54.3457C17.974 52.0451 17.7817 49.7437 17.5966 47.4417C17.5775 47.2047 17.5586 46.9677 17.5397 46.7307C17.4106 45.7812 17.2836 44.8325 17.1702 43.952C17.1109 42.9761 17.7655 42.139 18.7413 42.0796C19.6457 41.9631 20.478 41.861 21.1653 41.7855C22.0273 41.6909 22.713 41.656 23.3043 41.6362C24.305 41.5754 25.1635 42.2466 25.2244 43.2474C25.2303 43.4243 25.2348 43.5929 25.2392 43.7551C25.2523 44.2398 25.2639 44.6687 25.3058 45.1C25.3283 45.3316 25.3617 45.6478 25.4019 46.0291C25.5664 47.5859 25.8456 50.2301 25.9667 52.6539C25.9862 53.0444 26.0025 53.4582 26.0168 53.8841L23.1819 52.9235C23.7152 52.3997 24.2803 51.8552 24.8289 51.3268C26.0603 50.1404 27.2086 49.034 27.7278 48.4202C28.6396 47.3423 29.7653 46.1793 30.7601 45.1518C31.709 44.1717 32.5388 43.3145 32.9501 42.7714C33.2943 42.317 33.6373 41.9408 34.0616 41.5061C34.4999 41.0516 35.2408 40.9365 35.7561 41.3013C35.9672 41.4528 36.1912 41.6174 36.4395 41.7999C37.0144 42.2224 37.72 42.7407 38.6994 43.4146C39.8301 44.1926 40.6079 44.7762 41.2689 45.2724C42.1992 45.9706 42.8992 46.496 44.0303 47.1478C45.2866 47.8719 46.5778 48.6615 47.5506 49.3492C47.9937 49.6624 48.5113 50.0047 49.0499 50.3607C49.7629 50.8321 50.5128 51.328 51.1757 51.8133C51.722 52.2133 52.1459 52.585 52.521 52.914C52.638 53.0167 52.7504 53.1151 52.8602 53.2089C53.3085 53.5078 53.757 53.8062 54.206 54.104C54.2851 54.1427 54.3685 54.1828 54.4556 54.2248C54.8924 54.4357 55.4294 54.6952 56.06 55.0674C57.0582 55.6564 57.8794 56.2551 58.7455 56.8869C59.4198 57.3788 60.1213 57.8907 60.9551 58.4333C61.5237 58.8033 62.1823 59.2079 62.8351 59.6089C63.8047 60.2046 64.7621 60.793 65.3953 61.2497C65.6325 61.4209 65.8158 61.5989 65.997 61.7752C65.9978 61.7761 65.9985 61.7769 65.9993 61.7778C66.0116 61.7897 66.024 61.8017 66.0363 61.8136C67.635 62.8411 69.2359 63.8656 70.8378 64.8883C70.9812 64.9701 71.126 65.0529 71.2694 65.135C71.6137 65.3322 71.9533 65.5267 72.265 65.6995C73.4156 66.4929 73.034 68.0324 71.6401 68.1347C71.2764 68.1974 70.9504 68.2595 70.6951 68.3214C70.1514 68.4532 68.7701 68.623 67.3144 68.802C66.3612 68.9192 65.3756 69.0403 64.5727 69.1573C64.1033 69.2257 63.6516 69.2176 63.1868 69.2092C62.7532 69.2013 62.3081 69.1933 61.8269 69.247C61.5858 69.2739 61.3267 69.3163 61.0501 69.3615C60.8066 69.4014 60.5492 69.4436 60.279 69.4793C60.0278 69.5124 59.4642 69.5358 58.7415 69.5661C58.2948 69.5848 57.7873 69.6061 57.2552 69.6337C55.8555 69.7859 54.4554 69.9368 53.0555 70.0857C52.7666 70.1527 52.5174 70.2287 52.3225 70.3153C52.1827 70.3774 52.0651 70.4473 51.9443 70.5188C51.7799 70.6162 51.6098 70.7168 51.3711 70.8061C51.1845 70.8758 50.9608 70.9167 50.8074 70.9079C50.736 70.9038 50.6802 70.8892 50.6294 70.876C50.5714 70.8609 50.5195 70.8475 50.4582 70.8533C50.414 70.8576 50.3692 70.8758 50.314 70.898C50.226 70.9333 50.1114 70.979 49.9325 70.996C49.2667 71.0589 48.5085 71.1138 47.7658 71.1675C46.9398 71.2273 46.1325 71.2857 45.4911 71.3525C44.7725 71.4273 43.7425 71.4643 42.7108 71.5017C41.9911 71.5277 41.2703 71.554 40.6534 71.5929C40.0488 71.631 39.4232 71.7151 38.8174 71.7968C38.0902 71.8948 37.3907 71.9892 36.7898 71.9952C36.6683 71.9964 36.5134 71.9524 36.3191 71.8974C36.1814 71.8584 36.023 71.8139 35.8437 71.7758C35.0839 71.8423 34.3238 71.9064 33.5637 71.9685C33.5376 71.9786 33.5107 71.9889 33.4838 71.9994C33.4834 71.9996 33.4829 71.9998 33.4825 72.0001C32.8744 72.2364 32.0422 72.5598 30.8296 72.5164C30.5213 72.5054 30.3232 72.4525 30.1448 72.405C29.9695 72.3583 29.8129 72.3165 29.5896 72.3244C29.3361 72.3333 29.0414 72.3972 28.7201 72.4667C28.269 72.5643 27.7652 72.6734 27.2486 72.6581C27.2134 72.657 27.1754 72.6558 27.136 72.6547C26.7616 72.6445 26.2075 72.6293 25.6505 72.5499C24.0278 72.6577 22.4045 72.7596 20.781 72.858C18.0748 73.0218 15.3672 73.1756 12.6604 73.3294C11.3435 73.4037 10.0687 73.3408 9.11574 73.1449C8.16266 72.9486 7.60956 72.6376 7.57728 72.2686C7.54509 71.8997 8.03579 71.4976 8.94023 71.1388C9.84472 70.7804 11.0891 70.4971 12.399 70.3416C14.535 70.0888 16.6716 69.8359 18.8083 69.5882C18.9199 69.5707 19.032 69.5534 19.1436 69.5366C19.9741 69.4119 20.7398 69.2403 21.5059 69.0685C21.6819 69.029 21.8583 68.9895 22.0351 68.9505Z" fill="#0E0626"/>
</g>
<defs>
<clipPath id="clip0_1117_7320">
<rect width="72" height="72" fill="white" transform="translate(2.19159)"/>
</clipPath>
</defs>
</svg>
