<svg width="82" height="85" viewBox="0 0 82 85" fill="none" xmlns="http://www.w3.org/2000/svg">
<path d="M36.692 4.00002L0.191559 47.4996L43.6911 84L80.1916 40.5005L36.692 4.00002Z" fill="#0E0626"/>
<path d="M11.1597 31.4717C12.1957 29.996 14.4707 27.3832 15.7221 25.9459C15.745 25.9195 15.7679 25.8931 15.7908 25.8667C16.0878 25.5256 16.3644 25.1993 16.6883 24.8169C17.4608 23.9049 18.5044 22.6729 20.7462 20.1549C21.3736 19.4014 22.0025 18.6489 22.6327 17.8978C26.8502 12.8717 31.1055 7.87732 35.3798 2.89894C35.9895 2.14578 37.0399 2.0781 37.7931 2.6878C40.8491 5.31164 43.8991 7.94265 46.9467 10.5765C47.0497 10.6619 47.1545 10.7487 47.2603 10.8364C49.305 12.5313 51.8405 14.633 53.3893 16.0063C55.3584 17.7524 56.6843 18.952 57.7715 19.9393C64.1345 25.4405 70.5061 30.9316 76.9194 36.3729C78.2309 37.4855 79.5442 38.5962 80.8596 39.7044C81.3165 40.0743 81.3575 40.7116 80.9876 41.1685C80.3973 41.8691 79.8077 42.5703 79.2188 43.2721C77.6586 45.1315 76.1017 46.9946 74.5485 48.86C73.6657 49.9646 72.8324 51.0199 72.0597 51.9984C70.9739 53.3736 70.0072 54.5977 69.191 55.5939C67.2243 57.9943 64.9179 60.6537 63.205 62.6286C62.9251 62.9513 62.6608 63.256 62.4166 63.5381C61.0985 65.1419 59.7812 66.7471 58.4645 68.3522C58.3656 68.4501 58.2655 68.5484 58.1637 68.6483C56.8934 69.8952 55.4951 71.565 53.2939 74.1933C52.3353 75.3378 51.2242 76.6643 49.9053 78.2168C49.0555 79.2172 48.5699 79.69 48.1732 80.0763C48.0565 80.19 47.9471 80.2966 47.8388 80.4065C47.4674 80.7833 47.1451 81.2385 46.7644 81.7762C46.2704 82.4738 45.6779 83.3108 44.7518 84.2963C44.6457 84.4092 44.542 84.52 44.4406 84.6289C44.0924 85.0591 43.4924 85.0978 43.0622 84.7495C40.1433 82.0317 38.6547 80.9875 37.5188 80.1906C37.1731 79.9482 36.8599 79.7283 36.5491 79.4914C35.5414 78.7232 34.1977 77.5191 33.2055 76.5813C32.4187 75.8376 30.7217 74.4964 29.4138 73.5042C28.9193 73.129 28.2764 72.5906 27.5195 71.9564C26.7361 71.3001 25.8299 70.5405 24.8389 69.7537C22.3346 67.7651 21.0063 66.7053 19.9386 65.8531C19.6342 65.6102 19.3508 65.3837 19.0674 65.1578C18.172 64.4439 17.0685 63.5488 15.9513 62.6425C14.6143 61.5579 13.2574 60.4571 12.2142 59.6323C9.60124 57.3863 6.99425 55.1327 4.3877 52.8796C3.04899 51.722 1.84328 50.5175 1.04127 49.5266C0.239568 48.5357 -0.0944643 47.8406 0.117166 47.5882C0.328875 47.3359 1.07157 47.5443 2.18657 48.1617C3.30166 48.7795 4.69744 49.7575 6.06987 50.8749C8.83432 53.1263 11.5993 55.3781 14.3572 57.6379C17.7167 60.3906 21.0662 63.1555 24.3931 65.9471C26.7204 67.9 29.0427 69.8589 31.361 71.8225C31.5996 72.0247 31.8383 72.227 32.0768 72.4293C34.0841 74.0077 36.083 75.5886 37.4747 76.7222C38.6239 77.6581 39.4237 78.3857 40.1087 79.0088C40.5801 79.4376 40.9972 79.817 41.4362 80.1807C41.6719 80.376 41.9955 80.641 42.3857 80.9605C43.0055 81.4682 43.7938 82.1138 44.6666 82.8375L42.5286 83.0246C43.665 81.6541 44.994 80.0753 46.284 78.6132C47.2208 77.5513 48.331 76.336 49.3909 75.1757C50.9063 73.5166 52.3195 71.9695 52.9781 71.1425C54.1347 69.6902 55.5337 68.0856 56.7698 66.6677C57.949 65.3154 58.9802 64.1326 59.5118 63.4137C60.1469 62.5548 60.7518 61.8755 61.651 60.8654C62.2747 60.1648 63.0401 59.3049 64.0556 58.1155C65.2281 56.7425 66.0844 55.7935 66.8122 54.9869C67.8365 53.8517 68.6072 52.9976 69.6503 51.636C70.8091 50.1236 72.0467 48.5651 73.0742 47.382C73.5423 46.8432 74.0647 46.2159 74.6083 45.5633C75.328 44.6993 76.0849 43.7905 76.8023 42.9828C77.3934 42.3172 77.9152 41.7949 78.3769 41.3327C78.5209 41.1885 78.6591 41.05 78.7917 40.915C79.0522 40.6039 79.3126 40.2926 79.5728 39.9813L79.6724 41.1192C79.4399 40.9249 79.2074 40.7307 78.9748 40.5366C78.8802 40.4707 78.7805 40.4019 78.6765 40.33C78.1545 39.969 77.5128 39.5251 76.7528 38.9344C75.5499 37.9996 74.5496 37.1136 73.4945 36.1787C72.673 35.4509 71.8184 34.6935 70.8088 33.8608C70.1204 33.293 69.3252 32.6599 68.537 32.0323C67.3663 31.1002 66.2104 30.1796 65.4395 29.5014C65.1507 29.2473 64.9233 29.004 64.6983 28.7631C64.6974 28.762 64.6964 28.7609 64.6955 28.7598C64.6802 28.7434 64.6648 28.7271 64.6495 28.7107C62.715 27.1274 60.7783 25.5463 58.8406 23.9668C58.668 23.8355 58.4938 23.7025 58.3212 23.5708C57.4777 22.927 56.6582 22.3014 56.1003 21.9215C55.4958 21.5098 54.0668 20.3662 52.5608 19.1612C51.5747 18.372 50.5551 17.5561 49.7126 16.9022C49.2201 16.5199 48.7939 16.1083 48.3555 15.6847C47.9464 15.2895 47.5265 14.8838 47.0322 14.4822C46.7846 14.2811 46.5097 14.0728 46.2163 13.8505C45.9579 13.6548 45.6848 13.4479 45.4036 13.2257C45.1424 13.0191 44.5889 12.5253 43.8791 11.8923C43.4405 11.5011 42.942 11.0567 42.4159 10.5937C40.9807 9.42313 39.546 8.25154 38.1127 7.07882C37.7934 6.85829 37.5063 6.67888 37.2642 6.55461C37.0905 6.46545 36.933 6.40095 36.7714 6.33452C36.5514 6.24412 36.3239 6.1505 36.0382 5.98833C35.8149 5.86157 35.5749 5.68429 35.4341 5.54098C35.4276 5.53441 35.4214 5.52793 35.4153 5.52151L38.2135 5.2767C38.1547 5.33214 38.102 5.37138 38.0538 5.40735C37.9925 5.45304 37.9379 5.49386 37.8861 5.55624C37.8488 5.60124 37.8193 5.65582 37.7827 5.72281C37.7243 5.82977 37.6482 5.96872 37.4971 6.15051C36.9348 6.82709 36.2844 7.58673 35.6472 8.33085C34.9387 9.1583 34.2462 9.96714 33.708 10.6229C33.1051 11.3575 32.1994 12.3652 31.2922 13.3747C30.6594 14.0789 30.0258 14.7843 29.4932 15.3986C28.9713 16.0007 28.4576 16.6526 27.9603 17.284C27.3634 18.0419 26.7893 18.7709 26.2517 19.3487C26.1429 19.4655 25.9774 19.585 25.7698 19.735C25.6227 19.8413 25.4536 19.9638 25.2696 20.1104C24.6247 20.879 23.9781 21.6464 23.3303 22.4125C23.3127 22.444 23.2946 22.4763 23.2765 22.5088C23.2763 22.5094 23.276 22.5099 23.2758 22.5105C22.8681 23.2441 22.31 24.2479 21.1921 25.3781C20.908 25.6653 20.6983 25.8203 20.5094 25.96C20.3239 26.0972 20.1581 26.2198 19.9617 26.4381C19.7386 26.686 19.511 27.0088 19.2628 27.3606C18.9143 27.8545 18.5251 28.4063 18.0508 28.8897C18.0184 28.9227 17.9836 28.9581 17.9474 28.9951C17.6041 29.346 17.096 29.8654 16.5473 30.3461C15.1497 31.9655 13.748 33.5818 12.344 35.1959C10.0037 37.8864 7.6561 40.5718 5.30924 43.2564C4.16715 44.5622 2.98175 45.7389 2.00743 46.5224C1.0328 47.3058 0.350449 47.6329 0.1029 47.4252C-0.144563 47.2174 0.0592628 46.4887 0.661403 45.393C1.2638 44.2974 2.21681 42.9257 3.30451 41.5742C5.07863 39.3708 6.85327 37.1666 8.631 34.9658C8.72116 34.8479 8.81189 34.7296 8.9025 34.6122C9.5766 33.7384 10.1646 32.8962 10.7529 32.0534C10.888 31.8598 11.0234 31.6658 11.1597 31.4717Z" fill="#0E0626"/>
<path d="M54.9899 31.7483C61.1203 33.9796 64.281 40.7578 62.0498 46.8882L46.9098 53.9481C40.7795 51.7168 37.6187 44.9386 39.85 38.8082L54.9899 31.7483ZM48.104 36.4796C44.7255 38.0551 43.2637 42.0712 44.8391 45.4498C46.4147 48.8283 50.4309 50.2901 53.8094 48.7147C57.188 47.1393 58.6496 43.1231 57.0743 39.7445C55.4988 36.3659 51.4827 34.9041 48.104 36.4796Z" fill="#F5F5F5"/>
<path d="M39.6618 38.8245C42.9237 44.4743 40.988 51.6984 35.3382 54.9604L19.2023 50.6368C15.9405 44.987 17.8761 37.7628 23.5259 34.5009L39.6618 38.8245ZM31.3457 38.0228C27.7449 37.0581 24.0435 39.1949 23.0786 42.7957C22.114 46.3965 24.251 50.0978 27.8516 51.0628C31.4524 52.0276 35.1537 49.8905 36.1186 46.2898C37.0835 42.6889 34.9466 38.9876 31.3457 38.0228Z" fill="#F5F5F5"/>
<path d="M62.9457 22.823C53.1953 -8.62663 14.2924 -2.5312 12.3636 29.2672C29.9677 34.329 53.8865 27.7689 62.9457 22.823Z" fill="#0CC594"/>
<path d="M57.4614 13.5754C56.8396 12.8008 55.6952 11.3313 54.9745 10.5626C54.9616 10.5485 54.9488 10.5345 54.936 10.5205C54.77 10.3392 54.6097 10.1724 54.4198 9.98102C53.9623 9.53246 53.3472 8.88629 51.9274 7.73055C51.4994 7.40779 51.0679 7.1033 50.6258 6.81166C45.8388 3.62147 39.8559 2.28365 34.1391 3.20376C34.0672 3.21645 33.9941 3.2297 33.9204 3.24344C32.4899 3.49784 30.7668 4.02222 29.7059 4.40901C28.3483 4.89394 27.4633 5.31279 26.7405 5.67132C22.6552 7.82202 19.2152 11.2121 16.8944 15.2326C16.1575 16.5028 15.534 17.8146 15.0066 19.1834C14.5259 20.4317 14.1278 21.725 13.8138 23.0382C13.64 23.827 13.5184 24.5299 13.4165 25.221C13.2734 26.1951 13.1904 27.046 13.1257 27.7538C13.0804 28.2509 13.0388 28.7739 13.0052 29.3061L12.5413 28.6495C13.7593 29.0044 15.009 29.3103 16.0209 29.5229C16.2527 29.5719 16.4725 29.6164 16.6764 29.6562C17.8194 29.852 18.9665 30.0037 20.1157 30.1179C20.1918 30.1327 20.2686 30.1477 20.3467 30.1628C21.3239 30.3493 22.5354 30.461 24.4532 30.5278C25.2868 30.5554 26.2571 30.572 27.3965 30.5667C28.1317 30.5626 28.5102 30.5849 28.8196 30.6038C28.9106 30.6092 28.9961 30.6141 29.0825 30.6174C29.3788 30.6285 29.6897 30.5936 30.0563 30.5495C30.5319 30.492 31.1011 30.4197 31.8582 30.4049C34.2746 30.3494 35.3228 30.1258 36.1156 29.9716C36.3477 29.9249 36.5576 29.8819 36.7731 29.8448C37.4708 29.7255 38.4782 29.6112 39.2382 29.5314C39.8449 29.4697 41.0338 29.2371 41.9308 29.0262C42.2677 28.9475 42.7308 28.8584 43.2745 28.7479C43.8347 28.6342 44.4845 28.4969 45.1734 28.3253C46.9116 27.8898 47.8281 27.6272 48.5633 27.4189C48.7731 27.3589 48.9615 27.3042 49.1607 27.2459C49.7847 27.0629 50.5336 26.8413 51.3104 26.5987C52.2196 26.3152 53.1539 26.0047 53.8556 25.7519C55.6891 25.1669 57.5075 24.5236 59.2803 23.7921C60.1825 23.4208 61.0832 23.0798 61.746 22.8823C62.4358 22.6718 62.8381 22.627 62.9179 22.7722C62.9967 22.9156 62.7429 23.2416 62.1455 23.6785C61.5768 24.1014 60.7099 24.5899 59.7958 24.9948C57.9371 25.8188 56.0351 26.5439 54.1152 27.1958C51.7708 27.9902 49.4057 28.6715 47.0041 29.2501C45.3227 29.6546 43.6345 30.0099 41.9358 30.3171C41.7609 30.3487 41.5857 30.3798 41.4101 30.4104C39.99 30.7073 38.5638 30.9611 37.5509 31.1115C36.718 31.2358 36.1044 31.2873 35.578 31.3288C35.2173 31.357 34.8976 31.38 34.5751 31.4147C34.4018 31.4334 34.1651 31.4595 33.8792 31.4894C32.7153 31.6136 30.7277 31.7827 28.9088 31.7955C28.1028 31.8031 27.1636 31.7824 26.2705 31.7435C24.991 31.6897 23.8024 31.595 23.2014 31.5755C22.1443 31.5437 20.9373 31.4265 19.8724 31.2887C18.8625 31.1596 17.9729 31.0128 17.4698 30.96C16.8629 30.8957 16.3511 30.7937 15.6011 30.6242C15.0756 30.5043 14.4395 30.353 13.5734 30.1298C13.0479 29.9938 12.609 29.8649 12.2263 29.7448L11.8379 29.6265L11.8676 29.2371C11.8991 28.8653 11.9336 28.5433 11.9683 28.2484C12.0741 27.3687 12.1634 26.7587 12.2743 25.7649C12.3999 24.6616 12.5937 23.5851 12.8288 22.6893C12.9331 22.2907 13.0511 21.8385 13.1838 21.3759C13.3551 20.7757 13.5708 20.1013 13.7921 19.5289C13.9757 19.0526 14.1552 18.6791 14.3205 18.3462C14.3729 18.2402 14.4238 18.139 14.4727 18.0412C14.6304 17.6631 14.7945 17.291 14.9644 16.925C14.9874 16.8636 15.0115 16.7991 15.037 16.7319C15.1646 16.3953 15.3258 15.9848 15.5737 15.4819C15.9666 14.6884 16.361 14.06 16.8267 13.3773C17.1864 12.8527 17.567 12.3316 18.0185 11.7293C18.3285 11.3157 18.6855 10.8525 19.0525 10.4094C19.5956 9.75038 20.1843 9.11687 20.6133 8.71931C20.7751 8.56881 20.924 8.45575 21.0777 8.34049C21.0784 8.34002 21.0791 8.33954 21.0798 8.33906C21.0902 8.33133 21.1006 8.32353 21.1109 8.31581C22.16 7.32614 23.2877 6.42565 24.4795 5.62755C24.5817 5.55478 24.6858 5.48201 24.7892 5.41081C25.2946 5.06221 25.7982 4.74688 26.1218 4.53218C26.4706 4.29799 27.4061 3.78238 28.4274 3.33296C29.0994 3.03414 29.8066 2.76074 30.3889 2.55151C30.731 2.42829 31.0671 2.34897 31.4132 2.27488C31.7362 2.20584 32.0681 2.14123 32.4261 2.05237C32.6056 2.00782 32.7994 1.95589 33.0067 1.90335C33.1892 1.85709 33.3827 1.81022 33.5866 1.76749C33.7762 1.72789 34.2024 1.66273 34.7515 1.60325C35.091 1.56637 35.4773 1.53186 35.883 1.50443C36.9526 1.39718 38.0294 1.36053 39.1062 1.39607C39.331 1.38773 39.5269 1.37584 39.6832 1.35606C39.7954 1.34188 39.8917 1.32305 39.9908 1.30435C40.1258 1.27899 40.266 1.25354 40.4579 1.24252C40.6079 1.23387 40.7834 1.24374 40.8992 1.26705C40.9532 1.27787 40.994 1.29132 41.031 1.30356C41.0734 1.31759 41.1112 1.33016 41.1585 1.33597C41.1927 1.34017 41.2287 1.33855 41.2731 1.33684C41.3441 1.33414 41.4365 1.33087 41.5739 1.35016C42.0852 1.42177 42.6639 1.52874 43.2276 1.65554C43.8521 1.7952 44.4539 1.95833 44.9351 2.09437C45.4774 2.24629 46.2208 2.51238 46.9558 2.8245C47.4704 3.04179 47.9716 3.27611 48.3988 3.4824C48.8181 3.68446 49.2592 3.89082 49.6832 4.10453C50.1841 4.35629 50.6595 4.6179 51.0426 4.87949C51.1201 4.93235 51.2055 5.01531 51.3117 5.12034C51.3869 5.19479 51.4732 5.28077 51.5735 5.37497C52.0586 5.69501 52.5307 6.03124 52.9969 6.38886C53.0154 6.3987 53.0344 6.4089 53.0535 6.4191C53.0539 6.41924 53.0542 6.41939 53.0545 6.41953C53.4892 6.65343 54.0697 6.97215 54.7183 7.64032C54.8828 7.81035 54.9714 7.93415 55.0509 8.04569C55.1288 8.1554 55.1979 8.2537 55.319 8.37722C55.4562 8.5173 55.626 8.66069 55.8135 8.82454C56.0757 9.05351 56.3666 9.31739 56.6136 9.62734C56.6305 9.64849 56.6485 9.6713 56.6674 9.69503C56.8453 9.91855 57.1117 10.2628 57.3295 10.6104C58.1049 11.5588 58.8347 12.5833 59.4825 13.6207C60.5811 15.3785 61.4833 17.2094 62.2382 19.113C62.6178 20.0701 62.8527 20.9399 62.9677 21.6556C63.0784 22.3615 63.0442 22.7932 62.8904 22.8401C62.7355 22.8884 62.4717 22.5511 62.1358 21.9382C61.7958 21.3148 61.4289 20.5265 61.0304 19.6164C60.4015 18.1809 59.674 16.7802 58.8711 15.4755C58.8277 15.4088 58.7833 15.3407 58.7375 15.2705C58.3992 14.753 58.0552 14.3039 57.7045 13.8714C57.624 13.7721 57.5429 13.6735 57.4614 13.5754Z" fill="#0E0626"/>
</svg>
