<svg width="82" height="83" viewBox="0 0 82 83" fill="none" xmlns="http://www.w3.org/2000/svg">
<path d="M36.692 1.72307L0.191528 45.2226L43.6911 81.7231L80.1915 38.2235L36.692 1.72307Z" fill="#0E0626"/>
<path d="M11.1597 29.1948C12.1957 27.7191 14.4707 25.1063 15.7221 23.669C15.745 23.6426 15.7679 23.6162 15.7908 23.5898C16.0878 23.2486 16.3643 22.9223 16.6883 22.5399C17.4607 21.628 18.5044 20.396 20.7461 17.8779C21.3736 17.1245 22.0024 16.372 22.6327 15.6209C26.8501 10.5947 31.1054 5.60037 35.3798 0.62199C35.9895 -0.131168 37.0399 -0.198846 37.7931 0.410853C40.8491 3.03469 43.8991 5.6657 46.9467 8.29954C47.0497 8.38491 47.1544 8.47172 47.2603 8.55943C49.305 10.2543 51.8405 12.356 53.3893 13.7294C55.3583 15.4754 56.6842 16.675 57.7714 17.6624C64.1344 23.1635 70.5061 28.6547 76.9194 34.0959C78.2308 35.2086 79.5442 36.3192 80.8595 37.4275C81.3164 37.7973 81.3575 38.4346 80.9876 38.8915C80.3973 39.5922 79.8077 40.2934 79.2188 40.9951C77.6586 42.8546 76.1017 44.7177 74.5485 46.5831C73.6656 47.6876 72.8324 48.7429 72.0597 49.7215C70.9739 51.0966 70.0072 52.3207 69.1909 53.317C67.2243 55.7173 64.9178 58.3767 63.205 60.3516C62.9251 60.6744 62.6608 60.9791 62.4166 61.2612C61.0984 62.865 59.7811 64.4701 58.4645 66.0752C58.3655 66.1731 58.2655 66.2715 58.1637 66.3714C56.8934 67.6182 55.4951 69.2881 53.2939 71.9164C52.3353 73.0609 51.2242 74.3874 49.9053 75.9399C49.0554 76.9403 48.5699 77.413 48.1732 77.7994C48.0565 77.9131 47.9471 78.0197 47.8388 78.1296C47.4674 78.5064 47.1451 78.9616 46.7644 79.4993C46.2704 80.1969 45.6778 81.0339 44.7518 82.0193C44.6457 82.1322 44.542 82.2431 44.4406 82.352C44.0923 82.7822 43.4924 82.8208 43.0622 82.4726C40.1433 79.7548 38.6547 78.7105 37.5187 77.9137C37.1731 77.6712 36.8598 77.4514 36.5491 77.2145C35.5413 76.4463 34.1977 75.2421 33.2055 74.3043C32.4187 73.5607 30.7217 72.2195 29.4138 71.2272C28.9192 70.8521 28.2764 70.3137 27.5194 69.6794C26.7361 69.0231 25.8298 68.2636 24.8389 67.4767C22.3346 65.4882 21.0063 64.4283 19.9385 63.5762C19.6341 63.3332 19.3507 63.1068 19.0674 62.8809C18.1719 62.167 17.0684 61.2719 15.9512 60.3655C14.6143 59.281 13.2574 58.1802 12.2142 57.3554C9.60121 55.1094 6.99422 52.8558 4.38767 50.6027C3.04896 49.4451 1.84325 48.2405 1.04124 47.2497C0.239537 46.2588 -0.0944949 45.5636 0.117135 45.3113C0.328844 45.059 1.07154 45.2673 2.18654 45.8848C3.30163 46.5025 4.69741 47.4806 6.06984 48.5979C8.83429 50.8493 11.5993 53.1012 14.3572 55.3609C17.7167 58.1136 21.0662 60.8786 24.3931 63.6702C26.7204 65.623 29.0427 67.5819 31.3609 69.5456C31.5996 69.7478 31.8382 69.9501 32.0768 70.1523C34.0841 71.7308 36.0829 73.3117 37.4747 74.4452C38.6239 75.3811 39.4237 76.1087 40.1086 76.7318C40.58 77.1606 40.9971 77.5401 41.4361 77.9037C41.6719 78.099 41.9955 78.364 42.3856 78.6836C43.0055 79.1912 43.7938 79.8368 44.6666 80.5606L42.5286 80.7476C43.665 79.3771 44.994 77.7984 46.2839 76.3363C47.2208 75.2744 48.331 74.059 49.3908 72.8987C50.9063 71.2397 52.3195 69.6926 52.9781 68.8655C54.1347 67.4132 55.5336 65.8086 56.7698 64.3908C57.949 63.0384 58.9802 61.8556 59.5117 61.1368C60.1468 60.2779 60.7518 59.5985 61.651 58.5884C62.2747 57.8878 63.04 57.0279 64.0556 55.8386C65.2281 54.4655 66.0843 53.5166 66.8122 52.71C67.8365 51.5748 68.6072 50.7206 69.6503 49.3591C70.8091 47.8467 72.0467 46.2881 73.0742 45.1051C73.5422 44.5662 74.0647 43.939 74.6083 43.2863C75.3279 42.4223 76.0849 41.5136 76.8022 40.7059C77.3934 40.0402 77.9151 39.5179 78.3768 39.0557C78.5208 38.9115 78.659 38.7731 78.7917 38.6381C79.0521 38.3269 79.3125 38.0157 79.5728 37.7043L79.6723 38.8423C79.4399 38.648 79.2073 38.4538 78.9747 38.2596C78.8802 38.1938 78.7805 38.125 78.6764 38.053C78.1544 37.692 77.5127 37.2481 76.7528 36.6575C75.5499 35.7227 74.5495 34.8366 73.4945 33.9018C72.673 33.1739 71.8183 32.4165 70.8088 31.5838C70.1203 31.016 69.3252 30.3829 68.537 29.7553C67.3663 28.8232 66.2103 27.9027 65.4395 27.2245C65.1507 26.9703 64.9232 26.7271 64.6983 26.4862C64.6973 26.4851 64.6964 26.4839 64.6954 26.4828C64.6802 26.4665 64.6648 26.4501 64.6495 26.4338C62.715 24.8505 60.7783 23.2694 58.8406 21.6898C58.668 21.5585 58.4938 21.4256 58.3211 21.2938C57.4777 20.65 56.6581 20.0244 56.1003 19.6445C55.4958 19.2328 54.0667 18.0893 52.5608 16.8842C51.5746 16.0951 50.555 15.2792 49.7125 14.6252C49.22 14.2429 48.7938 13.8313 48.3554 13.4078C47.9464 13.0126 47.5264 12.6069 47.0321 12.2053C46.7845 12.0041 46.5096 11.7958 46.2162 11.5736C45.9579 11.3779 45.6848 11.171 45.4036 10.9487C45.1423 10.7422 44.5889 10.2483 43.8791 9.61532C43.4404 9.22412 42.9419 8.77971 42.4158 8.31676C40.9807 7.14618 39.546 5.97459 38.1126 4.80187C37.7934 4.58134 37.5063 4.40193 37.2642 4.27766C37.0905 4.18851 36.9329 4.124 36.7713 4.05757C36.5514 3.96717 36.3239 3.87355 36.0382 3.71138C35.8149 3.58462 35.5748 3.40734 35.434 3.26403C35.4276 3.25747 35.4213 3.25098 35.4153 3.24456L38.2135 2.99976C38.1546 3.05519 38.102 3.09444 38.0537 3.1304C37.9925 3.1761 37.9379 3.21691 37.8861 3.27929C37.8488 3.32429 37.8192 3.37888 37.7827 3.44586C37.7243 3.55282 37.6482 3.69178 37.4971 3.87357C36.9347 4.55014 36.2843 5.30978 35.6472 6.0539C34.9386 6.88136 34.2461 7.69019 33.708 8.34595C33.1051 9.08057 32.1993 10.0882 31.2922 11.0977C30.6594 11.8019 30.0258 12.5074 29.4932 13.1217C28.9712 13.7237 28.4576 14.3756 27.9603 15.007C27.3634 15.7649 26.7893 16.494 26.2517 17.0718C26.1429 17.1886 25.9773 17.3081 25.7698 17.458C25.6226 17.5644 25.4536 17.6869 25.2696 17.8335C24.6247 18.6021 23.978 19.3695 23.3302 20.1356C23.3127 20.167 23.2946 20.1994 23.2765 20.2319C23.2763 20.2324 23.276 20.233 23.2758 20.2335C22.868 20.9671 22.31 21.971 21.1921 23.1011C20.9079 23.3884 20.6983 23.5434 20.5094 23.6831C20.3239 23.8203 20.158 23.9428 19.9616 24.1611C19.7386 24.4091 19.511 24.7318 19.2628 25.0836C18.9143 25.5776 18.5251 26.1293 18.0508 26.6127C18.0184 26.6457 17.9835 26.6812 17.9473 26.7182C17.6041 27.069 17.096 27.5885 16.5473 28.0691C15.1496 29.6885 13.7479 31.3049 12.344 32.919C10.0036 35.6095 7.65607 38.2948 5.30921 40.9794C4.16712 42.2852 2.98172 43.462 2.0074 44.2455C1.03277 45.0288 0.350419 45.356 0.10287 45.1482C-0.144593 44.9405 0.0592322 44.2118 0.661373 43.116C1.26377 42.0204 2.21678 40.6488 3.30448 39.2972C5.0786 37.0938 6.85324 34.8897 8.63097 32.6888C8.72113 32.5709 8.81186 32.4527 8.90247 32.3352C9.57657 31.4614 10.1645 30.6192 10.7529 29.7764C10.888 29.5828 11.0234 29.3888 11.1597 29.1948Z" fill="#0E0626"/>
</svg>
