<svg width="82" height="88" viewBox="0 0 82 88" fill="none" xmlns="http://www.w3.org/2000/svg">
<path d="M36.692 6.99999L0.191559 50.4995L43.6911 87L80.1916 43.5004L36.692 6.99999Z" fill="#0E0626"/>
<path d="M11.1597 34.4717C12.1957 32.996 14.4707 30.3832 15.7221 28.9459C15.745 28.9195 15.7679 28.8931 15.7908 28.8667C16.0878 28.5256 16.3644 28.1993 16.6883 27.8168C17.4608 26.9049 18.5044 25.6729 20.7462 23.1548C21.3736 22.4014 22.0025 21.6489 22.6327 20.8978C26.8502 15.8716 31.1055 10.8773 35.3798 5.89891C35.9895 5.14575 37.0399 5.07807 37.7931 5.68777C40.8491 8.3116 43.8991 10.9426 46.9467 13.5765C47.0497 13.6618 47.1545 13.7486 47.2603 13.8363C49.305 15.5312 51.8405 17.6329 53.3893 19.0063C55.3584 20.7523 56.6843 21.9519 57.7715 22.9393C64.1345 28.4405 70.5061 33.9316 76.9194 39.3728C78.2309 40.4855 79.5442 41.5962 80.8596 42.7044C81.3165 43.0743 81.3575 43.7115 80.9876 44.1684C80.3973 44.8691 79.8077 45.5703 79.2188 46.2721C77.6586 48.1315 76.1017 49.9946 74.5485 51.86C73.6657 52.9645 72.8324 54.0198 72.0597 54.9984C70.9739 56.3735 70.0072 57.5976 69.191 58.5939C67.2243 60.9942 64.9179 63.6537 63.205 65.6285C62.9251 65.9513 62.6608 66.256 62.4166 66.5381C61.0985 68.1419 59.7812 69.747 58.4645 71.3521C58.3656 71.45 58.2655 71.5484 58.1637 71.6483C56.8934 72.8952 55.4951 74.565 53.2939 77.1933C52.3353 78.3378 51.2242 79.6643 49.9053 81.2168C49.0555 82.2172 48.5699 82.69 48.1732 83.0763C48.0565 83.19 47.9471 83.2966 47.8388 83.4065C47.4674 83.7833 47.1451 84.2385 46.7644 84.7762C46.2704 85.4738 45.6779 86.3108 44.7518 87.2962C44.6457 87.4091 44.542 87.52 44.4406 87.6289C44.0924 88.0591 43.4924 88.0977 43.0622 87.7495C40.1433 85.0317 38.6547 83.9875 37.5188 83.1906C37.1731 82.9481 36.8599 82.7283 36.5491 82.4914C35.5414 81.7232 34.1977 80.5191 33.2055 79.5812C32.4187 78.8376 30.7217 77.4964 29.4138 76.5041C28.9193 76.129 28.2764 75.5906 27.5195 74.9564C26.7361 74.3 25.8299 73.5405 24.8389 72.7536C22.3346 70.7651 21.0063 69.7052 19.9386 68.8531C19.6342 68.6101 19.3508 68.3837 19.0674 68.1578C18.172 67.4439 17.0685 66.5488 15.9513 65.6425C14.6143 64.5579 13.2574 63.4571 12.2142 62.6323C9.60124 60.3863 6.99425 58.1327 4.3877 55.8796C3.04899 54.722 1.84328 53.5175 1.04127 52.5266C0.239568 51.5357 -0.0944643 50.8406 0.117166 50.5882C0.328875 50.3359 1.07157 50.5443 2.18657 51.1617C3.30166 51.7794 4.69744 52.7575 6.06987 53.8748C8.83432 56.1262 11.5993 58.3781 14.3572 60.6378C17.7167 63.3905 21.0662 66.1555 24.3931 68.9471C26.7204 70.8999 29.0427 72.8588 31.361 74.8225C31.5996 75.0247 31.8383 75.227 32.0768 75.4292C34.0841 77.0077 36.083 78.5886 37.4747 79.7221C38.6239 80.6581 39.4237 81.3857 40.1087 82.0088C40.5801 82.4375 40.9972 82.817 41.4362 83.1807C41.6719 83.3759 41.9955 83.6409 42.3857 83.9605C43.0055 84.4682 43.7938 85.1138 44.6666 85.8375L42.5286 86.0245C43.665 84.6541 44.994 83.0753 46.284 81.6132C47.2208 80.5513 48.331 79.3359 49.3909 78.1757C50.9063 76.5166 52.3195 74.9695 52.9781 74.1424C54.1347 72.6902 55.5337 71.0855 56.7698 69.6677C57.949 68.3153 58.9802 67.1325 59.5118 66.4137C60.1469 65.5548 60.7518 64.8754 61.651 63.8654C62.2747 63.1648 63.0401 62.3048 64.0556 61.1155C65.2281 59.7424 66.0844 58.7935 66.8122 57.9869C67.8365 56.8517 68.6072 55.9975 69.6503 54.636C70.8091 53.1236 72.0467 51.565 73.0742 50.382C73.5423 49.8431 74.0647 49.2159 74.6083 48.5633C75.328 47.6992 76.0849 46.7905 76.8023 45.9828C77.3934 45.3172 77.9152 44.7948 78.3769 44.3326C78.5209 44.1885 78.6591 44.05 78.7917 43.915C79.0522 43.6038 79.3126 43.2926 79.5728 42.9812L79.6724 44.1192C79.4399 43.9249 79.2074 43.7307 78.9748 43.5366C78.8802 43.4707 78.7805 43.4019 78.6765 43.3299C78.1545 42.969 77.5128 42.525 76.7528 41.9344C75.5499 40.9996 74.5496 40.1135 73.4945 39.1787C72.673 38.4509 71.8184 37.6935 70.8088 36.8608C70.1204 36.2929 69.3252 35.6598 68.537 35.0322C67.3663 34.1001 66.2104 33.1796 65.4395 32.5014C65.1507 32.2473 64.9233 32.004 64.6983 31.7631C64.6974 31.762 64.6964 31.7609 64.6955 31.7598C64.6802 31.7434 64.6648 31.727 64.6495 31.7107C62.715 30.1274 60.7783 28.5463 58.8406 26.9668C58.668 26.8354 58.4938 26.7025 58.3212 26.5708C57.4777 25.9269 56.6582 25.3013 56.1003 24.9214C55.4958 24.5097 54.0668 23.3662 52.5608 22.1611C51.5747 21.372 50.5551 20.5561 49.7126 19.9021C49.2201 19.5199 48.7939 19.1082 48.3555 18.6847C47.9464 18.2895 47.5265 17.8838 47.0322 17.4822C46.7846 17.2811 46.5097 17.0728 46.2163 16.8505C45.9579 16.6548 45.6848 16.4479 45.4036 16.2256C45.1424 16.0191 44.5889 15.5253 43.8791 14.8922C43.4405 14.501 42.942 14.0566 42.4159 13.5937C40.9807 12.4231 39.546 11.2515 38.1127 10.0788C37.7934 9.85826 37.5063 9.67885 37.2642 9.55458C37.0905 9.46542 36.933 9.40092 36.7714 9.33449C36.5514 9.24409 36.3239 9.15046 36.0382 8.9883C35.8149 8.86154 35.5749 8.68426 35.4341 8.54095C35.4276 8.53438 35.4214 8.5279 35.4153 8.52148L38.2135 8.27667C38.1547 8.33211 38.102 8.37135 38.0538 8.40731C37.9925 8.45301 37.9379 8.49383 37.8861 8.55621C37.8488 8.60121 37.8193 8.65579 37.7827 8.72278C37.7243 8.82974 37.6482 8.96869 37.4971 9.15048C36.9348 9.82706 36.2844 10.5867 35.6472 11.3308C34.9387 12.1583 34.2462 12.9671 33.708 13.6229C33.1051 14.3575 32.1994 15.3651 31.2922 16.3746C30.6594 17.0789 30.0258 17.7843 29.4932 18.3986C28.9713 19.0006 28.4576 19.6525 27.9603 20.2839C27.3634 21.0418 26.7893 21.7709 26.2517 22.3487C26.1429 22.4655 25.9774 22.585 25.7698 22.735C25.6227 22.8413 25.4536 22.9638 25.2696 23.1104C24.6247 23.879 23.9781 24.6464 23.3303 25.4125C23.3127 25.4439 23.2946 25.4763 23.2765 25.5088C23.2763 25.5094 23.276 25.5099 23.2758 25.5105C22.8681 26.2441 22.31 27.2479 21.1921 28.378C20.908 28.6653 20.6983 28.8203 20.5094 28.96C20.3239 29.0972 20.1581 29.2198 19.9617 29.4381C19.7386 29.686 19.511 30.0087 19.2628 30.3605C18.9143 30.8545 18.5251 31.4062 18.0508 31.8896C18.0184 31.9226 17.9836 31.9581 17.9474 31.9951C17.6041 32.3459 17.096 32.8654 16.5473 33.346C15.1497 34.9655 13.748 36.5818 12.344 38.1959C10.0037 40.8864 7.6561 43.5718 5.30924 46.2563C4.16715 47.5621 2.98175 48.7389 2.00743 49.5224C1.0328 50.3057 0.350449 50.6329 0.1029 50.4251C-0.144563 50.2174 0.0592628 49.4887 0.661403 48.3929C1.2638 47.2974 2.21681 45.9257 3.30451 44.5742C5.07863 42.3707 6.85327 40.1666 8.631 37.9657C8.72116 37.8478 8.81189 37.7296 8.9025 37.6122C9.5766 36.7384 10.1646 35.8961 10.7529 35.0533C10.888 34.8597 11.0234 34.6658 11.1597 34.4717Z" fill="#0E0626"/>
<path d="M32.8404 36.1984C38.9708 38.4297 42.1315 45.208 39.9002 51.3384C37.6689 57.4688 30.8907 60.6295 24.7603 58.3983C18.63 56.1669 15.4691 49.3887 17.7004 43.2583L32.8404 36.1984ZM25.9887 41.5345C22.61 43.11 21.1483 47.1261 22.7238 50.5047C24.2993 53.8832 28.3154 55.3451 31.694 53.7696C35.0725 52.1941 36.5342 48.1779 34.9589 44.7994C33.3834 41.4208 29.3673 39.9591 25.9887 41.5345Z" fill="#F5F5F5"/>
<path d="M61.2785 39.4456C64.5404 45.0954 62.6047 52.3195 56.9549 55.5814C51.3051 58.8434 44.081 56.9077 40.819 51.2579C37.5572 45.608 39.4928 38.3839 45.1426 35.122L61.2785 39.4456ZM52.5999 39.129C48.999 38.1642 45.2977 40.3011 44.3328 43.902C43.3682 47.5028 45.505 51.2042 49.1058 52.169C52.7066 53.1338 56.4079 50.9968 57.3728 47.3961C58.3377 43.7952 56.2007 40.0939 52.5999 39.129Z" fill="#F5F5F5"/>
<path d="M71.524 27.4008L7.58885 32.9944L19.5794 19.8799L20.1884 19.2138L18.892 4.395L23.4588 3.99546L24.3883 14.6202L35.028 2.98328L71.524 27.4008Z" fill="#0E0626"/>
<path d="M22.1421 30.7673C23.4957 30.5711 26.1214 30.3732 27.5658 30.2642C27.5923 30.2622 27.6188 30.2602 27.6452 30.2581C27.988 30.2323 28.312 30.205 28.6917 30.173C29.5969 30.0966 30.8198 29.9933 33.376 29.8193C34.1183 29.7525 34.8608 29.6865 35.6033 29.6216C43.6215 28.9201 51.6454 28.2827 59.6703 27.658C59.7716 27.6487 59.8746 27.6393 59.9786 27.6298C61.989 27.4459 64.4819 27.2179 66.0513 27.1089C68.0465 26.9704 69.4024 26.8853 70.5162 26.8167C70.8329 26.7921 71.1497 26.7675 71.4664 26.7428L71.1567 27.9498C66.1396 24.523 61.1185 21.1021 56.0812 17.7057C54.4198 16.5856 52.7565 15.468 51.0912 14.3538C49.5576 13.3278 48.0223 12.3036 46.4862 11.2814C45.5838 10.6979 44.7236 10.1464 43.9258 9.63505C42.8049 8.91646 41.807 8.27667 40.9892 7.73858C39.0187 6.44217 36.811 4.93052 35.1715 3.80796C35.0066 3.69504 34.8473 3.58599 34.6946 3.4815L35.4704 3.38777C35.3915 3.47222 35.3148 3.5544 35.2404 3.63411C34.1835 4.80581 33.1268 5.97827 32.0706 7.15065C31.9948 7.22406 31.9182 7.29789 31.8403 7.37289C30.8682 8.30888 29.7519 9.53146 27.9946 11.4558C27.2294 12.2938 26.3424 13.265 25.293 14.4036C25.0923 14.6213 24.9185 14.8057 24.7654 14.965C24.4305 15.3373 23.9269 15.1633 23.8793 14.6648C23.8467 14.1423 23.8396 13.8007 23.8334 13.5056C23.8308 13.3822 23.8283 13.2664 23.8242 13.1494C23.8104 12.7482 23.7508 12.3293 23.6804 11.8344C23.5891 11.1924 23.4795 10.4221 23.4279 9.39637C23.2838 6.53246 23.1067 5.08135 22.9596 4.03913L23.5024 4.49467C23.3553 4.51545 23.2163 4.53564 23.0826 4.55505C22.7657 4.60106 22.4784 4.64272 22.1836 4.67769C21.2625 4.78695 19.9587 4.87469 18.9384 4.92579L19.4228 4.34856C19.4247 4.3871 19.4266 4.42524 19.4284 4.46294C19.4681 5.28406 19.643 6.91854 19.7917 8.15669C19.848 8.62484 19.9039 9.25975 19.9697 10.0075C20.0378 10.7814 20.1165 11.6767 20.2173 12.6331C20.4722 15.0499 20.6056 16.3345 20.7127 17.3672C20.7433 17.6616 20.7717 17.9358 20.8002 18.2097C20.8307 18.5024 20.8629 18.8189 20.8964 19.1518C20.9114 19.3024 20.8138 19.5805 20.713 19.6933C20.5199 19.9101 20.3185 20.1358 20.112 20.3669C19.8524 20.6575 19.5849 20.9566 19.3161 21.2571C18.4438 22.2324 17.5584 23.2222 16.8909 23.981C15.1086 25.9 13.3225 27.8159 11.5369 29.7315C10.6196 30.7154 9.69415 31.6181 8.96248 32.2379C8.23085 32.8575 7.75315 33.1445 7.63155 33.0334C7.51002 32.9223 7.75326 32.4208 8.30499 31.6367C8.85692 30.8526 9.67321 29.8502 10.5712 28.8486C12.3804 26.8311 14.1899 24.8132 16.0032 22.7991C17.0219 21.6675 18.0418 20.5371 19.0637 19.4085C19.2657 19.1854 19.4677 18.9625 19.6698 18.7396L19.4884 19.275C19.3534 17.8033 19.2211 16.3313 19.0923 14.8591C18.8911 12.5585 18.6937 10.2576 18.4995 7.95637C18.4795 7.71946 18.4595 7.48251 18.4396 7.24559C18.3362 6.29389 18.2339 5.34301 18.1408 4.46072C18.1086 4.0354 18.4009 3.67609 18.8263 3.64384C19.7324 3.54826 20.5662 3.46251 21.2542 3.39563C22.1172 3.31175 22.8017 3.2628 23.3914 3.22516C23.8275 3.19209 24.196 3.49191 24.2291 3.92806C24.2403 4.10458 24.2506 4.2726 24.2605 4.43438C24.29 4.91763 24.316 5.34526 24.3556 5.77677C24.3768 6.00849 24.407 6.32497 24.4434 6.70659C24.5921 8.26481 24.8445 10.9113 25.0165 13.3307C25.0442 13.7205 25.0716 14.1333 25.0988 14.5581L23.862 14.139C24.3786 13.5999 24.9231 13.0365 25.4515 12.4897C26.6379 11.2621 27.7442 10.1174 28.2764 9.51533C29.2108 8.45812 30.3173 7.27764 31.2951 6.23459C32.2278 5.23966 33.0435 4.36951 33.4809 3.8504C33.847 3.41599 34.1903 3.04004 34.6064 2.5978C34.7946 2.39668 35.1185 2.35266 35.3456 2.50848C35.5595 2.65599 35.7873 2.81484 36.0398 2.99097C36.6246 3.39868 37.3422 3.899 38.3265 4.56562C39.4628 5.33525 40.257 5.89426 40.9321 6.36942C41.8822 7.03814 42.597 7.54128 43.7007 8.23395C44.9268 9.0034 46.1986 9.82194 47.181 10.4953C47.6284 10.802 48.145 11.1458 48.6825 11.5035C49.394 11.9771 50.1424 12.4753 50.8162 12.9443C51.3714 13.3308 51.8183 13.6683 52.2138 13.9669C52.3371 14.06 52.4556 14.1494 52.5707 14.2353C53.0187 14.5346 53.4668 14.8337 53.9151 15.1325C53.9905 15.1767 54.0698 15.2229 54.1527 15.2713C54.5683 15.5139 55.0792 15.8122 55.6969 16.2037C56.6746 16.8235 57.5086 17.403 58.3883 18.0144C59.0732 18.4904 59.7858 18.9857 60.6157 19.5343C61.1816 19.9083 61.8308 20.3269 62.4743 20.7419C63.4301 21.3582 64.3739 21.9669 65.0157 22.4108C65.2561 22.5771 65.4538 22.7335 65.6494 22.8884C65.6503 22.8891 65.6511 22.8898 65.6519 22.8905C65.6652 22.901 65.6786 22.9116 65.6919 22.9221C67.2796 23.9659 68.8683 25.0086 70.4574 26.0504C70.5972 26.1377 70.7383 26.226 70.8781 26.3135C71.2138 26.5236 71.5448 26.7308 71.8473 26.9176C72.352 27.2597 72.1824 27.9305 71.5746 27.98C71.2094 28.0254 70.8817 28.0687 70.6246 28.1085C70.0767 28.1931 68.693 28.3356 67.2348 28.4857C66.2799 28.584 65.2927 28.6856 64.4874 28.7764C64.0167 28.8295 63.5673 28.848 63.105 28.8671C62.6736 28.8848 62.2307 28.9031 61.749 28.9503C61.5077 28.9739 61.2476 29.0053 60.97 29.0388C60.7256 29.0683 60.4672 29.0995 60.1963 29.1284C59.9447 29.1553 59.3823 29.1932 58.6612 29.2419C58.2155 29.272 57.7092 29.3062 57.1779 29.3444C55.7768 29.48 54.3753 29.615 52.9741 29.7491C52.6831 29.7928 52.4313 29.8384 52.233 29.8861C52.0908 29.9203 51.9702 29.9569 51.8465 29.9943C51.678 30.0453 51.5037 30.0979 51.2617 30.1489C51.0724 30.1888 50.8477 30.2177 50.6954 30.2214C50.6245 30.2231 50.5696 30.2194 50.5198 30.216C50.4627 30.2122 50.4117 30.2088 50.3504 30.2144C50.3061 30.2185 50.2606 30.2287 50.2046 30.2412C50.1152 30.261 49.9989 30.2868 49.82 30.303C49.154 30.3633 48.3963 30.4246 47.6541 30.4846C46.8287 30.5514 46.022 30.6166 45.3801 30.6775C44.6609 30.7456 43.6335 30.8123 42.6044 30.8792C41.8865 30.9259 41.1675 30.9728 40.5513 31.0201C39.9475 31.0665 39.3204 31.1342 38.7132 31.1998C37.9843 31.2786 37.2832 31.3544 36.6846 31.3865C36.5636 31.393 36.4115 31.3812 36.2207 31.3664C36.0855 31.356 35.9299 31.3441 35.7533 31.3361C34.9935 31.4026 34.2336 31.4681 33.4737 31.5326C33.4472 31.5384 33.4199 31.5442 33.3925 31.5501C33.3921 31.5503 33.3917 31.5504 33.3913 31.5505C32.7742 31.6844 31.9297 31.8676 30.7244 31.9078C30.418 31.9181 30.2234 31.9045 30.048 31.8923C29.8758 31.8803 29.7219 31.8695 29.4992 31.8839C29.2463 31.9003 28.9497 31.9428 28.6264 31.9892C28.1725 32.0543 27.6654 32.127 27.1519 32.1455C27.1168 32.1468 27.0791 32.1481 27.0398 32.1496C26.6676 32.1633 26.1166 32.1838 25.5658 32.1761C23.9448 32.303 22.3234 32.4274 20.7021 32.5501C17.9995 32.7548 15.296 32.9551 12.5932 33.1553C11.2783 33.2525 10.0121 33.2872 9.07278 33.2475C8.13339 33.2077 7.59788 33.0977 7.5838 32.9367C7.5698 32.7758 8.07808 32.5746 8.99621 32.3723C9.91437 32.1701 11.1673 31.9844 12.4792 31.8518C14.6184 31.6359 16.7583 31.4199 18.8979 31.2061C19.0099 31.193 19.1224 31.1799 19.2344 31.167C20.0674 31.0714 20.8381 30.9583 21.6094 30.8451C21.7866 30.8191 21.9641 30.7931 22.1421 30.7673Z" fill="#0E0626"/>
</svg>
