<svg width="82" height="88" viewBox="0 0 82 88" fill="none" xmlns="http://www.w3.org/2000/svg">
<path d="M36.692 6.99999L0.191528 50.4995L43.6911 87L80.1915 43.5004L36.692 6.99999Z" fill="#0E0626"/>
<path d="M11.1597 34.4717C12.1957 32.996 14.4707 30.3832 15.7221 28.9459C15.745 28.9195 15.7679 28.8931 15.7908 28.8667C16.0878 28.5256 16.3643 28.1993 16.6883 27.8168C17.4607 26.9049 18.5044 25.6729 20.7461 23.1548C21.3736 22.4014 22.0024 21.6489 22.6327 20.8978C26.8501 15.8716 31.1054 10.8773 35.3798 5.89891C35.9895 5.14575 37.0399 5.07807 37.7931 5.68777C40.8491 8.3116 43.8991 10.9426 46.9467 13.5765C47.0497 13.6618 47.1544 13.7486 47.2603 13.8363C49.305 15.5312 51.8405 17.6329 53.3893 19.0063C55.3583 20.7523 56.6842 21.9519 57.7714 22.9393C64.1344 28.4405 70.5061 33.9316 76.9194 39.3728C78.2308 40.4855 79.5442 41.5962 80.8595 42.7044C81.3164 43.0743 81.3575 43.7115 80.9876 44.1684C80.3973 44.8691 79.8077 45.5703 79.2188 46.2721C77.6586 48.1315 76.1017 49.9946 74.5485 51.86C73.6656 52.9645 72.8324 54.0198 72.0597 54.9984C70.9739 56.3735 70.0072 57.5976 69.1909 58.5939C67.2243 60.9942 64.9178 63.6537 63.205 65.6285C62.9251 65.9513 62.6608 66.256 62.4166 66.5381C61.0984 68.1419 59.7811 69.747 58.4645 71.3521C58.3655 71.45 58.2655 71.5484 58.1637 71.6483C56.8934 72.8952 55.4951 74.565 53.2939 77.1933C52.3353 78.3378 51.2242 79.6643 49.9053 81.2168C49.0554 82.2172 48.5699 82.69 48.1732 83.0763C48.0565 83.19 47.9471 83.2966 47.8388 83.4065C47.4674 83.7833 47.1451 84.2385 46.7644 84.7762C46.2704 85.4738 45.6778 86.3108 44.7518 87.2962C44.6457 87.4091 44.542 87.52 44.4406 87.6289C44.0923 88.0591 43.4924 88.0977 43.0622 87.7495C40.1433 85.0317 38.6547 83.9875 37.5187 83.1906C37.1731 82.9481 36.8598 82.7283 36.5491 82.4914C35.5413 81.7232 34.1977 80.5191 33.2055 79.5812C32.4187 78.8376 30.7217 77.4964 29.4138 76.5041C28.9192 76.129 28.2764 75.5906 27.5194 74.9564C26.7361 74.3 25.8298 73.5405 24.8389 72.7536C22.3346 70.7651 21.0063 69.7052 19.9385 68.8531C19.6341 68.6101 19.3507 68.3837 19.0674 68.1578C18.1719 67.4439 17.0684 66.5488 15.9512 65.6425C14.6143 64.5579 13.2574 63.4571 12.2142 62.6323C9.60121 60.3863 6.99422 58.1327 4.38767 55.8796C3.04896 54.722 1.84325 53.5175 1.04124 52.5266C0.239537 51.5357 -0.0944949 50.8406 0.117135 50.5882C0.328844 50.3359 1.07154 50.5443 2.18654 51.1617C3.30163 51.7794 4.69741 52.7575 6.06984 53.8748C8.83429 56.1262 11.5993 58.3781 14.3572 60.6378C17.7167 63.3905 21.0662 66.1555 24.3931 68.9471C26.7204 70.8999 29.0427 72.8588 31.3609 74.8225C31.5996 75.0247 31.8382 75.227 32.0768 75.4292C34.0841 77.0077 36.0829 78.5886 37.4747 79.7221C38.6239 80.6581 39.4237 81.3857 40.1086 82.0088C40.58 82.4375 40.9971 82.817 41.4361 83.1807C41.6719 83.3759 41.9955 83.6409 42.3856 83.9605C43.0055 84.4682 43.7938 85.1138 44.6666 85.8375L42.5286 86.0245C43.665 84.6541 44.994 83.0753 46.2839 81.6132C47.2208 80.5513 48.331 79.3359 49.3908 78.1757C50.9063 76.5166 52.3195 74.9695 52.9781 74.1424C54.1347 72.6902 55.5336 71.0855 56.7698 69.6677C57.949 68.3153 58.9802 67.1325 59.5117 66.4137C60.1468 65.5548 60.7518 64.8754 61.651 63.8654C62.2747 63.1648 63.04 62.3048 64.0556 61.1155C65.2281 59.7424 66.0843 58.7935 66.8122 57.9869C67.8365 56.8517 68.6072 55.9975 69.6503 54.636C70.8091 53.1236 72.0467 51.565 73.0742 50.382C73.5422 49.8431 74.0647 49.2159 74.6083 48.5633C75.3279 47.6992 76.0849 46.7905 76.8022 45.9828C77.3934 45.3172 77.9151 44.7948 78.3768 44.3326C78.5208 44.1885 78.659 44.05 78.7917 43.915C79.0521 43.6038 79.3125 43.2926 79.5728 42.9812L79.6723 44.1192C79.4399 43.9249 79.2073 43.7307 78.9747 43.5366C78.8802 43.4707 78.7805 43.4019 78.6764 43.3299C78.1544 42.969 77.5127 42.525 76.7528 41.9344C75.5499 40.9996 74.5495 40.1135 73.4945 39.1787C72.673 38.4509 71.8183 37.6935 70.8088 36.8608C70.1203 36.2929 69.3252 35.6598 68.537 35.0322C67.3663 34.1001 66.2103 33.1796 65.4395 32.5014C65.1507 32.2473 64.9232 32.004 64.6983 31.7631C64.6973 31.762 64.6964 31.7609 64.6954 31.7598C64.6802 31.7434 64.6648 31.727 64.6495 31.7107C62.715 30.1274 60.7783 28.5463 58.8406 26.9668C58.668 26.8354 58.4938 26.7025 58.3211 26.5708C57.4777 25.9269 56.6581 25.3013 56.1003 24.9214C55.4958 24.5097 54.0667 23.3662 52.5608 22.1611C51.5746 21.372 50.555 20.5561 49.7125 19.9021C49.22 19.5199 48.7938 19.1082 48.3554 18.6847C47.9464 18.2895 47.5264 17.8838 47.0321 17.4822C46.7845 17.2811 46.5096 17.0728 46.2162 16.8505C45.9579 16.6548 45.6848 16.4479 45.4036 16.2256C45.1423 16.0191 44.5889 15.5253 43.8791 14.8922C43.4404 14.501 42.9419 14.0566 42.4158 13.5937C40.9807 12.4231 39.546 11.2515 38.1126 10.0788C37.7934 9.85826 37.5063 9.67885 37.2642 9.55458C37.0905 9.46542 36.9329 9.40092 36.7713 9.33449C36.5514 9.24409 36.3239 9.15046 36.0382 8.9883C35.8149 8.86154 35.5748 8.68426 35.434 8.54095C35.4276 8.53438 35.4213 8.5279 35.4153 8.52148L38.2135 8.27667C38.1546 8.33211 38.102 8.37135 38.0537 8.40731C37.9925 8.45301 37.9379 8.49383 37.8861 8.55621C37.8488 8.60121 37.8192 8.65579 37.7827 8.72278C37.7243 8.82974 37.6482 8.96869 37.4971 9.15048C36.9347 9.82706 36.2843 10.5867 35.6472 11.3308C34.9386 12.1583 34.2461 12.9671 33.708 13.6229C33.1051 14.3575 32.1993 15.3651 31.2922 16.3746C30.6594 17.0789 30.0258 17.7843 29.4932 18.3986C28.9712 19.0006 28.4576 19.6525 27.9603 20.2839C27.3634 21.0418 26.7893 21.7709 26.2517 22.3487C26.1429 22.4655 25.9773 22.585 25.7698 22.735C25.6226 22.8413 25.4536 22.9638 25.2696 23.1104C24.6247 23.879 23.978 24.6464 23.3302 25.4125C23.3127 25.4439 23.2946 25.4763 23.2765 25.5088C23.2763 25.5094 23.276 25.5099 23.2758 25.5105C22.868 26.2441 22.31 27.2479 21.1921 28.378C20.9079 28.6653 20.6983 28.8203 20.5094 28.96C20.3239 29.0972 20.158 29.2198 19.9616 29.4381C19.7386 29.686 19.511 30.0087 19.2628 30.3605C18.9143 30.8545 18.5251 31.4062 18.0508 31.8896C18.0184 31.9226 17.9835 31.9581 17.9473 31.9951C17.6041 32.3459 17.096 32.8654 16.5473 33.346C15.1496 34.9655 13.7479 36.5818 12.344 38.1959C10.0036 40.8864 7.65607 43.5718 5.30921 46.2563C4.16712 47.5621 2.98172 48.7389 2.0074 49.5224C1.03277 50.3057 0.350419 50.6329 0.10287 50.4251C-0.144593 50.2174 0.0592322 49.4887 0.661373 48.3929C1.26377 47.2974 2.21678 45.9257 3.30448 44.5742C5.0786 42.3707 6.85324 40.1666 8.63097 37.9657C8.72113 37.8478 8.81186 37.7296 8.90247 37.6122C9.57657 36.7384 10.1645 35.8961 10.7529 35.0533C10.888 34.8597 11.0234 34.6658 11.1597 34.4717Z" fill="#0E0626"/>
<path d="M33.5534 36.0887C33.3115 36.0838 33.0669 36.0921 32.8203 36.1137C29.1066 36.4386 26.3594 39.7125 26.6843 43.4263C27.0092 47.14 30.2832 49.8872 33.9969 49.5623C37.5944 49.2474 40.2851 46.1653 40.1545 42.5968L40.133 42.2497C40.6741 43.4388 41.028 44.7377 41.1484 46.1134C41.717 52.6124 36.9094 58.3419 30.4103 58.9104C23.9113 59.479 18.1819 54.6715 17.6133 48.1724C17.0447 41.6734 21.8523 35.9439 28.3513 35.3753C30.1787 35.2155 31.9453 35.4804 33.5534 36.0887Z" fill="#F5F5F5"/>
<path d="M49.694 34.0727C51.0064 33.9579 52.2865 34.066 53.5 34.3593C50.2205 35.0641 47.9018 38.1155 48.2017 41.5437C48.5266 45.2574 51.8007 48.0045 55.5144 47.6797C58.8865 47.3847 61.4615 44.6581 61.6634 41.3786C62.0992 42.4482 62.3851 43.5999 62.491 44.8108C63.0596 51.3098 58.2521 57.0392 51.753 57.6078C45.254 58.1764 39.5245 53.3689 38.9559 46.8698C38.3874 40.3708 43.1949 34.6413 49.694 34.0727Z" fill="#F5F5F5"/>
<path d="M71.5239 27.4008L7.58878 32.9944L19.5793 19.8799L20.1884 19.2137L18.8919 4.39497L23.4587 3.99543L24.3883 14.6202L35.0279 2.98325L71.5239 27.4008Z" fill="#0E0626"/>
<path d="M22.1421 30.7673C23.4956 30.5711 26.1214 30.3731 27.5657 30.2642C27.5922 30.2622 27.6187 30.2601 27.6452 30.2581C27.988 30.2322 28.312 30.205 28.6916 30.1729C29.5968 30.0965 30.8198 29.9933 33.3759 29.8192C34.1182 29.7525 34.8607 29.6865 35.6032 29.6215C43.6215 28.92 51.6453 28.2827 59.6703 27.658C59.7715 27.6487 59.8745 27.6393 59.9785 27.6298C61.9889 27.4459 64.4818 27.2178 66.0512 27.1089C68.0464 26.9704 69.4024 26.8852 70.5161 26.8167C70.8329 26.7921 71.1496 26.7674 71.4663 26.7428L71.1566 27.9497C66.1396 24.523 61.1185 21.1021 56.0811 17.7057C54.4198 16.5855 52.7564 15.4679 51.0911 14.3537C49.5576 13.3277 48.0223 12.3035 46.4862 11.2814C45.5837 10.6978 44.7235 10.1464 43.9258 9.63502C42.8048 8.91643 41.807 8.27664 40.9891 7.73855C39.0187 6.44214 36.8109 4.93049 35.1714 3.80793C35.0065 3.69501 34.8473 3.58596 34.6946 3.48147L35.4703 3.38774C35.3915 3.47219 35.3147 3.55437 35.2404 3.63408C34.1834 4.80578 33.1268 5.97824 32.0705 7.15062C31.9947 7.22403 31.9181 7.29786 31.8402 7.37286C30.8681 8.30885 29.7518 9.53143 27.9946 11.4558C27.2293 12.2937 26.3424 13.265 25.293 14.4036C25.0923 14.6213 24.9185 14.8057 24.7654 14.965C24.4304 15.3373 23.9269 15.1633 23.8792 14.6647C23.8467 14.1422 23.8395 13.8007 23.8333 13.5056C23.8307 13.3821 23.8282 13.2664 23.8242 13.1494C23.8103 12.7482 23.7507 12.3293 23.6803 11.8344C23.589 11.1923 23.4794 10.422 23.4278 9.39634C23.2837 6.53243 23.1067 5.08132 22.9595 4.0391L23.5024 4.49464C23.3552 4.51542 23.2162 4.53561 23.0825 4.55502C22.7656 4.60103 22.4783 4.64269 22.1835 4.67766C21.2624 4.78691 19.9586 4.87466 18.9384 4.92576L19.4227 4.34853C19.4246 4.38707 19.4265 4.42521 19.4283 4.46291C19.4681 5.28403 19.6429 6.91851 19.7917 8.15666C19.8479 8.62481 19.9039 9.25972 19.9697 10.0075C20.0377 10.7813 20.1164 11.6767 20.2173 12.6331C20.4721 15.0499 20.6055 16.3345 20.7127 17.3671C20.7432 17.6616 20.7716 17.9358 20.8001 18.2097C20.8306 18.5024 20.8629 18.8189 20.8964 19.1518C20.9113 19.3024 20.8137 19.5804 20.7129 19.6933C20.5199 19.91 20.3184 20.1358 20.112 20.3669C19.8524 20.6575 19.5848 20.9566 19.3161 21.2571C18.4437 22.2324 17.5583 23.2222 16.8908 23.981C15.1085 25.9 13.3225 27.8159 11.5368 29.7315C10.6195 30.7154 9.69409 31.6181 8.96242 32.2379C8.23078 32.8575 7.75309 33.1445 7.63149 33.0334C7.50996 32.9223 7.7532 32.4208 8.30492 31.6367C8.85686 30.8526 9.67315 29.8501 10.5711 28.8486C12.3803 26.8311 14.1898 24.8131 16.0031 22.799C17.0218 21.6675 18.0418 20.5371 19.0637 19.4085C19.2656 19.1854 19.4676 18.9624 19.6697 18.7395L19.4883 19.275C19.3534 17.8032 19.2211 16.3313 19.0923 14.859C18.891 12.5585 18.6936 10.2575 18.4994 7.95634C18.4794 7.71943 18.4595 7.48248 18.4395 7.24556C18.3362 6.29386 18.2338 5.34298 18.1408 4.46069C18.1085 4.03536 18.4009 3.67606 18.8262 3.64381C19.7324 3.54823 20.5662 3.46248 21.2542 3.3956C22.1171 3.31172 22.8016 3.26277 23.3913 3.22513C23.8275 3.19206 24.1959 3.49188 24.229 3.92803C24.2403 4.10455 24.2505 4.27257 24.2604 4.43435C24.2899 4.9176 24.316 5.34523 24.3555 5.77674C24.3768 6.00846 24.407 6.32494 24.4434 6.70656C24.592 8.26478 24.8445 10.9112 25.0164 13.3307C25.0441 13.7204 25.0716 14.1333 25.0987 14.5581L23.8619 14.139C24.3786 13.5998 24.923 13.0365 25.4515 12.4897C26.6379 11.2621 27.7442 10.1173 28.2763 9.5153C29.2107 8.45808 30.3173 7.2776 31.2951 6.23456C32.2277 5.23963 33.0434 4.36948 33.4809 3.85037C33.8469 3.41596 34.1902 3.04001 34.6063 2.59777C34.7945 2.39665 35.1184 2.35263 35.3456 2.50845C35.5594 2.65596 35.7872 2.81481 36.0398 2.99094C36.6245 3.39865 37.3422 3.89896 38.3264 4.56559C39.4627 5.33522 40.257 5.89423 40.932 6.36939C41.8821 7.03811 42.597 7.54125 43.7007 8.23392C44.9267 9.00337 46.1985 9.82191 47.1809 10.4952C47.6284 10.8019 48.1449 11.1458 48.6824 11.5035C49.394 11.9771 50.1423 12.4752 50.8161 12.9443C51.3714 13.3308 51.8183 13.6682 52.2137 13.9668C52.3371 14.06 52.4555 14.1494 52.5706 14.2353C53.0186 14.5345 53.4667 14.8336 53.915 15.1324C53.9904 15.1767 54.0698 15.2229 54.1526 15.2712C54.5682 15.5138 55.0792 15.8121 55.6969 16.2037C56.6745 16.8234 57.5085 17.4029 58.3882 18.0143C59.0732 18.4903 59.7858 18.9857 60.6156 19.5342C61.1815 19.9083 61.8307 20.3269 62.4742 20.7419C63.43 21.3582 64.3738 21.9669 65.0156 22.4107C65.2561 22.577 65.4538 22.7335 65.6494 22.8884C65.6502 22.8891 65.651 22.8898 65.6519 22.8905C65.6652 22.901 65.6785 22.9115 65.6918 22.922C67.2795 23.9659 68.8683 25.0086 70.4574 26.0504C70.5971 26.1376 70.7382 26.2259 70.8781 26.3135C71.2138 26.5236 71.5448 26.7308 71.8472 26.9175C72.3519 27.2597 72.1823 27.9305 71.5746 27.98C71.2093 28.0254 70.8817 28.0687 70.6245 28.1084C70.0766 28.1931 68.6929 28.3355 67.2348 28.4856C66.2799 28.5839 65.2926 28.6855 64.4874 28.7764C64.0166 28.8295 63.5672 28.848 63.1049 28.867C62.6736 28.8848 62.2307 28.903 61.7489 28.9503C61.5076 28.9739 61.2475 29.0053 60.9699 29.0388C60.7255 29.0682 60.4671 29.0994 60.1963 29.1284C59.9446 29.1553 59.3822 29.1932 58.6611 29.2419C58.2155 29.272 57.7091 29.3062 57.1779 29.3444C55.7767 29.4799 54.3753 29.615 52.974 29.7491C52.6831 29.7928 52.4313 29.8384 52.233 29.8861C52.0907 29.9203 51.9702 29.9569 51.8464 29.9943C51.678 30.0452 51.5037 30.0979 51.2616 30.1489C51.0724 30.1887 50.8477 30.2177 50.6954 30.2213C50.6245 30.223 50.5696 30.2193 50.5197 30.216C50.4626 30.2122 50.4117 30.2088 50.3503 30.2144C50.3061 30.2184 50.2606 30.2287 50.2046 30.2411C50.1151 30.261 49.9988 30.2867 49.8199 30.303C49.1539 30.3633 48.3962 30.4246 47.654 30.4846C46.8287 30.5513 46.022 30.6166 45.38 30.6774C44.6609 30.7456 43.6335 30.8123 42.6043 30.8792C41.8864 30.9259 41.1674 30.9728 40.5513 31.0201C39.9474 31.0665 39.3204 31.1342 38.7131 31.1998C37.9842 31.2786 37.2832 31.3544 36.6845 31.3865C36.5635 31.3929 36.4114 31.3811 36.2207 31.3664C36.0854 31.356 35.9299 31.3441 35.7532 31.3361C34.9935 31.4026 34.2335 31.468 33.4736 31.5326C33.4471 31.5383 33.4198 31.5442 33.3925 31.5501C33.3921 31.5502 33.3916 31.5504 33.3912 31.5505C32.7741 31.6844 31.9297 31.8676 30.7243 31.9078C30.4179 31.918 30.2233 31.9044 30.0479 31.8922C29.8757 31.8802 29.7218 31.8695 29.4991 31.8839C29.2462 31.9002 28.9497 31.9428 28.6264 31.9892C28.1724 32.0542 27.6654 32.1269 27.1518 32.1455C27.1167 32.1468 27.079 32.1481 27.0398 32.1495C26.6676 32.1633 26.1165 32.1838 25.5658 32.176C23.9448 32.3029 22.3234 32.4273 20.702 32.5501C17.9994 32.7547 15.2959 32.955 12.5932 33.1553C11.2782 33.2525 10.012 33.2871 9.07272 33.2475C8.13333 33.2076 7.59782 33.0977 7.58374 32.9367C7.56974 32.7758 8.07802 32.5746 8.99615 32.3722C9.91431 32.1701 11.1672 31.9843 12.4791 31.8517C14.6183 31.6358 16.7582 31.4198 18.8979 31.2061C19.0099 31.1929 19.1223 31.1798 19.2343 31.167C20.0673 31.0714 20.8381 30.9583 21.6094 30.8451C21.7866 30.8191 21.9641 30.7931 22.1421 30.7673Z" fill="#0E0626"/>
</svg>
