<svg width="82" height="116" viewBox="0 0 82 116" fill="none" xmlns="http://www.w3.org/2000/svg">
<path d="M36.692 35L0.191559 78.4996L43.6911 115L80.1916 71.5005L36.692 35Z" fill="#0E0626"/>
<path d="M11.1597 62.4717C12.1957 60.996 14.4707 58.3832 15.7221 56.9459C15.745 56.9195 15.7679 56.8931 15.7908 56.8667C16.0878 56.5256 16.3644 56.1993 16.6883 55.8169C17.4608 54.9049 18.5044 53.6729 20.7462 51.1549C21.3736 50.4014 22.0025 49.6489 22.6327 48.8978C26.8502 43.8717 31.1055 38.8773 35.3798 33.8989C35.9895 33.1458 37.0399 33.0781 37.7931 33.6878C40.8491 36.3116 43.8991 38.9426 46.9467 41.5765C47.0497 41.6619 47.1545 41.7487 47.2603 41.8364C49.305 43.5313 51.8405 45.633 53.3893 47.0063C55.3584 48.7524 56.6843 49.952 57.7715 50.9393C64.1345 56.4405 70.5061 61.9316 76.9194 67.3729C78.2309 68.4855 79.5442 69.5962 80.8596 70.7044C81.3165 71.0743 81.3575 71.7116 80.9876 72.1685C80.3973 72.8691 79.8077 73.5703 79.2188 74.2721C77.6586 76.1315 76.1017 77.9946 74.5485 79.86C73.6657 80.9646 72.8324 82.0199 72.0597 82.9984C70.9739 84.3736 70.0072 85.5977 69.191 86.5939C67.2243 88.9943 64.9179 91.6537 63.205 93.6286C62.9251 93.9513 62.6608 94.256 62.4166 94.5381C61.0985 96.1419 59.7812 97.7471 58.4645 99.3522C58.3656 99.4501 58.2655 99.5484 58.1637 99.6483C56.8934 100.895 55.4951 102.565 53.2939 105.193C52.3353 106.338 51.2242 107.664 49.9053 109.217C49.0555 110.217 48.5699 110.69 48.1732 111.076C48.0565 111.19 47.9471 111.297 47.8388 111.407C47.4674 111.783 47.1451 112.239 46.7644 112.776C46.2704 113.474 45.6779 114.311 44.7518 115.296C44.6457 115.409 44.542 115.52 44.4406 115.629C44.0924 116.059 43.4924 116.098 43.0622 115.75C40.1433 113.032 38.6547 111.987 37.5188 111.191C37.1731 110.948 36.8599 110.728 36.5491 110.491C35.5414 109.723 34.1977 108.519 33.2055 107.581C32.4187 106.838 30.7217 105.496 29.4138 104.504C28.9193 104.129 28.2764 103.591 27.5195 102.956C26.7361 102.3 25.8299 101.541 24.8389 100.754C22.3346 98.7651 21.0063 97.7053 19.9386 96.8531C19.6342 96.6102 19.3508 96.3837 19.0674 96.1578C18.172 95.4439 17.0685 94.5488 15.9513 93.6425C14.6143 92.5579 13.2574 91.4571 12.2142 90.6323C9.60124 88.3863 6.99425 86.1327 4.3877 83.8796C3.04899 82.722 1.84328 81.5175 1.04127 80.5266C0.239568 79.5357 -0.0944643 78.8406 0.117166 78.5882C0.328875 78.3359 1.07157 78.5443 2.18657 79.1617C3.30166 79.7795 4.69744 80.7575 6.06987 81.8749C8.83432 84.1263 11.5993 86.3781 14.3572 88.6379C17.7167 91.3906 21.0662 94.1555 24.3931 96.9471C26.7204 98.9 29.0427 100.859 31.361 102.823C31.5996 103.025 31.8383 103.227 32.0768 103.429C34.0841 105.008 36.083 106.589 37.4747 107.722C38.6239 108.658 39.4237 109.386 40.1087 110.009C40.5801 110.438 40.9972 110.817 41.4362 111.181C41.6719 111.376 41.9955 111.641 42.3857 111.961C43.0055 112.468 43.7938 113.114 44.6666 113.838L42.5286 114.025C43.665 112.654 44.994 111.075 46.284 109.613C47.2208 108.551 48.331 107.336 49.3909 106.176C50.9063 104.517 52.3195 102.97 52.9781 102.142C54.1347 100.69 55.5337 99.0856 56.7698 97.6677C57.949 96.3154 58.9802 95.1326 59.5118 94.4137C60.1469 93.5548 60.7518 92.8755 61.651 91.8654C62.2747 91.1648 63.0401 90.3049 64.0556 89.1155C65.2281 87.7425 66.0844 86.7935 66.8122 85.9869C67.8365 84.8517 68.6072 83.9976 69.6503 82.636C70.8091 81.1236 72.0467 79.5651 73.0742 78.382C73.5423 77.8432 74.0647 77.2159 74.6083 76.5633C75.328 75.6993 76.0849 74.7905 76.8023 73.9828C77.3934 73.3172 77.9152 72.7949 78.3769 72.3327C78.5209 72.1885 78.6591 72.05 78.7917 71.915C79.0522 71.6039 79.3126 71.2926 79.5728 70.9813L79.6724 72.1192C79.4399 71.9249 79.2074 71.7307 78.9748 71.5366C78.8802 71.4707 78.7805 71.4019 78.6765 71.33C78.1545 70.969 77.5128 70.5251 76.7528 69.9344C75.5499 68.9996 74.5496 68.1136 73.4945 67.1787C72.673 66.4509 71.8184 65.6935 70.8088 64.8608C70.1204 64.293 69.3252 63.6599 68.537 63.0323C67.3663 62.1002 66.2104 61.1796 65.4395 60.5014C65.1507 60.2473 64.9233 60.004 64.6983 59.7631C64.6974 59.762 64.6964 59.7609 64.6955 59.7598C64.6802 59.7434 64.6648 59.7271 64.6495 59.7107C62.715 58.1274 60.7783 56.5463 58.8406 54.9668C58.668 54.8355 58.4938 54.7025 58.3212 54.5708C57.4777 53.927 56.6582 53.3014 56.1003 52.9215C55.4958 52.5098 54.0668 51.3662 52.5608 50.1612C51.5747 49.372 50.5551 48.5561 49.7126 47.9022C49.2201 47.5199 48.7939 47.1083 48.3555 46.6847C47.9464 46.2895 47.5265 45.8838 47.0322 45.4822C46.7846 45.2811 46.5097 45.0728 46.2163 44.8505C45.9579 44.6548 45.6848 44.4479 45.4036 44.2257C45.1424 44.0191 44.5889 43.5253 43.8791 42.8923C43.4405 42.5011 42.942 42.0567 42.4159 41.5937C40.9807 40.4231 39.546 39.2515 38.1127 38.0788C37.7934 37.8583 37.5063 37.6789 37.2642 37.5546C37.0905 37.4655 36.933 37.4009 36.7714 37.3345C36.5514 37.2441 36.3239 37.1505 36.0382 36.9883C35.8149 36.8616 35.5749 36.6843 35.4341 36.541C35.4276 36.5344 35.4214 36.5279 35.4153 36.5215L38.2135 36.2767C38.1547 36.3321 38.102 36.3714 38.0538 36.4073C37.9925 36.453 37.9379 36.4939 37.8861 36.5562C37.8488 36.6012 37.8193 36.6558 37.7827 36.7228C37.7243 36.8298 37.6482 36.9687 37.4971 37.1505C36.9348 37.8271 36.2844 38.5867 35.6472 39.3308C34.9387 40.1583 34.2462 40.9671 33.708 41.6229C33.1051 42.3575 32.1994 43.3652 31.2922 44.3747C30.6594 45.0789 30.0258 45.7843 29.4932 46.3986C28.9713 47.0007 28.4576 47.6526 27.9603 48.284C27.3634 49.0419 26.7893 49.7709 26.2517 50.3487C26.1429 50.4655 25.9774 50.585 25.7698 50.735C25.6227 50.8413 25.4536 50.9638 25.2696 51.1104C24.6247 51.879 23.9781 52.6464 23.3303 53.4125C23.3127 53.444 23.2946 53.4763 23.2765 53.5088C23.2763 53.5094 23.276 53.5099 23.2758 53.5105C22.8681 54.2441 22.31 55.2479 21.1921 56.3781C20.908 56.6653 20.6983 56.8203 20.5094 56.96C20.3239 57.0972 20.1581 57.2198 19.9617 57.4381C19.7386 57.686 19.511 58.0088 19.2628 58.3606C18.9143 58.8545 18.5251 59.4063 18.0508 59.8897C18.0184 59.9227 17.9836 59.9581 17.9474 59.9951C17.6041 60.346 17.096 60.8654 16.5473 61.3461C15.1497 62.9655 13.748 64.5818 12.344 66.1959C10.0037 68.8864 7.6561 71.5718 5.30924 74.2564C4.16715 75.5622 2.98175 76.7389 2.00743 77.5224C1.0328 78.3058 0.350449 78.6329 0.1029 78.4252C-0.144563 78.2174 0.0592628 77.4887 0.661403 76.393C1.2638 75.2974 2.21681 73.9257 3.30451 72.5742C5.07863 70.3708 6.85327 68.1666 8.631 65.9658C8.72116 65.8479 8.81189 65.7296 8.9025 65.6122C9.5766 64.7384 10.1646 63.8962 10.7529 63.0534C10.888 62.8598 11.0234 62.6658 11.1597 62.4717Z" fill="#0E0626"/>
<path d="M41.6745 66.2473C45.8679 61.2498 53.3184 60.598 58.316 64.7914C63.3136 68.9848 63.9654 76.4353 59.7719 81.4329L43.1304 82.8888C38.1329 78.6953 37.4811 71.2448 41.6745 66.2473ZM50.2272 66.8822C46.5136 67.2073 43.7663 70.4812 44.0912 74.1948C44.4163 77.9083 47.6903 80.6556 51.4038 80.3309C55.1174 80.006 57.8645 76.7318 57.5398 73.0182C57.2149 69.3045 53.941 66.5573 50.2272 66.8822Z" fill="#F5F5F5"/>
<path d="M20.3808 68.1103C24.5743 63.1127 32.0248 62.4609 37.0223 66.6543C42.0199 70.8478 42.6717 78.2983 38.4783 83.2958L21.8368 84.7518C16.8393 80.5583 16.1874 73.1078 20.3808 68.1103ZM28.9335 68.7452C25.2199 69.0702 22.4726 72.3442 22.7975 76.0578C23.1226 79.7713 26.3966 82.5186 30.1101 82.1938C33.8238 81.8689 36.5709 78.5948 36.2462 74.8812C35.9212 71.1675 32.6473 68.4203 28.9335 68.7452Z" fill="#F5F5F5"/>
<path d="M58.062 51.8021L15.8544 57.0005L30.5254 14.5604L32.2237 8.89077C32.1959 8.84057 32.1681 8.79094 32.1402 8.74189C32.1685 8.79037 32.1964 8.83999 32.2237 8.89077L58.062 51.8021Z" fill="#A980FF"/>
<path d="M27.8526 54.5654C28.9691 54.3499 31.144 54.1139 32.3404 53.984C32.3623 53.9816 32.3842 53.9792 32.4062 53.9768C32.6901 53.9459 32.9583 53.914 33.2726 53.8764C34.022 53.7869 35.0344 53.6661 37.1526 53.4549C37.767 53.3774 38.3815 53.3007 38.996 53.225C45.3139 52.4469 51.6389 51.7267 57.9657 51.0201L57.387 52.2085C57.2244 51.9315 57.0618 51.6543 56.8993 51.3772C56.8554 51.3051 56.8107 51.2317 56.7656 51.1575C55.8936 49.7249 54.8123 47.9483 54.1625 46.8143C53.3363 45.3725 52.7828 44.3887 52.3294 43.5799C49.6428 38.9979 46.9505 34.4191 44.2304 29.8572C43.3779 28.4275 42.5224 26.9992 41.6638 25.5731C40.8731 24.26 40.08 22.9477 39.2853 21.6369C38.8104 20.8808 38.3555 20.164 37.9336 19.4993C37.3407 18.5653 36.813 17.7337 36.387 17.0409C35.3606 15.3716 34.2387 13.4526 33.4055 12.0275C33.2693 11.7946 33.1407 11.5747 33.0217 11.3714C32.5797 10.6506 32.1374 9.9298 31.6949 9.20915L32.8149 9.06787C32.6852 9.51492 32.5556 9.96197 32.426 10.409C32.3947 10.491 32.3629 10.5736 32.3306 10.6575C31.9529 11.6382 31.5837 12.8565 31.0293 14.7113L31.0226 14.7322C30.9798 14.8561 30.9361 14.9829 30.8913 15.1127C30.584 16.004 30.2277 17.037 29.8015 18.2507C29.5269 19.0329 29.3556 19.4242 29.2157 19.744C29.1745 19.838 29.136 19.9263 29.0984 20.0161C28.9696 20.3239 28.8765 20.6631 28.7665 21.0639C28.6238 21.5838 28.4527 22.2075 28.1382 23.0009C27.1362 25.5291 26.8227 26.6874 26.5855 27.5636C26.516 27.8206 26.4529 28.0535 26.381 28.2895C26.1478 29.0546 25.748 30.1213 25.4287 30.9216C25.1755 31.5562 24.7594 32.857 24.4592 33.8489C24.3457 34.2239 24.173 34.7245 23.9696 35.314C23.7591 35.9241 23.5155 36.6299 23.2706 37.3905C22.652 39.3125 22.3213 40.3333 22.0553 41.1538C21.9795 41.3878 21.9088 41.6057 21.8384 41.8234C21.6157 42.5113 21.3337 43.3632 21.0482 44.2256C20.7066 45.2576 20.3598 46.305 20.1038 47.1047C19.3736 49.1544 18.6388 51.2027 17.9041 53.2506C17.5266 54.3025 17.1065 55.2917 16.7332 55.9988C16.3599 56.7057 16.0648 57.0732 15.9091 57.0194C15.7535 56.9656 15.7483 56.4942 15.8912 55.7077C16.0343 54.9211 16.3147 53.8835 16.6674 52.8231C17.3782 50.6869 18.0892 48.5502 18.8051 46.4155C19.6772 43.8151 20.5567 41.2172 21.4528 38.6251C22.0796 36.8119 22.7102 34.9998 23.3437 33.1888C23.4089 33.0024 23.4742 32.8159 23.5395 32.6295C24.0277 31.0929 24.5185 29.5605 24.8764 28.485C25.1719 27.5969 25.4152 26.9592 25.6236 26.413C25.767 26.0371 25.8939 25.7045 26.0098 25.3637C26.0721 25.1807 26.156 24.9303 26.2572 24.6283C26.6705 23.3953 27.3724 21.3011 28.068 19.4098C28.3767 18.5706 28.7488 17.6003 29.1039 16.674C29.4296 15.8246 29.7412 15.012 29.9769 14.3707L29.9695 14.3938C30.0863 14.0299 30.1816 13.7206 30.2457 13.4898C30.5592 12.3603 30.9641 11.0784 31.322 9.94581C31.4581 9.51499 31.5874 9.10573 31.7023 8.7346L32.0683 7.55449L32.69 8.61001C32.9875 9.11455 33.243 9.5365 33.4319 9.81823C33.8073 10.3781 34.092 10.8769 34.5154 11.6185C34.8091 12.1328 35.1696 12.764 35.6732 13.6135C36.2547 14.5943 36.6511 15.2972 36.9881 15.8946C37.4623 16.7355 37.8191 17.3681 38.4099 18.2755C39.0661 19.2835 39.7372 20.3459 40.2362 21.2004C40.4634 21.5896 40.7306 22.0305 41.0086 22.4892C41.3767 23.0965 41.7638 23.7352 42.1025 24.3272C42.3817 24.8151 42.5939 25.2295 42.7817 25.5962C42.8403 25.7106 42.8965 25.8204 42.9517 25.9263C43.1829 26.3095 43.4143 26.6926 43.646 27.0756C43.6878 27.135 43.7319 27.1973 43.778 27.2624C44.0091 27.5891 44.2932 27.9907 44.622 28.5018C45.1424 29.3106 45.5622 30.0426 46.005 30.8147C46.3497 31.4159 46.7084 32.0414 47.1394 32.7465C47.4333 33.2273 47.7755 33.7703 48.1147 34.3085C48.6185 35.1079 49.1159 35.8973 49.44 36.4588C49.5614 36.6692 49.6519 36.8584 49.7414 37.0457C49.7417 37.0466 49.7421 37.0474 49.7425 37.0483C49.7485 37.061 49.7547 37.0737 49.7608 37.0864C50.5881 38.4309 51.4169 39.7746 52.2464 41.1178C52.3214 41.2323 52.3971 41.3481 52.4721 41.4629C52.8383 42.0237 53.1942 42.5686 53.4419 42.9145C53.7103 43.2893 54.3246 44.2683 54.9719 45.2999C55.3958 45.9754 55.8341 46.6739 56.1987 47.2399C56.4118 47.5709 56.5866 47.9013 56.7664 48.2413C56.9342 48.5585 57.1065 48.8842 57.3182 49.2261C57.4243 49.3973 57.5438 49.5793 57.6715 49.7735C57.7838 49.9444 57.9026 50.1251 58.0238 50.3163C58.1364 50.4939 58.3683 50.9008 58.6657 51.4225C58.6679 51.4265 58.6702 51.4305 58.6725 51.4345L59.2313 52.3904L58.1491 52.5095C57.7831 52.5457 57.3685 52.5868 56.9338 52.6322C55.7747 52.7879 54.6154 52.9431 53.4561 53.0975C53.2162 53.1453 53.009 53.1946 52.8464 53.245C52.7297 53.2813 52.6312 53.3195 52.5301 53.3587C52.3925 53.4119 52.2501 53.467 52.0512 53.5214C51.8958 53.564 51.7102 53.5962 51.5837 53.602C51.5248 53.6048 51.4789 53.6019 51.4373 53.5993C51.3896 53.5963 51.347 53.5937 51.2962 53.6002C51.2596 53.6048 51.2223 53.6157 51.1763 53.629C51.1029 53.6501 51.0074 53.6775 50.8593 53.6963C50.3082 53.7662 49.6808 53.8385 49.0662 53.9093C48.3828 53.9879 47.7148 54.0649 47.1837 54.135C46.5888 54.2135 45.7372 54.2951 44.8842 54.377C44.2892 54.4341 43.6933 54.4914 43.183 54.5476C42.6828 54.6028 42.1645 54.6795 41.6625 54.7538C41.0599 54.8431 40.4804 54.9291 39.9839 54.9698C39.8835 54.978 39.7563 54.9685 39.5969 54.9566C39.4839 54.9482 39.3538 54.9386 39.2064 54.9332C38.5776 55.0107 37.9485 55.0871 37.3194 55.1627C37.2977 55.1688 37.2753 55.175 37.2528 55.1813C37.2525 55.1815 37.2521 55.1816 37.2518 55.1817C36.745 55.3243 36.0515 55.5195 35.0506 55.5773C34.7961 55.592 34.6335 55.5813 34.487 55.5717C34.3431 55.5622 34.2145 55.5538 34.0299 55.5714C33.8203 55.5914 33.5757 55.6382 33.309 55.6892C32.9345 55.7608 32.5162 55.8408 32.0899 55.8668C32.0607 55.8686 32.0294 55.8704 31.9968 55.8725C31.6878 55.8917 31.2303 55.9202 30.7717 55.9205C29.4292 56.0709 28.0863 56.2188 26.7434 56.365C24.5049 56.6088 22.2653 56.8482 20.0265 57.0876C18.9372 57.2039 17.8853 57.257 17.1018 57.2312C16.3182 57.2053 15.8671 57.1035 15.8473 56.9431C15.8277 56.7827 16.2405 56.5746 16.9944 56.3593C17.7483 56.1441 18.7815 55.9405 19.8665 55.7889C21.6357 55.5422 23.4055 55.2953 25.1751 55.0507C25.2676 55.036 25.3606 55.0213 25.4531 55.0068C26.1414 54.8992 26.7771 54.7751 27.4133 54.6509C27.5594 54.6223 27.7058 54.5937 27.8526 54.5654ZM31.0384 8.81224C30.9421 8.81578 30.8985 8.71822 30.8702 8.66407C30.8696 8.66308 30.8691 8.6621 30.8685 8.66112C30.8618 8.64812 30.8533 8.63785 30.8433 8.62604C30.8189 8.59786 30.7883 8.56072 30.7439 8.45609C30.7196 8.43735 30.6958 8.41862 30.6724 8.3997C30.4219 8.19717 30.1694 7.99044 29.8514 7.81276C29.847 7.81184 29.8426 7.81092 29.838 7.81C29.7506 7.79185 29.6412 7.77533 29.5773 7.73338C29.4963 7.67983 29.4394 7.63688 29.3917 7.60052C29.1037 7.49418 28.785 7.42662 28.4593 7.41895C28.3576 7.41648 28.2543 7.41993 28.152 7.42957C28.0578 7.43844 27.963 7.4518 27.8691 7.46901C27.8162 7.49307 27.7668 7.52047 27.7212 7.54622C27.6572 7.58241 27.6008 7.61534 27.5524 7.63148C27.4359 7.6702 27.2946 7.66895 27.1885 7.66995C27.1712 7.67009 27.1548 7.67026 27.1397 7.67064C27.0615 7.69856 26.9831 7.72828 26.9053 7.75898C26.8984 7.75403 26.8914 7.74883 26.8843 7.74348C26.7953 7.67687 26.7097 7.69916 26.5761 7.73653C26.5179 7.75285 26.4512 7.77186 26.3692 7.78865C26.3167 7.7994 26.281 7.77436 26.2516 7.75396C26.243 7.74796 26.2349 7.74237 26.2272 7.7382C26.2006 7.72394 26.1852 7.75226 26.1673 7.7857C26.1443 7.82905 26.1157 7.88147 26.0518 7.86121C25.8482 7.79689 25.7973 7.89984 25.7603 7.97685C25.7494 7.99949 25.7396 8.01995 25.7273 8.03357C25.6872 8.07768 25.6088 8.07249 25.5418 8.05227C25.489 8.03607 25.4144 8.0945 25.3643 8.15408C25.3449 8.17676 25.3114 8.18855 25.2727 8.20219C25.2326 8.21632 25.1864 8.23256 25.1431 8.26563C25.0312 8.35007 24.9704 8.3936 24.9232 8.42782C24.9095 8.43767 24.8976 8.44644 24.884 8.456C24.8423 8.48576 24.7893 8.51684 24.7365 8.54789C24.6751 8.58441 24.6058 8.62384 24.559 8.66045C24.4155 8.68825 24.2665 8.7123 24.1072 8.73645C24.0296 8.74742 23.9306 8.70025 23.842 8.5991C23.7536 8.49783 23.6839 8.35195 23.6406 8.19312C23.5974 8.03418 23.5813 7.87399 23.594 7.74343C23.6073 7.61284 23.65 7.52259 23.711 7.48941C23.841 7.42062 23.9694 7.34923 24.0992 7.28239C24.2631 7.1989 24.4275 7.12244 24.6009 7.06212C24.7254 7.01884 24.8451 6.98169 24.9728 6.94589C24.9856 6.94234 24.9984 6.93885 25.0112 6.93535C25.1004 6.86244 25.197 6.79167 25.2648 6.75575C25.3221 6.72567 25.3736 6.73186 25.4177 6.73722C25.4481 6.7409 25.475 6.74419 25.4984 6.73494C25.511 6.72996 25.5272 6.72225 25.5471 6.71286C25.6275 6.6748 25.7706 6.60921 25.9145 6.60866C25.9789 6.60822 26.0579 6.62166 26.1335 6.63497C26.2403 6.6543 26.3399 6.67348 26.3814 6.64871C26.4545 6.60503 26.5496 6.60184 26.634 6.59983C26.7145 6.59788 26.7852 6.5969 26.8173 6.56155C26.8558 6.51927 26.8981 6.52362 26.9605 6.53056C27.0038 6.5354 27.0568 6.54141 27.1259 6.53462C27.2055 6.52685 27.2652 6.53922 27.3156 6.54998C27.3868 6.56518 27.4395 6.57709 27.5081 6.52759C27.5844 6.4726 27.6686 6.43328 27.7396 6.43737C27.7719 6.43922 27.8079 6.43315 27.8454 6.42708C27.8951 6.41904 27.9476 6.41109 27.9972 6.42129C28.0381 6.4297 28.0738 6.45847 28.1051 6.4841C28.1148 6.4921 28.1241 6.49974 28.1331 6.50641C28.1644 6.50333 28.1958 6.50024 28.2272 6.49701C28.2319 6.49151 28.2368 6.48544 28.242 6.47918C28.268 6.44776 28.3005 6.40933 28.3428 6.38888C28.4098 6.35656 28.4714 6.37188 28.5359 6.389C28.5862 6.40235 28.6379 6.41679 28.6971 6.41101C28.7375 6.40706 28.7832 6.3942 28.8298 6.38204C28.8986 6.36392 28.9676 6.34749 29.0143 6.36177C29.0318 6.36711 29.046 6.38794 29.0598 6.40871C29.0598 6.40884 29.0599 6.40896 29.06 6.40909C29.0609 6.4105 29.0619 6.41188 29.0628 6.41328C29.1774 6.40435 29.2949 6.39746 29.4124 6.3936C29.423 6.38967 29.4338 6.38586 29.4445 6.38215C29.4965 6.36396 29.5485 6.34734 29.5853 6.31876C29.6251 6.28771 29.7159 6.28041 29.8126 6.27651C29.8759 6.27384 29.9423 6.27269 29.9986 6.26499C30.0315 6.2605 30.0555 6.28762 30.0795 6.3157C30.1019 6.34191 30.1244 6.36892 30.156 6.37233C30.1718 6.37404 30.1905 6.37035 30.2106 6.36656C30.2283 6.36322 30.2471 6.35979 30.2658 6.35989C30.2831 6.35999 30.3155 6.38146 30.3563 6.40968C30.3816 6.42711 30.41 6.44711 30.4403 6.46632C30.5318 6.48442 30.6228 6.50599 30.7136 6.53177C30.7387 6.52264 30.7637 6.50776 30.7883 6.48551C30.8059 6.46954 30.8241 6.4492 30.8428 6.4285C30.8682 6.40035 30.8948 6.3714 30.923 6.35154C30.9449 6.33601 30.9636 6.3344 30.9693 6.34772C30.972 6.35392 30.9719 6.36324 30.9719 6.37167C30.9718 6.38132 30.9717 6.3899 30.9757 6.39156C30.9787 6.39274 30.9843 6.38852 30.9911 6.38345C31.0021 6.37533 31.0163 6.36493 31.028 6.36997C31.0717 6.38872 31.1179 6.41745 31.1626 6.44652C31.2124 6.47884 31.2603 6.51153 31.3028 6.5306C31.3509 6.55221 31.4013 6.60916 31.4504 6.66781C31.4847 6.70865 31.5181 6.75004 31.5503 6.78012C31.5817 6.80945 31.626 6.82523 31.6676 6.84024C31.7176 6.85828 31.766 6.87708 31.7867 6.91906C31.7909 6.92756 31.7838 6.95377 31.7745 6.98642C31.768 7.00957 31.7604 7.036 31.755 7.06172C31.7956 7.09456 31.8351 7.12911 31.8735 7.16519C31.8772 7.16385 31.8809 7.16251 31.8847 7.16113C31.8847 7.16108 31.8848 7.16104 31.8849 7.161C31.9689 7.12878 32.0874 7.08843 32.1041 7.19399C32.1082 7.22069 32.0966 7.25194 32.086 7.27994C32.0756 7.30744 32.0661 7.33191 32.0733 7.34619C32.0816 7.3624 32.1076 7.36506 32.1362 7.36847C32.1762 7.37306 32.2219 7.37989 32.2267 7.42339C32.227 7.42633 32.2272 7.42952 32.2276 7.43278C32.2309 7.46369 32.2356 7.50961 32.2182 7.57365C32.2782 7.66299 32.3349 7.75842 32.3848 7.85392C32.4642 8.00765 32.5388 8.18042 32.5932 8.33783C32.6209 8.41658 32.5953 8.52367 32.5169 8.63222C32.4385 8.74112 32.315 8.8418 32.1727 8.91818C32.0303 8.99464 31.8792 9.04292 31.7503 9.06143C31.6214 9.07961 31.5262 9.06653 31.4794 9.02451C31.4047 8.95777 31.3231 8.88796 31.2462 8.82849C31.2406 8.8265 31.235 8.82446 31.2296 8.82234C31.1894 8.8063 31.1339 8.80888 31.077 8.81054C31.064 8.81107 31.0511 8.81171 31.0384 8.81224ZM31.1271 8.89263C31.0355 8.89066 31.0149 8.79692 31.0011 8.74234C31.0009 8.74137 31.0006 8.74041 31.0003 8.73945C30.9972 8.72677 30.9919 8.71629 30.9856 8.70411C30.9705 8.67509 30.9504 8.63593 30.9425 8.53329C30.9267 8.51226 30.9116 8.49103 30.8966 8.46826C30.7384 8.22877 30.625 7.95921 30.51 7.68696C30.5074 7.6843 30.5047 7.68161 30.5021 7.6789C30.4508 7.62626 30.3877 7.56377 30.3747 7.50351C30.3573 7.42585 30.3507 7.36645 30.347 7.3176C30.2467 7.10411 30.1302 6.89526 29.9837 6.71707C29.9368 6.66037 29.8902 6.60977 29.8362 6.55898C29.7872 6.51291 29.7385 6.47176 29.6853 6.43068C29.645 6.41744 29.6044 6.40861 29.5671 6.40099C29.5148 6.39042 29.4684 6.38168 29.4368 6.36529C29.3613 6.32637 29.3077 6.24743 29.2646 6.18791C29.2578 6.17828 29.2513 6.16922 29.2451 6.16104C29.1958 6.1371 29.1437 6.11307 29.0928 6.09119C29.0936 6.08385 29.0945 6.07626 29.0954 6.0685C29.1074 5.97203 29.0575 5.93854 28.981 5.89048C28.9482 5.86996 28.9084 5.84546 28.8657 5.81205C28.8383 5.7906 28.8408 5.75252 28.8425 5.72123C28.843 5.71203 28.8435 5.70343 28.8432 5.69606C28.8417 5.67068 28.8167 5.68253 28.788 5.69711C28.7506 5.71594 28.7068 5.73939 28.6947 5.68926C28.6527 5.52813 28.5677 5.57826 28.5078 5.61775C28.4898 5.62918 28.4736 5.63964 28.4606 5.64349C28.4181 5.65585 28.3909 5.61075 28.3751 5.55954C28.3622 5.51868 28.2981 5.5255 28.2458 5.54785C28.2253 5.55597 28.2055 5.54846 28.1825 5.53999C28.1585 5.53112 28.1327 5.52186 28.0966 5.52719C28.0083 5.54192 27.9653 5.55111 27.9298 5.55796C27.9198 5.56 27.9107 5.56188 27.9016 5.56401C27.8738 5.57098 27.8379 5.57356 27.8052 5.57789C27.7669 5.58317 27.7251 5.58912 27.6961 5.60334C27.6301 5.56997 27.5687 5.53661 27.5088 5.50841C27.4788 5.49386 27.4548 5.42004 27.426 5.29935C27.3982 5.17854 27.3685 5.02177 27.3536 4.85774C27.339 4.69383 27.3453 4.53317 27.3886 4.40925C27.4321 4.28545 27.5014 4.2111 27.5712 4.2014C27.7138 4.18224 27.8466 4.17407 27.9807 4.17879C28.1441 4.18488 28.2966 4.20822 28.4434 4.25642C28.545 4.28986 28.6417 4.33 28.7371 4.37674C28.7465 4.3814 28.756 4.38617 28.7654 4.39098C28.8609 4.38685 28.9575 4.39032 29.0182 4.40462C29.0686 4.41657 29.0947 4.45364 29.1131 4.4836C29.1264 4.50454 29.138 4.52315 29.1559 4.53036C29.1655 4.53423 29.1792 4.53851 29.1958 4.54382C29.2649 4.56618 29.3761 4.60347 29.4492 4.69301C29.4802 4.73173 29.5085 4.7895 29.535 4.84514C29.5734 4.92499 29.6029 4.9972 29.6393 5.00522C29.7031 5.01914 29.7475 5.0742 29.7859 5.12332C29.8226 5.17013 29.8555 5.21271 29.8938 5.20692C29.9401 5.20045 29.9553 5.2285 29.9774 5.27028C29.9927 5.29922 30.0119 5.33522 30.0465 5.37112C30.0855 5.4119 30.1022 5.45503 30.1161 5.49168C30.1354 5.54313 30.151 5.58302 30.215 5.58747C30.2868 5.59311 30.3518 5.61418 30.3801 5.65723C30.3931 5.67695 30.413 5.69274 30.4333 5.70908C30.4603 5.73079 30.4888 5.75411 30.5032 5.78818C30.515 5.81626 30.5099 5.85536 30.5053 5.88988C30.5038 5.90065 30.5024 5.91096 30.5016 5.92039C30.5182 5.93565 30.5336 5.94954 30.5498 5.96388C30.5559 5.9626 30.5625 5.96105 30.5693 5.95949C30.6037 5.95165 30.646 5.94236 30.68 5.95046C30.7337 5.96331 30.7509 6.0058 30.7686 6.05076C30.7815 6.08491 30.7946 6.12047 30.8265 6.1456C30.8482 6.16273 30.8793 6.17642 30.9102 6.1904C30.9563 6.21121 31.0017 6.23241 31.0138 6.26336C31.0184 6.27507 31.0105 6.29609 31.0024 6.31693C31.0024 6.31704 31.0023 6.31716 31.0023 6.31727C31.0017 6.31869 31.0012 6.32008 31.0007 6.32149C31.0631 6.36729 31.1284 6.41531 31.192 6.46139C31.2002 6.46297 31.2084 6.46467 31.2165 6.46639C31.2562 6.47481 31.2949 6.48347 31.3342 6.47747C31.3767 6.47094 31.43 6.50087 31.4864 6.53383C31.5234 6.55555 31.56 6.57627 31.5968 6.58949C31.6183 6.5971 31.6138 6.62452 31.6091 6.65269C31.6047 6.67898 31.6 6.70593 31.6164 6.71842C31.6246 6.72468 31.638 6.72784 31.6524 6.73126C31.6651 6.73427 31.6785 6.73749 31.6896 6.74319C31.6998 6.7483 31.7061 6.77462 31.7123 6.80604C31.7164 6.82571 31.721 6.84805 31.7276 6.87019C31.7725 6.9076 31.8172 6.94616 31.8612 6.98606C31.883 6.98499 31.9082 6.97948 31.9375 6.96828C31.9585 6.96025 31.9824 6.949 32.0069 6.93756C32.0402 6.92194 32.0749 6.90617 32.1047 6.89663C32.1281 6.88923 32.1411 6.8913 32.137 6.90204C32.1351 6.90705 32.1296 6.91386 32.1246 6.92002C32.1189 6.92707 32.1138 6.93335 32.1155 6.93527C32.1167 6.93664 32.1228 6.93451 32.1303 6.93197C32.1422 6.92791 32.1576 6.92272 32.1624 6.92841C32.1804 6.94956 32.1948 6.97805 32.2089 7.00614C32.2246 7.03737 32.2398 7.06806 32.2592 7.08755C32.2808 7.10909 32.2877 7.15921 32.2923 7.2064C32.2958 7.23968 32.2993 7.27302 32.3082 7.29766C32.3169 7.3218 32.342 7.3361 32.3665 7.35012C32.3958 7.36691 32.4242 7.38337 32.4212 7.41541C32.4205 7.4219 32.4032 7.44097 32.3814 7.4648C32.366 7.4817 32.3484 7.50103 32.3329 7.51997C32.3505 7.54671 32.3663 7.57275 32.3815 7.59957C32.385 7.59863 32.3885 7.59769 32.392 7.5967C32.3921 7.59667 32.3922 7.59664 32.3923 7.59662C32.4727 7.57435 32.5834 7.54495 32.5555 7.6218C32.5483 7.64131 32.5269 7.66439 32.5075 7.68513C32.4885 7.7055 32.4715 7.72369 32.4721 7.73412C32.4728 7.74596 32.4934 7.74747 32.5157 7.74923C32.5472 7.75169 32.5824 7.75468 32.5714 7.78668C32.5706 7.78887 32.5698 7.79124 32.569 7.79366C32.5612 7.81658 32.55 7.851 32.514 7.89859C32.5355 7.96163 32.5546 8.02657 32.5722 8.09283C32.602 8.20413 32.6252 8.31557 32.6473 8.42721C32.658 8.48179 32.617 8.56347 32.5291 8.65511C32.4411 8.7469 32.3144 8.84059 32.173 8.9188C32.0317 8.99702 31.8852 9.05479 31.762 9.08341C31.6389 9.1119 31.55 9.10849 31.5107 9.07546C31.4467 9.02099 31.384 8.97028 31.3204 8.91476C31.3154 8.91292 31.3105 8.91101 31.3058 8.90903C31.2706 8.89423 31.2171 8.89338 31.1637 8.89299C31.1514 8.8929 31.1391 8.89284 31.1271 8.89263ZM31.3367 8.20693C31.2643 8.14657 31.3042 8.04762 31.3261 7.9907C31.3264 7.98967 31.3268 7.98864 31.3272 7.98761C31.3323 7.97433 31.3344 7.96155 31.3367 7.94661C31.3422 7.91099 31.3497 7.8629 31.4059 7.76663C31.406 7.73787 31.4071 7.70769 31.409 7.67811C31.4295 7.36237 31.5079 7.04683 31.5916 6.73195C31.5913 6.72788 31.591 6.72374 31.5907 6.71956C31.5844 6.63872 31.5758 6.54051 31.6045 6.47976C31.641 6.40001 31.6744 6.34613 31.7032 6.30205C31.7649 6.04939 31.8151 5.79265 31.8269 5.53794C31.8306 5.4568 31.8307 5.38088 31.826 5.29889C31.8216 5.22464 31.8146 5.15355 31.8047 5.08046C31.7847 5.03851 31.7617 4.99954 31.7402 4.96389C31.71 4.91362 31.6831 4.8709 31.672 4.83201C31.6455 4.73974 31.664 4.63614 31.6764 4.55418C31.6785 4.54107 31.6804 4.52873 31.682 4.51736C31.6646 4.45726 31.6461 4.39803 31.6267 4.33736C31.6326 4.33244 31.6387 4.32746 31.645 4.32239C31.7233 4.25889 31.714 4.19575 31.6974 4.09337C31.6902 4.04893 31.6822 4.00067 31.6784 3.9379C31.676 3.89831 31.7063 3.87311 31.731 3.85233C31.7382 3.84623 31.745 3.84051 31.7503 3.83498C31.7686 3.81602 31.7433 3.80362 31.7134 3.78937C31.6744 3.76984 31.6277 3.74686 31.6578 3.70064C31.7539 3.55494 31.6606 3.51068 31.5917 3.48371C31.5713 3.47544 31.553 3.46808 31.5417 3.45905C31.505 3.42857 31.5222 3.37018 31.5527 3.32289C31.5772 3.28628 31.5312 3.22918 31.4808 3.1934C31.4617 3.17946 31.4558 3.1576 31.4481 3.12928C31.4403 3.10015 31.4312 3.06699 31.4053 3.03716C31.3395 2.96033 31.3058 2.92144 31.2788 2.89002C31.271 2.88077 31.2638 2.87227 31.2565 2.86395C31.2331 2.83704 31.2111 2.80671 31.1868 2.7716C31.1583 2.73129 31.1298 2.69413 31.0994 2.66745C31.0884 2.57806 31.0784 2.48657 31.0676 2.40489C31.0628 2.36391 31.1121 2.29875 31.2051 2.21557C31.2977 2.13157 31.4243 2.03445 31.5643 1.9477C31.7044 1.86131 31.8512 1.79579 31.9821 1.77982C32.1114 1.76118 32.2102 1.79082 32.25 1.84435C32.3315 1.95538 32.4052 2.06885 32.4674 2.1788C32.5439 2.31449 32.6075 2.45761 32.6479 2.59886C32.6769 2.70016 32.6999 2.80303 32.7169 2.9021C32.7187 2.91252 32.7205 2.923 32.7222 2.93353C32.7826 3.01072 32.8364 3.08237 32.8626 3.1411C32.8841 3.18926 32.8698 3.22706 32.858 3.26158C32.8498 3.28504 32.8424 3.30585 32.848 3.32445C32.8509 3.33444 32.8561 3.3479 32.8624 3.36427C32.8872 3.42734 32.9298 3.54286 32.9078 3.65149C32.8982 3.7003 32.873 3.76053 32.8483 3.81715C32.8128 3.89588 32.779 3.97009 32.7972 4.00284C32.8295 4.06138 32.8184 4.12978 32.8085 4.19363C32.7991 4.25434 32.7903 4.30672 32.8209 4.33164C32.8574 4.36187 32.8475 4.39273 32.8326 4.43872C32.8222 4.47027 32.8097 4.51128 32.8079 4.56061C32.806 4.61867 32.7869 4.66199 32.7707 4.69879C32.7479 4.75074 32.7306 4.78982 32.7729 4.84044C32.82 4.89723 32.8517 4.95962 32.8421 5.01173C32.8377 5.03592 32.841 5.06091 32.8443 5.08791C32.8488 5.12345 32.8533 5.1612 32.8403 5.1969C32.8295 5.22631 32.799 5.25198 32.7719 5.27464C32.7635 5.28171 32.7554 5.28849 32.7484 5.29501C32.7501 5.31832 32.7518 5.33972 32.7539 5.3622C32.7592 5.36556 32.7651 5.36908 32.7712 5.37276C32.8016 5.39124 32.839 5.41417 32.8585 5.44418C32.8892 5.49172 32.8732 5.53588 32.856 5.58254C32.8426 5.61787 32.8285 5.65429 32.8353 5.69581C32.84 5.72411 32.8541 5.75624 32.8679 5.78839C32.8884 5.83606 32.9085 5.88421 32.8971 5.91639C32.8928 5.92866 32.873 5.93955 32.8532 5.95029C32.8531 5.95034 32.8529 5.95039 32.8528 5.95044C32.8515 5.95117 32.8502 5.9519 32.8488 5.95263C32.8656 6.03141 32.8835 6.11245 32.9018 6.19274C32.907 6.19954 32.9121 6.20643 32.9171 6.21327C32.9418 6.24667 32.9657 6.27947 32.9994 6.30098C33.0361 6.32426 33.0573 6.38323 33.0794 6.44639C33.0938 6.48833 33.1086 6.52935 33.1285 6.56388C33.1402 6.58399 33.1192 6.60275 33.0976 6.62201C33.0775 6.63999 33.0567 6.65842 33.0614 6.67907C33.0638 6.68942 33.0722 6.70072 33.0811 6.71282C33.089 6.72347 33.0973 6.73476 33.1023 6.74654C33.1069 6.75748 33.0952 6.78143 33.0801 6.81223C33.0708 6.83068 33.0603 6.85162 33.0515 6.87372C33.0629 6.93303 33.0734 6.99293 33.0829 7.05336C33.1006 7.0665 33.1237 7.07822 33.1536 7.08795C33.1751 7.09492 33.2008 7.10115 33.2271 7.10756C33.2628 7.11629 33.2998 7.12536 33.3291 7.13713C33.352 7.14627 33.3608 7.15673 33.351 7.16261C33.3464 7.16543 33.3378 7.1674 33.3301 7.16918C33.3212 7.17123 33.3133 7.17305 33.3134 7.17566C33.3135 7.17754 33.3197 7.17973 33.3271 7.18242C33.339 7.18673 33.3543 7.19233 33.3545 7.19996C33.3554 7.22834 33.3491 7.26042 33.3428 7.29196C33.3358 7.32702 33.329 7.36144 33.3323 7.38937C33.336 7.42061 33.3107 7.46408 33.2854 7.50724C33.2677 7.5366 33.2501 7.56605 33.2421 7.59178C33.2342 7.61698 33.2454 7.64441 33.2563 7.67112C33.2694 7.70318 33.2819 7.73424 33.2601 7.75863C33.2556 7.76356 33.2303 7.76842 33.1985 7.77449C33.176 7.77879 33.1503 7.78375 33.1265 7.78972C33.1243 7.82227 33.1211 7.85522 33.117 7.88657C33.1203 7.88793 33.1237 7.88932 33.1272 7.89073C33.1272 7.89075 33.1273 7.89078 33.1274 7.8908C33.205 7.9224 33.3111 7.96636 33.2426 8.01269C33.2251 8.02445 33.1941 8.03036 33.1662 8.03566C33.1388 8.04087 33.1142 8.04551 33.1084 8.05456C33.1019 8.06485 33.1175 8.07877 33.1343 8.094C33.158 8.11539 33.1845 8.13944 33.1565 8.15929C33.1546 8.16064 33.1525 8.1621 33.1504 8.16362C33.1305 8.17797 33.101 8.19956 33.0436 8.21809C33.0233 8.28435 33.0001 8.35079 32.975 8.41745C32.9331 8.52922 32.8862 8.63891 32.8388 8.74767C32.8154 8.8008 32.7344 8.84589 32.6095 8.87174C32.4844 8.89762 32.3267 8.90219 32.1662 8.88441C32.0056 8.86665 31.8528 8.8279 31.7361 8.77713C31.6195 8.72633 31.5494 8.66786 31.5371 8.61376C31.5175 8.52532 31.4971 8.43938 31.4788 8.35012C31.4759 8.34531 31.4731 8.3405 31.4704 8.33573C31.451 8.30027 31.4085 8.26537 31.3658 8.23076C31.356 8.22281 31.3462 8.21485 31.3367 8.20693ZM31.7475 7.84151C31.7155 7.74698 31.8071 7.663 31.8572 7.61853C31.8581 7.61769 31.859 7.61685 31.8599 7.61601C31.8718 7.60522 31.8814 7.59271 31.8921 7.57854C31.9179 7.54472 31.9529 7.49833 32.0597 7.42929C32.0774 7.40015 32.0958 7.37168 32.115 7.34398C32.3282 7.03683 32.6018 6.78143 32.9035 6.54306C32.9062 6.53923 32.909 6.53532 32.9118 6.53139C32.9645 6.45643 33.0353 6.36037 33.1056 6.32439C33.1948 6.27873 33.2611 6.25639 33.3169 6.23888C33.5684 6.06142 33.8132 5.90169 34.0568 5.7241C34.1294 5.6717 34.2085 5.61204 34.2807 5.55575C34.3464 5.50442 34.4171 5.44837 34.4843 5.39467C34.5158 5.35141 34.5414 5.30927 34.5701 5.26732C34.6091 5.20943 34.6444 5.15882 34.68 5.12729C34.7643 5.05182 34.8966 5.00746 34.9891 4.98148C35.005 4.97675 35.0199 4.97241 35.0337 4.9683C35.098 4.92189 35.1597 4.87797 35.2261 4.83361C35.2337 4.83715 35.2414 4.84093 35.2492 4.84485C35.3478 4.89358 35.4148 4.86125 35.5359 4.81128C35.5884 4.78982 35.6455 4.76741 35.7218 4.74791C35.7703 4.73563 35.8048 4.76052 35.8324 4.78091C35.8406 4.78692 35.8481 4.79256 35.8553 4.7968C35.8799 4.81132 35.8922 4.78376 35.9079 4.7511C35.929 4.70852 35.9564 4.65717 36.0152 4.68134C36.1986 4.76011 36.2506 4.66933 36.2939 4.5985C36.3068 4.57782 36.3193 4.55913 36.3331 4.54773C36.3784 4.51059 36.4524 4.53053 36.509 4.56534C36.555 4.59255 36.6343 4.55427 36.6973 4.51141C36.7217 4.4951 36.7557 4.49355 36.7951 4.49271C36.836 4.49185 36.8822 4.49172 36.9351 4.47637C37.0659 4.43784 37.1412 4.42554 37.1996 4.41536C37.2164 4.41256 37.232 4.41017 37.2476 4.4077C37.2986 4.4001 37.3615 4.39816 37.4242 4.39834C37.5018 4.39894 37.5793 4.40283 37.6424 4.40019C37.7871 4.46114 37.9268 4.53905 38.0585 4.63031C38.1287 4.67848 38.1616 4.78146 38.1467 4.91484C38.1308 5.04781 38.0629 5.19428 37.9714 5.33109C37.8798 5.46796 37.7743 5.58835 37.6856 5.67712C37.5955 5.76498 37.5324 5.81467 37.4923 5.80994C37.4131 5.80094 37.3316 5.79923 37.2501 5.79892C37.1517 5.79884 37.0546 5.80074 36.9551 5.79366C36.8865 5.78882 36.816 5.78411 36.7423 5.7806C36.7349 5.78023 36.7276 5.77983 36.7201 5.77948C36.6618 5.82351 36.6063 5.86707 36.5667 5.88606C36.5337 5.90176 36.5047 5.88484 36.4798 5.87056C36.4626 5.86077 36.4468 5.85235 36.4334 5.8569C36.4262 5.85935 36.4166 5.86389 36.4049 5.8695C36.3576 5.89214 36.2798 5.93307 36.1922 5.91929C36.1532 5.91305 36.1004 5.89425 36.0506 5.87718C35.9796 5.85254 35.9082 5.83392 35.8858 5.85799C35.8489 5.89911 35.7877 5.90437 35.7314 5.91155C35.6784 5.91795 35.6329 5.92453 35.6228 5.96067C35.6112 6.00366 35.5821 6.00393 35.5384 6.00536C35.509 6.00593 35.4724 6.00716 35.4299 6.02421C35.3812 6.04373 35.3354 6.04503 35.2993 6.04454C35.2474 6.04465 35.207 6.04599 35.1853 6.10608C35.1605 6.17341 35.1298 6.2276 35.0846 6.24359C35.064 6.25085 35.0453 6.26626 35.0258 6.2826C35 6.30414 34.9722 6.32781 34.9385 6.33459C34.9103 6.34053 34.8735 6.32876 34.8406 6.3187C34.8303 6.31556 34.8204 6.31261 34.8113 6.31038C34.7948 6.32408 34.7782 6.33813 34.7619 6.35264C34.7624 6.35886 34.7631 6.36563 34.7638 6.37263C34.7677 6.40761 34.7713 6.45152 34.7617 6.48313C34.7458 6.53364 34.7044 6.54566 34.6598 6.55945C34.6251 6.57017 34.5887 6.58193 34.5622 6.61334C34.5446 6.63444 34.5316 6.6641 34.5182 6.69422C34.4985 6.73882 34.4793 6.78332 34.4484 6.79648C34.4368 6.80141 34.4155 6.79408 34.3943 6.78686C34.3942 6.7868 34.3941 6.78675 34.394 6.78669C34.3925 6.7862 34.3911 6.78574 34.3897 6.78525C34.3443 6.85091 34.3055 6.91395 34.2647 6.98196C34.2638 6.99033 34.2628 6.99869 34.2618 7.00697C34.257 7.0474 34.2524 7.0869 34.2629 7.12513C34.2747 7.16605 34.2539 7.21954 34.2319 7.27734C34.2175 7.31511 34.2027 7.35458 34.1966 7.39224C34.193 7.41423 34.1656 7.4141 34.1373 7.41422C34.1107 7.41447 34.0845 7.41357 34.0759 7.43131C34.0717 7.44013 34.0715 7.45347 34.0714 7.46772C34.0713 7.48028 34.0712 7.49357 34.0683 7.5051C34.0656 7.51582 34.0428 7.52541 34.0133 7.53828C33.9952 7.54623 33.9745 7.55546 33.9545 7.56679C33.9283 7.61887 33.9018 7.6713 33.8769 7.72113C33.884 7.74145 33.8962 7.76392 33.915 7.78885C33.9285 7.80674 33.9459 7.82657 33.9637 7.84684C33.9879 7.87441 34.0129 7.90287 34.0304 7.92868C34.0441 7.94885 34.046 7.96144 34.0348 7.96017C34.0296 7.95958 34.0216 7.95604 34.0143 7.95286C34.0061 7.94921 33.9987 7.94598 33.9974 7.94802C33.9965 7.9495 34.0003 7.95474 34.0048 7.9611C34.0122 7.97127 34.0216 7.98441 34.0177 7.9903C34.0034 8.01221 33.9813 8.0329 33.9595 8.05349C33.9352 8.07644 33.9116 8.09911 33.9007 8.12138C33.8883 8.14668 33.8462 8.16485 33.8037 8.18398C33.7741 8.1973 33.7444 8.21109 33.7247 8.22729C33.7054 8.24318 33.701 8.27124 33.6969 8.29852C33.6921 8.33121 33.6872 8.36331 33.6576 8.37033C33.6515 8.37183 33.6277 8.36231 33.5978 8.3505C33.5766 8.34212 33.5523 8.33261 33.5291 8.32498C33.512 8.34972 33.4939 8.37412 33.4752 8.39827C33.4774 8.40107 33.4796 8.40394 33.4819 8.40684C33.4819 8.4069 33.482 8.40696 33.482 8.40702C33.5336 8.47271 33.6049 8.56159 33.524 8.56561C33.5034 8.56667 33.4737 8.55623 33.4469 8.54689C33.4207 8.53772 33.3971 8.52955 33.3878 8.53437C33.3773 8.53985 33.3843 8.55925 33.392 8.58035C33.4026 8.61015 33.415 8.64271 33.382 8.64512C33.3798 8.64529 33.3773 8.64546 33.3748 8.64568C33.3511 8.64774 33.3161 8.6509 33.2574 8.63912C33.2095 8.68575 33.1594 8.73221 33.1076 8.77905C33.0201 8.85924 32.934 8.93115 32.8454 9.00945C32.8023 9.04715 32.7102 9.05427 32.5853 9.02757C32.4603 9.00074 32.3135 8.94261 32.1736 8.86185C32.0336 8.78112 31.91 8.68289 31.8261 8.58549C31.7422 8.48823 31.7059 8.40039 31.7208 8.3405C31.7459 8.24241 31.7691 8.14875 31.7987 8.05073C31.7986 8.04455 31.7986 8.03842 31.7987 8.03241C31.7998 7.98773 31.7801 7.93342 31.7606 7.87895C31.7561 7.86644 31.7517 7.85391 31.7475 7.84151ZM32.7677 7.85239C32.8227 7.76691 32.9512 7.7823 33.0205 7.79129C33.0218 7.79142 33.023 7.79155 33.0243 7.79168C33.0408 7.79378 33.0561 7.79299 33.0739 7.79199C33.1163 7.78966 33.1728 7.78649 33.3023 7.82141C33.3377 7.81555 33.3731 7.81062 33.4084 7.80675C33.7804 7.76597 34.1791 7.79559 34.5639 7.85033C34.5686 7.84966 34.5734 7.84897 34.5783 7.84827C34.6701 7.83486 34.7963 7.81874 34.8713 7.84392C34.9684 7.87577 35.032 7.90704 35.0855 7.93417C35.3987 7.98676 35.6971 8.04107 36.0039 8.07355C36.1015 8.08383 36.1907 8.09155 36.29 8.09701C36.3804 8.102 36.4688 8.10548 36.5555 8.10775C36.6076 8.09497 36.6617 8.07961 36.7092 8.06547C36.7766 8.04566 36.8361 8.02868 36.8835 8.02641C37.0022 8.02128 37.1315 8.06767 37.2227 8.10336C37.2386 8.10932 37.2535 8.115 37.2672 8.12008C37.3478 8.12221 37.4268 8.12456 37.5044 8.12768C37.5086 8.13503 37.5128 8.14266 37.5169 8.15048C37.5693 8.24821 37.6484 8.26283 37.7749 8.29133C37.8321 8.30433 37.8972 8.32 37.9692 8.34642C38.0149 8.36328 38.0337 8.40434 38.0456 8.43685C38.0493 8.44648 38.0528 8.45548 38.0566 8.4631C38.07 8.4892 38.0968 8.47355 38.1288 8.4554C38.171 8.43206 38.2186 8.40322 38.2593 8.45746C38.3786 8.62747 38.4715 8.57931 38.5513 8.5455C38.5741 8.53547 38.5948 8.52659 38.6129 8.52464C38.6697 8.51734 38.7303 8.57847 38.761 8.63956C38.7848 8.68733 38.8797 8.70224 38.9607 8.70388C38.9917 8.70463 39.0203 8.7215 39.0591 8.7461C39.0981 8.7708 39.1415 8.79981 39.1963 8.81871C39.3422 8.87259 39.4162 8.91249 39.478 8.94698C39.4953 8.95671 39.5113 8.96603 39.5272 8.97538C39.5783 9.00555 39.6395 9.05324 39.6967 9.10361C39.7693 9.16845 39.8362 9.23772 39.895 9.29597C39.9849 9.47907 40.047 9.68982 40.0623 9.91212C40.0707 10.0267 40.0026 10.1474 39.879 10.2157C39.7552 10.2868 39.5921 10.2981 39.4289 10.2794C39.2653 10.2606 39.1098 10.221 38.9883 10.1973C38.8669 10.1725 38.7917 10.1654 38.7757 10.1505C38.7433 10.1191 38.7036 10.0907 38.6586 10.0586C38.6036 10.0195 38.5399 9.97519 38.469 9.9175C38.4193 9.87694 38.3624 9.83332 38.3025 9.79C38.2962 9.78546 38.2898 9.78084 38.2833 9.77623C38.2056 9.77861 38.1343 9.7847 38.0847 9.77638C38.0465 9.77077 38.0289 9.73975 38.0125 9.71288C38.0014 9.69445 37.9904 9.67786 37.975 9.67373C37.9671 9.67163 37.9557 9.66987 37.9418 9.66777C37.8846 9.6589 37.7852 9.6461 37.7074 9.58182C37.6713 9.55271 37.635 9.50656 37.5977 9.46258C37.5445 9.39967 37.4869 9.34102 37.4537 9.34744C37.3932 9.35809 37.3311 9.32462 37.2741 9.29565C37.2231 9.26861 37.1758 9.24538 37.1429 9.26767C37.1036 9.29433 37.0766 9.27641 37.0353 9.25012C37.0085 9.23217 36.975 9.21029 36.9256 9.19681C36.8685 9.18128 36.8288 9.15334 36.7945 9.12966C36.748 9.0966 36.7138 9.07207 36.6535 9.10426C36.5874 9.14012 36.5163 9.16093 36.4671 9.14369C36.4447 9.13583 36.4182 9.1353 36.3904 9.13489C36.3535 9.13433 36.3142 9.1339 36.2789 9.11661C36.2497 9.10236 36.2265 9.06907 36.2055 9.03965C36.199 9.03047 36.1926 9.02171 36.1866 9.01399C36.1635 9.01324 36.1403 9.01274 36.1169 9.01266C36.1129 9.01764 36.1086 9.02316 36.1042 9.02885C36.0821 9.05744 36.055 9.09256 36.0223 9.10943C35.9705 9.13615 35.9261 9.11696 35.8781 9.09685C35.8395 9.08117 35.8049 9.06508 35.7609 9.06997C35.7313 9.07332 35.6973 9.08602 35.6633 9.09874C35.6129 9.11762 35.5626 9.13654 35.5272 9.12464C35.514 9.12017 35.5023 9.10015 35.4911 9.08025C35.4911 9.08012 35.491 9.08 35.491 9.07988C35.4903 9.07853 35.4895 9.07721 35.4888 9.07586C35.4071 9.09166 35.3239 9.10974 35.2392 9.12946C35.232 9.13479 35.2247 9.14005 35.2174 9.14525C35.1818 9.1706 35.1471 9.19539 35.1249 9.22986C35.1015 9.26719 35.0433 9.29034 34.9802 9.31532C34.939 9.33166 34.896 9.34874 34.8611 9.3707C34.8407 9.38354 34.8197 9.36385 34.798 9.34359C34.7777 9.32469 34.7566 9.30533 34.735 9.31155C34.724 9.31468 34.7131 9.32386 34.7017 9.33368C34.6916 9.34232 34.6809 9.35149 34.6695 9.35739C34.6588 9.36286 34.6339 9.35302 34.6016 9.34065C34.5816 9.333 34.5588 9.3244 34.5348 9.31771C34.4737 9.33459 34.4119 9.35129 34.3493 9.36748C34.3374 9.38655 34.3277 9.4109 34.3209 9.44173C34.316 9.46385 34.3124 9.49011 34.3088 9.51697C34.3041 9.5535 34.2995 9.59123 34.2913 9.62167C34.285 9.64546 34.2761 9.65544 34.2688 9.64634C34.2655 9.6421 34.2625 9.63384 34.2598 9.62637C34.2566 9.61782 34.2539 9.61021 34.2512 9.61065C34.2494 9.61098 34.2479 9.61733 34.246 9.62503C34.2431 9.63732 34.2393 9.65318 34.2317 9.65436C34.2032 9.65874 34.1701 9.65653 34.1373 9.65443C34.1009 9.65209 34.065 9.64997 34.0371 9.65716C34.0058 9.66521 33.9581 9.64645 33.9097 9.62801C33.8755 9.61518 33.843 9.60235 33.8159 9.59848C33.7892 9.5947 33.7633 9.61018 33.7381 9.62532C33.7079 9.64349 33.6788 9.66111 33.6504 9.64382C33.6446 9.6403 33.6354 9.61614 33.6237 9.58592C33.6154 9.56451 33.6059 9.54004 33.5956 9.51764C33.5618 9.52134 33.5278 9.5241 33.4934 9.52609C33.4926 9.5296 33.4918 9.53317 33.4909 9.53682C33.4909 9.5369 33.4909 9.53698 33.4909 9.53707C33.4719 9.61934 33.4457 9.73196 33.3848 9.67376C33.3697 9.65892 33.3578 9.62962 33.3471 9.60326C33.3366 9.57738 33.3271 9.55422 33.3168 9.55035C33.3052 9.54596 33.2942 9.56397 33.2822 9.58357C33.2654 9.61109 33.2467 9.64185 33.221 9.61855C33.2193 9.61696 33.2174 9.61521 33.2154 9.61347C33.1968 9.59694 33.1693 9.57252 33.138 9.52037C33.0643 9.51477 32.9893 9.50706 32.9131 9.4982C32.7869 9.48332 32.6668 9.46387 32.5396 9.44617C32.4781 9.43729 32.4098 9.37093 32.3488 9.25747C32.2879 9.14383 32.2396 8.99326 32.2148 8.83359C32.19 8.67394 32.1906 8.51585 32.216 8.38901C32.2414 8.26233 32.2895 8.17837 32.3483 8.15173C32.4443 8.10861 32.5392 8.06607 32.6335 8.02638C32.6382 8.02235 32.6429 8.01842 32.6476 8.01471C32.6835 7.98691 32.7153 7.93671 32.7462 7.88665C32.7533 7.87515 32.7605 7.86362 32.7677 7.85239Z" fill="#0E0626"/>
</svg>
