<svg width="82" height="90" viewBox="0 0 82 90" fill="none" xmlns="http://www.w3.org/2000/svg">
<path d="M36.692 9.00002L0.191559 52.4996L43.6911 89L80.1916 45.5005L36.692 9.00002Z" fill="#0E0626"/>
<path d="M11.1597 36.4717C12.1957 34.996 14.4707 32.3832 15.7221 30.9459C15.745 30.9195 15.7679 30.8931 15.7908 30.8667C16.0878 30.5256 16.3644 30.1993 16.6883 29.8169C17.4608 28.9049 18.5044 27.6729 20.7462 25.1549C21.3736 24.4014 22.0025 23.6489 22.6327 22.8978C26.8502 17.8717 31.1055 12.8773 35.3798 7.89894C35.9895 7.14578 37.0399 7.0781 37.7931 7.6878C40.8491 10.3116 43.8991 12.9426 46.9467 15.5765C47.0497 15.6619 47.1545 15.7487 47.2603 15.8364C49.305 17.5313 51.8405 19.633 53.3893 21.0063C55.3584 22.7524 56.6843 23.952 57.7715 24.9393C64.1345 30.4405 70.5061 35.9316 76.9194 41.3729C78.2309 42.4855 79.5442 43.5962 80.8596 44.7044C81.3165 45.0743 81.3575 45.7116 80.9876 46.1685C80.3973 46.8691 79.8077 47.5703 79.2188 48.2721C77.6586 50.1315 76.1017 51.9946 74.5485 53.86C73.6657 54.9646 72.8324 56.0199 72.0597 56.9984C70.9739 58.3736 70.0072 59.5977 69.191 60.5939C67.2243 62.9943 64.9179 65.6537 63.205 67.6286C62.9251 67.9513 62.6608 68.256 62.4166 68.5381C61.0985 70.1419 59.7812 71.7471 58.4645 73.3522C58.3656 73.4501 58.2655 73.5484 58.1637 73.6483C56.8934 74.8952 55.4951 76.565 53.2939 79.1933C52.3353 80.3378 51.2242 81.6643 49.9053 83.2168C49.0555 84.2172 48.5699 84.69 48.1732 85.0763C48.0565 85.19 47.9471 85.2966 47.8388 85.4065C47.4674 85.7833 47.1451 86.2385 46.7644 86.7762C46.2704 87.4738 45.6779 88.3108 44.7518 89.2963C44.6457 89.4092 44.542 89.52 44.4406 89.6289C44.0924 90.0591 43.4924 90.0978 43.0622 89.7495C40.1433 87.0317 38.6547 85.9875 37.5188 85.1906C37.1731 84.9482 36.8599 84.7283 36.5491 84.4914C35.5414 83.7232 34.1977 82.5191 33.2055 81.5813C32.4187 80.8376 30.7217 79.4964 29.4138 78.5042C28.9193 78.129 28.2764 77.5906 27.5195 76.9564C26.7361 76.3001 25.8299 75.5405 24.8389 74.7537C22.3346 72.7651 21.0063 71.7053 19.9386 70.8531C19.6342 70.6102 19.3508 70.3837 19.0674 70.1578C18.172 69.4439 17.0685 68.5488 15.9513 67.6425C14.6143 66.5579 13.2574 65.4571 12.2142 64.6323C9.60124 62.3863 6.99425 60.1327 4.3877 57.8796C3.04899 56.722 1.84328 55.5175 1.04127 54.5266C0.239568 53.5357 -0.0944643 52.8406 0.117166 52.5882C0.328875 52.3359 1.07157 52.5443 2.18657 53.1617C3.30166 53.7795 4.69744 54.7575 6.06987 55.8749C8.83432 58.1263 11.5993 60.3781 14.3572 62.6379C17.7167 65.3906 21.0662 68.1555 24.3931 70.9471C26.7204 72.9 29.0427 74.8589 31.361 76.8225C31.5996 77.0247 31.8383 77.227 32.0768 77.4293C34.0841 79.0077 36.083 80.5886 37.4747 81.7222C38.6239 82.6581 39.4237 83.3857 40.1087 84.0088C40.5801 84.4376 40.9972 84.817 41.4362 85.1807C41.6719 85.376 41.9955 85.641 42.3857 85.9605C43.0055 86.4682 43.7938 87.1138 44.6666 87.8375L42.5286 88.0246C43.665 86.6541 44.994 85.0753 46.284 83.6132C47.2208 82.5513 48.331 81.336 49.3909 80.1757C50.9063 78.5166 52.3195 76.9695 52.9781 76.1425C54.1347 74.6902 55.5337 73.0856 56.7698 71.6677C57.949 70.3154 58.9802 69.1326 59.5118 68.4137C60.1469 67.5548 60.7518 66.8755 61.651 65.8654C62.2747 65.1648 63.0401 64.3049 64.0556 63.1155C65.2281 61.7425 66.0844 60.7935 66.8122 59.9869C67.8365 58.8517 68.6072 57.9976 69.6503 56.636C70.8091 55.1236 72.0467 53.5651 73.0742 52.382C73.5423 51.8432 74.0647 51.2159 74.6083 50.5633C75.328 49.6993 76.0849 48.7905 76.8023 47.9828C77.3934 47.3172 77.9152 46.7949 78.3769 46.3327C78.5209 46.1885 78.6591 46.05 78.7917 45.915C79.0522 45.6039 79.3126 45.2926 79.5728 44.9813L79.6724 46.1192C79.4399 45.9249 79.2074 45.7307 78.9748 45.5366C78.8802 45.4707 78.7805 45.4019 78.6765 45.33C78.1545 44.969 77.5128 44.5251 76.7528 43.9344C75.5499 42.9996 74.5496 42.1136 73.4945 41.1787C72.673 40.4509 71.8184 39.6935 70.8088 38.8608C70.1204 38.293 69.3252 37.6599 68.537 37.0323C67.3663 36.1002 66.2104 35.1796 65.4395 34.5014C65.1507 34.2473 64.9233 34.004 64.6983 33.7631C64.6974 33.762 64.6964 33.7609 64.6955 33.7598C64.6802 33.7434 64.6648 33.7271 64.6495 33.7107C62.715 32.1274 60.7783 30.5463 58.8406 28.9668C58.668 28.8355 58.4938 28.7025 58.3212 28.5708C57.4777 27.927 56.6582 27.3014 56.1003 26.9215C55.4958 26.5098 54.0668 25.3662 52.5608 24.1612C51.5747 23.372 50.5551 22.5561 49.7126 21.9022C49.2201 21.5199 48.7939 21.1083 48.3555 20.6847C47.9464 20.2895 47.5265 19.8838 47.0322 19.4822C46.7846 19.2811 46.5097 19.0728 46.2163 18.8505C45.9579 18.6548 45.6848 18.4479 45.4036 18.2257C45.1424 18.0191 44.5889 17.5253 43.8791 16.8923C43.4405 16.5011 42.942 16.0567 42.4159 15.5937C40.9807 14.4231 39.546 13.2515 38.1127 12.0788C37.7934 11.8583 37.5063 11.6789 37.2642 11.5546C37.0905 11.4655 36.933 11.4009 36.7714 11.3345C36.5514 11.2441 36.3239 11.1505 36.0382 10.9883C35.8149 10.8616 35.5749 10.6843 35.4341 10.541C35.4276 10.5344 35.4214 10.5279 35.4153 10.5215L38.2135 10.2767C38.1547 10.3321 38.102 10.3714 38.0538 10.4073C37.9925 10.453 37.9379 10.4939 37.8861 10.5562C37.8488 10.6012 37.8193 10.6558 37.7827 10.7228C37.7243 10.8298 37.6482 10.9687 37.4971 11.1505C36.9348 11.8271 36.2844 12.5867 35.6472 13.3308C34.9387 14.1583 34.2462 14.9671 33.708 15.6229C33.1051 16.3575 32.1994 17.3652 31.2922 18.3747C30.6594 19.0789 30.0258 19.7843 29.4932 20.3986C28.9713 21.0007 28.4576 21.6526 27.9603 22.284C27.3634 23.0419 26.7893 23.7709 26.2517 24.3487C26.1429 24.4655 25.9774 24.585 25.7698 24.735C25.6227 24.8413 25.4536 24.9638 25.2696 25.1104C24.6247 25.879 23.9781 26.6464 23.3303 27.4125C23.3127 27.444 23.2946 27.4763 23.2765 27.5088C23.2763 27.5094 23.276 27.5099 23.2758 27.5105C22.8681 28.2441 22.31 29.2479 21.1921 30.3781C20.908 30.6653 20.6983 30.8203 20.5094 30.96C20.3239 31.0972 20.1581 31.2198 19.9617 31.4381C19.7386 31.686 19.511 32.0088 19.2628 32.3606C18.9143 32.8545 18.5251 33.4063 18.0508 33.8897C18.0184 33.9227 17.9836 33.9581 17.9474 33.9951C17.6041 34.346 17.096 34.8654 16.5473 35.3461C15.1497 36.9655 13.748 38.5818 12.344 40.1959C10.0037 42.8864 7.6561 45.5718 5.30924 48.2564C4.16715 49.5622 2.98175 50.7389 2.00743 51.5224C1.0328 52.3058 0.350449 52.6329 0.1029 52.4252C-0.144563 52.2174 0.0592628 51.4887 0.661403 50.393C1.2638 49.2974 2.21681 47.9257 3.30451 46.5742C5.07863 44.3708 6.85327 42.1666 8.631 39.9658C8.72116 39.8479 8.81189 39.7296 8.9025 39.6122C9.5766 38.7384 10.1646 37.8962 10.7529 37.0534C10.888 36.8598 11.0234 36.6658 11.1597 36.4717Z" fill="#0E0626"/>
<path d="M36.9734 40.094C41.971 44.2875 42.6228 51.738 38.4294 56.7355C34.2359 61.7331 26.7855 62.3849 21.7879 58.1915C16.7904 53.998 16.1385 46.5475 20.3319 41.55L36.9734 40.094ZM28.7099 42.7648C24.9962 43.0897 22.249 46.3637 22.5739 50.0774C22.899 53.7911 26.1729 56.5384 29.8865 56.2135C33.6001 55.8885 36.3473 52.6144 36.0226 48.9008C35.6976 45.1872 32.4236 42.44 28.7099 42.7648Z" fill="#F5F5F5"/>
<path d="M41.6742 40.247C45.8676 35.2494 53.3191 34.5975 58.3167 38.7909C63.3141 42.9844 63.9661 50.4359 59.7727 55.4334L43.1302 56.8894C38.1326 52.696 37.4807 45.2445 41.6742 40.247ZM50.2279 40.8818C46.5141 41.2067 43.767 44.4807 44.0919 48.1944C44.4168 51.9081 47.6907 54.6553 51.4045 54.3304C55.118 54.0053 57.8654 50.7314 57.5405 47.0178C57.2156 43.3042 53.9415 40.5571 50.2279 40.8818Z" fill="#F5F5F5"/>
<path d="M12.7191 34.5898C12.7191 34.5898 19.9579 5.15465 34.73 3.55577C42.4508 2.72009 49.8171 9.74962 55.0756 16.6211C86.4141 18.5367 88.9922 24.7149 33.1844 32.2851L12.7191 34.5898Z" fill="#0A8AE6"/>
<path d="M16.1778 21.7624C16.5993 20.584 17.6559 18.4359 18.2984 17.2758C18.3099 17.2545 18.3215 17.2332 18.3331 17.2119C18.4833 16.9365 18.625 16.6751 18.794 16.3697C19.2024 15.6489 19.7292 14.6535 21.0669 12.7186C21.4434 12.1521 21.8413 11.5848 22.2494 11.038C25.1937 7.10083 29.2913 3.26174 34.6389 2.71443C37.1585 2.45484 39.6794 3.02266 41.907 4.0248C41.9945 4.0624 42.0842 4.10173 42.173 4.14149C43.9093 4.89949 45.8527 6.18382 46.9753 7.09881C48.4067 8.25395 49.2899 9.13278 50.0052 9.85561C52.0266 11.8474 53.8492 14.0156 55.5416 16.2645L55.1114 16.0354C58.0859 16.2435 61.0271 16.4936 63.9656 16.83C65.7271 17.0327 67.5609 17.2759 69.3324 17.5787C71.012 17.8703 72.6182 18.1906 74.241 18.7C75.2442 19.018 76.0619 19.2905 76.9111 19.8987C77.0232 19.9806 77.2055 20.1373 77.3248 20.2701C77.4529 20.4127 77.5547 20.5423 77.6603 20.7543C77.8578 21.1461 77.8731 21.623 77.7231 22.0184C77.4405 22.722 76.9913 23.063 76.5742 23.39C74.7178 24.7008 72.3356 25.3904 70.629 25.9191C70.3493 26.0021 70.0765 26.0807 69.8181 26.154C68.479 26.5599 67.0578 26.9438 65.7054 27.2853C65.6102 27.3019 65.5137 27.3184 65.415 27.3351C64.1908 27.5413 62.7114 27.885 60.472 28.3523C59.4653 28.5619 58.29 28.7984 56.942 29.0495C56.0579 29.2141 55.5667 29.2699 55.1893 29.3113C55.0832 29.3226 54.9833 29.3332 54.8821 29.3454C54.5351 29.3875 54.1739 29.4763 53.74 29.5815C53.1765 29.718 52.4919 29.8821 51.5391 30.0078C48.7255 30.3677 47.3093 30.6722 46.4249 30.8771C46.1493 30.9394 45.8975 30.9959 45.6369 31.0461C44.8047 31.2073 43.5134 31.3766 42.6123 31.4716C41.9007 31.5471 40.4597 31.7935 39.3306 31.9976C38.9087 32.0742 38.3066 32.1614 37.671 32.2521C36.9965 32.3485 36.2062 32.4601 35.347 32.5965C34.5358 32.7253 33.8544 32.8315 33.2707 32.9217L33.2563 32.9235C32.3064 33.0488 31.6387 33.1362 31.0595 33.212C30.796 33.2465 30.5505 33.2785 30.3052 33.3107C29.5302 33.4124 28.5678 33.5327 27.5935 33.6544C26.4274 33.8001 25.244 33.9479 24.3444 34.0687C22.005 34.3115 19.6648 34.5496 17.3251 34.7876C16.1233 34.9098 14.9632 34.9661 14.1008 34.9407C13.2385 34.9151 12.7441 34.8109 12.7256 34.6473C12.7072 34.4836 13.1662 34.2721 14.0011 34.0554C14.8363 33.8388 15.9798 33.6356 17.1787 33.4874C19.5939 33.1891 22.0097 32.8907 24.4258 32.5977C27.3175 32.2469 30.2102 31.9038 33.1047 31.5772L33.0886 31.5792C33.1416 31.572 33.1945 31.5648 33.2474 31.5576C35.3919 31.266 37.3044 31.0018 39.4306 30.6998C39.6452 30.6694 39.8588 30.639 40.0714 30.6086C41.7919 30.3155 43.4619 30.0242 44.7046 29.8173C45.7066 29.6502 46.4199 29.5583 47.0255 29.4796C47.4382 29.4261 47.8553 29.3698 48.2405 29.3048C48.4504 29.2695 48.7358 29.22 49.0758 29.1605C50.4251 28.9251 52.8462 28.4899 54.9128 28.1483C55.8851 27.9874 57.0214 27.8073 58.0378 27.6409C59.552 27.392 60.9798 27.1362 61.6334 26.9809C62.9531 26.672 64.23 26.4026 65.5574 26.096C66.7189 25.8297 67.7849 25.5603 68.3512 25.3743C68.9981 25.1604 69.6492 24.9881 70.508 24.7397C71.0529 24.5824 71.9053 24.3245 72.8267 23.9794C73.9995 23.5366 74.7468 23.2007 75.3639 22.8614C76.1348 22.4384 77.021 21.7729 76.7017 21.2024C76.2167 20.44 74.7778 19.9849 73.8075 19.6531C73.4024 19.5181 72.8043 19.3538 72.2858 19.2296C71.5682 19.0556 70.7662 18.8909 70.0601 18.7436C69.4431 18.6158 68.9844 18.5065 68.5539 18.4081C68.4199 18.3775 68.2898 18.3484 68.1623 18.321C67.6689 18.2446 67.2004 18.1771 66.7332 18.1135C66.6561 18.1081 66.5747 18.1027 66.4892 18.0971C66.0714 18.0702 65.4839 18.0307 64.8727 17.9759C63.8665 17.8845 62.9164 17.766 61.9946 17.6572C61.2579 17.5707 60.4521 17.4824 59.5904 17.4168C58.9961 17.3714 58.2688 17.3279 57.5964 17.2923C56.6836 17.2438 55.7488 17.2004 55.0433 17.1507L54.7949 17.1323L54.6542 16.9436C54.6184 16.8958 54.5837 16.8494 54.5503 16.8044C54.3956 16.5958 54.273 16.4057 54.1518 16.219C54.1513 16.2182 54.1508 16.2174 54.1503 16.2165C54.1421 16.2039 54.1338 16.1912 54.1256 16.1786C53.0661 14.857 51.9564 13.5757 50.7878 12.3567C50.6838 12.2535 50.5785 12.1497 50.4737 12.0473C49.9618 11.5465 49.4517 11.0747 49.1029 10.7863C48.7253 10.4724 47.8169 9.64231 46.804 8.8455C46.1415 8.3213 45.4365 7.81302 44.8417 7.42949C44.4936 7.20441 44.1801 6.97465 43.847 6.74348C43.5392 6.52983 43.2144 6.3152 42.8449 6.11906C42.6578 6.01978 42.4524 5.92112 42.2331 5.82115C42.0391 5.73272 41.8316 5.64204 41.6168 5.54946C41.4162 5.46334 40.9789 5.25276 40.3995 5.02578C40.0429 4.886 39.6327 4.74097 39.1935 4.61396C38.0279 4.31193 36.8304 4.16667 35.6445 4.21602C35.3968 4.24192 35.1863 4.28041 35.0202 4.32552C34.9481 4.34516 34.883 4.36644 34.8202 4.38878C34.7793 4.40329 34.7394 4.41825 34.6993 4.43356C34.5607 4.48666 34.4191 4.54328 34.2244 4.60573C34.0722 4.65444 33.8921 4.69875 33.7683 4.71536C33.7105 4.72301 33.6652 4.72437 33.624 4.72581C33.5769 4.72745 33.5342 4.72933 33.4847 4.74138C33.449 4.7501 33.4133 4.76519 33.3696 4.78391C33.2997 4.8139 33.2093 4.85295 33.0668 4.89354C32.5358 5.0444 31.9441 5.25274 31.3754 5.50642C30.7477 5.78415 30.1446 6.12025 29.6934 6.41224C29.1793 6.7411 28.458 7.22581 27.7642 7.78455C27.2892 8.16392 26.813 8.58711 26.4364 8.95401C26.0627 9.31713 25.692 9.73091 25.3533 10.133C24.9418 10.6204 24.5635 11.1048 24.2254 11.5033C24.1569 11.5841 24.0562 11.6726 23.9305 11.7855C23.8415 11.8654 23.7387 11.9591 23.6288 12.0673C23.2307 12.6007 22.84 13.1549 22.4675 13.7101C22.4572 13.7316 22.4466 13.7538 22.436 13.7762C22.4359 13.7765 22.4357 13.7769 22.4356 13.7773C22.1962 14.2824 21.8793 14.9707 21.2826 15.851C21.131 16.0751 21.0194 16.207 20.919 16.3262C20.8205 16.4434 20.7327 16.5485 20.6313 16.718C20.5161 16.9107 20.4025 17.149 20.2797 17.4121C20.1075 17.7808 19.9201 18.1936 19.6892 18.5841C19.6734 18.6108 19.6565 18.6392 19.6387 18.6695C19.4705 18.9555 19.2253 19.3799 18.963 19.7909C18.3134 21.0886 17.7121 22.3877 17.1339 23.727C16.182 25.9324 15.3117 28.2072 14.535 30.4989C14.1578 31.6106 13.7662 32.6612 13.4248 33.4303C13.0829 34.199 12.8197 34.615 12.6629 34.576C12.5059 34.5377 12.4681 34.0377 12.5789 33.193C12.6895 32.3481 12.9409 31.2367 13.2896 30.0977C13.8662 28.2161 14.487 26.3921 15.18 24.5643C15.2141 24.4689 15.2487 24.3728 15.2837 24.2769C15.5482 23.5538 15.7708 22.8988 16.0127 22.2212C16.0688 22.0642 16.1217 21.9161 16.1778 21.7624Z" fill="#0E0626"/>
</svg>
