<svg width="212" height="218" viewBox="0 0 212 218" fill="none" xmlns="http://www.w3.org/2000/svg">
<rect width="212" height="218" rx="16" fill="#A980FF"/>
<path d="M99.0009 29L26 115.999L112.999 189L186 102.001L99.0009 29Z" fill="#0E0626"/>
<path d="M47.9363 83.9434C50.0084 80.9921 54.5583 75.7665 57.0611 72.8919C57.1069 72.8391 57.1527 72.7862 57.1985 72.7334C57.7925 72.0512 58.3456 71.3986 58.9935 70.6337C60.5384 68.8099 62.6257 66.3459 67.1092 61.3097C68.3641 59.8029 69.6218 58.2978 70.8823 56.7956C79.3172 46.7433 87.8278 36.7546 96.3765 26.7979C97.5959 25.2916 99.6968 25.1562 101.203 26.3756C107.315 31.6233 113.415 36.8853 119.51 42.153C119.716 42.3237 119.926 42.4973 120.137 42.6728C124.227 46.0625 129.298 50.2659 132.395 53.0126C136.334 56.5047 138.985 58.9039 141.16 60.8786C153.886 71.881 166.629 82.8633 179.456 93.7457C182.079 95.9711 184.705 98.1924 187.336 100.409C188.25 101.149 188.332 102.423 187.592 103.337C186.412 104.738 185.232 106.141 184.055 107.544C180.934 111.263 177.82 114.989 174.714 118.72C172.948 120.929 171.282 123.04 169.736 124.997C167.565 127.747 165.631 130.195 163.999 132.188C160.066 136.989 155.453 142.307 152.027 146.257C151.467 146.903 150.938 147.512 150.45 148.076C147.814 151.284 145.179 154.494 142.546 157.704C142.348 157.9 142.148 158.097 141.944 158.297C139.404 160.79 136.607 164.13 132.205 169.387C130.288 171.676 128.065 174.329 125.428 177.434C123.728 179.434 122.757 180.38 121.963 181.153C121.73 181.38 121.511 181.593 121.294 181.813C120.552 182.567 119.907 183.477 119.146 184.552C118.158 185.948 116.973 187.622 115.121 189.593C114.908 189.818 114.701 190.04 114.498 190.258C113.802 191.118 112.602 191.196 111.741 190.499C105.903 185.063 102.926 182.975 100.654 181.381C99.9631 180.896 99.3366 180.457 98.7151 179.983C96.6996 178.446 94.0124 176.038 92.0279 174.163C90.4543 172.675 87.0603 169.993 84.4444 168.008C83.4554 167.258 82.1698 166.181 80.6558 164.913C79.0891 163.6 77.2766 162.081 75.2947 160.507C70.286 156.53 67.6295 154.411 65.494 152.706C64.8852 152.22 64.3184 151.767 63.7517 151.316C61.9608 149.888 59.7538 148.098 57.5194 146.285C54.8455 144.116 52.1316 141.914 50.0454 140.265C44.8194 135.773 39.6054 131.265 34.3923 126.759C31.7149 124.444 29.3034 122.035 27.6994 120.053C26.096 118.071 25.428 116.681 25.8512 116.176C26.2746 115.672 27.76 116.089 29.99 117.323C32.2202 118.559 35.0118 120.515 37.7566 122.75C43.2855 127.253 48.8155 131.756 54.3313 136.276C61.0503 141.781 67.7494 147.311 74.4031 152.894C79.0577 156.8 83.7024 160.718 88.3388 164.645C88.8162 165.049 89.2934 165.454 89.7706 165.859C93.7851 169.015 97.7828 172.177 100.566 174.444C102.865 176.316 104.464 177.771 105.834 179.018C106.777 179.875 107.611 180.634 108.489 181.361C108.961 181.752 109.608 182.282 110.388 182.921C111.628 183.936 113.205 185.228 114.95 186.675L110.674 187.049C112.947 184.308 115.605 181.151 118.185 178.226C120.059 176.103 122.279 173.672 124.399 171.351C127.43 168.033 130.256 164.939 131.573 163.285C133.886 160.38 136.684 157.171 139.157 154.335C141.515 151.631 143.577 149.265 144.64 147.827C145.911 146.11 147.12 144.751 148.919 142.731C150.166 141.33 151.697 139.61 153.728 137.231C156.073 134.485 157.786 132.587 159.241 130.974C161.29 128.703 162.831 126.995 164.918 124.272C167.235 121.247 169.71 118.13 171.765 115.764C172.701 114.686 173.746 113.432 174.833 112.127C176.273 110.399 177.787 108.581 179.221 106.966C180.404 105.634 181.447 104.59 182.371 103.665C182.659 103.377 182.935 103.1 183.2 102.83C183.721 102.208 184.242 101.585 184.762 100.963L184.962 103.238C184.497 102.85 184.032 102.461 183.566 102.073C183.377 101.941 183.178 101.804 182.97 101.66C181.926 100.938 180.642 100.05 179.122 98.8689C176.717 96.9993 174.716 95.2271 172.606 93.3575C170.963 91.9018 169.254 90.387 167.234 88.7216C165.858 87.5859 164.267 86.3197 162.691 85.0645C160.35 83.2004 158.038 81.3592 156.496 80.0028C155.918 79.4946 155.463 79.008 155.014 78.5263C155.012 78.524 155.01 78.5218 155.008 78.5196C154.977 78.4869 154.947 78.4541 154.916 78.4214C151.047 75.2548 147.173 72.0927 143.298 68.9336C142.953 68.6709 142.604 68.4051 142.259 68.1416C140.572 66.8539 138.933 65.6027 137.818 64.8429C136.608 64.0195 133.75 61.7324 130.739 59.3223C128.766 57.7441 126.727 56.1122 125.042 54.8044C124.057 54.0398 123.205 53.2165 122.328 52.3694C121.51 51.5791 120.67 50.7676 119.681 49.9645C119.186 49.5622 118.636 49.1456 118.049 48.701C117.533 48.3096 116.987 47.8959 116.424 47.4513C115.902 47.0382 114.795 46.0506 113.375 44.7845C112.498 44.0021 111.501 43.1133 110.449 42.1874C107.578 39.8463 104.709 37.5031 101.842 35.1576C101.204 34.7166 100.63 34.3578 100.145 34.1092C99.7979 33.9309 99.4828 33.8019 99.1596 33.669C98.7198 33.4882 98.2647 33.301 97.6933 32.9767C97.2467 32.7231 96.7666 32.3686 96.485 32.082C96.4721 32.0688 96.4596 32.0559 96.4476 32.043L102.044 31.5534C101.926 31.6643 101.821 31.7428 101.724 31.8147C101.602 31.9061 101.493 31.9877 101.389 32.1125C101.315 32.2025 101.255 32.3116 101.182 32.4456C101.066 32.6595 100.913 32.9374 100.611 33.301C99.4864 34.6542 98.1856 36.1735 96.9113 37.6617C95.4942 39.3166 94.1092 40.9343 93.0329 42.2458C91.8272 43.715 90.0156 45.7304 88.2013 47.7493C86.9357 49.1578 85.6685 50.5686 84.6033 51.7973C83.5594 53.0013 82.5321 54.3051 81.5375 55.5679C80.3437 57.0837 79.1955 58.5419 78.1202 59.6974C77.9028 59.931 77.5716 60.17 77.1565 60.47C76.8622 60.6826 76.5241 60.9277 76.1561 61.2209C74.8663 62.758 73.573 64.2928 72.2774 65.8251C72.2423 65.8879 72.2061 65.9526 72.1699 66.0177C72.1695 66.0188 72.169 66.0199 72.1685 66.021C71.353 67.4882 70.2369 69.4959 68.0012 71.7561C67.4328 72.3307 67.0134 72.6407 66.6357 72.92C66.2647 73.1944 65.933 73.4396 65.5402 73.8762C65.0941 74.3721 64.6389 75.0176 64.1425 75.7211C63.4456 76.709 62.6671 77.8125 61.7185 78.7793C61.6538 78.8453 61.584 78.9162 61.5116 78.9902C60.8251 79.6919 59.809 80.7308 58.7115 81.6922C55.9162 84.931 53.1128 88.1636 50.3048 91.3918C45.6242 96.7728 40.9291 102.144 36.2354 107.513C33.9512 110.124 31.5804 112.478 29.6317 114.045C27.6825 115.612 26.3178 116.266 25.8227 115.85C25.3278 115.435 25.7354 113.977 26.9397 111.786C28.1445 109.595 30.0505 106.851 32.2259 104.148C35.7741 99.7415 39.3234 95.3332 42.8789 90.9315C43.0592 90.6957 43.2407 90.4593 43.4219 90.2244C44.7701 88.4768 45.946 86.7924 47.1227 85.1067C47.393 84.7195 47.6637 84.3316 47.9363 83.9434Z" fill="#0E0626"/>
<path d="M82.3193 85.7506C85.9739 85.4309 89.5065 85.962 92.7226 87.1785C92.239 87.1687 91.7501 87.1842 91.2574 87.2273C83.8299 87.8771 78.3355 94.425 78.9854 101.852C79.6352 109.28 86.1831 114.774 93.6106 114.125C101.038 113.474 106.532 106.927 105.883 99.4993C105.882 99.4957 105.881 99.4922 105.881 99.4887C106.966 101.87 107.672 104.472 107.913 107.227C109.051 120.225 99.4355 131.684 86.4374 132.821C73.4393 133.958 61.9804 124.343 60.8432 111.345C59.706 98.3467 69.3212 86.8878 82.3193 85.7506Z" fill="#F5F5F5"/>
<path d="M125.005 83.1455C127.631 82.9158 130.195 83.1248 132.623 83.7122C126.06 85.1188 121.42 91.2285 122.02 98.0875C122.67 105.515 129.218 111.009 136.646 110.36C143.391 109.769 148.541 104.315 148.943 97.7554C149.815 99.895 150.387 102.199 150.599 104.622C151.736 117.62 142.121 129.079 129.123 130.216C116.125 131.353 104.666 121.738 103.529 108.74C102.392 95.7416 112.007 84.2827 125.005 83.1455Z" fill="#F5F5F5"/>
<path d="M168.665 69.8016L40.7945 80.9888L64.7756 54.7599L65.9937 53.4276L63.4008 23.79L72.5344 22.9909L74.3935 44.2405L95.6728 20.9666L168.665 69.8016Z" fill="#0E0626"/>
<path d="M69.9011 76.5346C72.6082 76.1423 77.8597 75.7463 80.7484 75.5285C80.8014 75.5244 80.8543 75.5203 80.9073 75.5163C81.5929 75.4646 82.2409 75.41 83.0001 75.3459C84.8105 75.1931 87.2565 74.9867 92.3688 74.6385C93.8534 74.505 95.3384 74.3731 96.8234 74.2432C112.86 72.8401 128.908 71.5654 144.957 70.316C145.16 70.2975 145.366 70.2787 145.574 70.2596C149.595 69.8918 154.581 69.4358 157.719 69.2179C161.71 68.9409 164.422 68.7705 166.649 68.6334C167.283 68.5842 167.916 68.5349 168.55 68.4856L167.93 70.8995C157.896 64.046 147.854 57.2042 137.779 50.4114C134.457 48.1711 131.13 45.9359 127.799 43.7076C124.732 41.6556 121.661 39.6071 118.589 37.5628C116.784 36.3958 115.064 35.2929 113.469 34.2701C111.227 32.8329 109.231 31.5533 107.595 30.4772C103.654 27.8843 99.2388 24.861 95.9598 22.6159C95.63 22.3901 95.3115 22.172 95.0061 21.963L96.5576 21.7755C96.3999 21.9444 96.2464 22.1088 96.0977 22.2682C93.9838 24.6116 91.8705 26.9565 89.758 29.3013C89.6063 29.4481 89.4532 29.5958 89.2974 29.7458C87.3532 31.6178 85.1206 34.0629 81.6061 37.9116C80.0756 39.5876 78.3017 41.53 76.2029 43.8072C75.8015 44.2427 75.4539 44.6115 75.1476 44.93C74.4777 45.6746 73.4707 45.3266 73.3754 44.3295C73.3103 43.2845 73.296 42.6014 73.2835 42.0112C73.2783 41.7643 73.2734 41.5328 73.2653 41.2988C73.2376 40.4964 73.1184 39.6586 72.9776 38.6688C72.795 37.3847 72.5758 35.8442 72.4726 33.7927C72.1844 28.0649 71.8303 25.1627 71.5359 23.0783L72.6217 23.9893C72.3274 24.0309 72.0494 24.0713 71.782 24.1101C71.1481 24.2021 70.5736 24.2854 69.984 24.3554C68.1418 24.5739 65.5342 24.7494 63.4936 24.8516L64.4623 23.6971C64.4662 23.7742 64.47 23.8505 64.4736 23.9259C64.5531 25.5681 64.9027 28.8371 65.2003 31.3134C65.3128 32.2497 65.4247 33.5195 65.5563 35.0151C65.6924 36.5627 65.8498 38.3534 66.0515 40.2662C66.5611 45.0998 66.828 47.669 67.0423 49.7343C67.1034 50.3232 67.1601 50.8716 67.2172 51.4195C67.2781 52.0048 67.3427 52.6379 67.4097 53.3037C67.4396 53.6049 67.2444 54.1609 67.0427 54.3867C66.6567 54.8202 66.2538 55.2716 65.8409 55.7339C65.3217 56.3151 64.7866 56.9133 64.2491 57.5142C62.5044 59.4648 60.7336 61.4445 59.3985 62.962C55.8339 66.8001 52.2619 70.6319 48.6906 74.4631C46.8559 76.4308 45.0051 78.2362 43.5418 79.4758C42.0785 80.715 41.1231 81.289 40.8799 81.0669C40.6369 80.8446 41.1233 79.8416 42.2268 78.2735C43.3307 76.7052 44.9633 74.7003 46.7592 72.6972C50.3775 68.6622 53.9966 64.6263 57.6232 60.5981C59.6606 58.3351 61.7005 56.0743 63.7443 53.817C64.1482 53.3709 64.5522 52.9249 64.9564 52.4791L64.5935 53.5501C64.3237 50.6066 64.0591 47.6626 63.8015 44.7181C63.3989 40.1171 63.0042 35.5151 62.6157 30.9127C62.5757 30.4389 62.5359 29.965 62.496 29.4912C62.2893 27.5878 62.0846 25.686 61.8984 23.9214C61.8339 23.0708 62.4187 22.3522 63.2693 22.2877C65.0816 22.0965 66.7493 21.925 68.1253 21.7913C69.8512 21.6235 71.2201 21.5256 72.3996 21.4503C73.2719 21.3842 74.0088 21.9838 74.075 22.8561C74.0975 23.2092 74.118 23.5452 74.1377 23.8688C74.1967 24.8353 74.2489 25.6905 74.328 26.5535C74.3705 27.017 74.4309 27.6499 74.5037 28.4132C74.801 31.5296 75.3059 36.8226 75.6498 41.6614C75.7052 42.4409 75.7601 43.2666 75.8144 44.1162L73.3407 43.278C74.3741 42.1997 75.4629 41.073 76.5199 39.9794C78.8927 37.5242 81.1053 35.2348 82.1695 34.0307C84.0383 31.9162 86.2515 29.5553 88.2071 27.4692C90.0724 25.4793 91.7038 23.739 92.5787 22.7008C93.3108 21.832 93.9974 21.0801 94.8296 20.1956C95.206 19.7934 95.8538 19.7053 96.3081 20.017C96.7357 20.312 97.1913 20.6297 97.6965 20.9819C98.8659 21.7974 100.301 22.798 102.27 24.1312C104.542 25.6705 106.131 26.7885 107.481 27.7388C109.381 29.0763 110.811 30.0826 113.018 31.4679C115.47 33.0068 118.014 34.6439 119.979 35.9906C120.874 36.6039 121.907 37.2916 122.982 38.007C124.405 38.9542 125.902 39.9505 127.249 40.8886C128.36 41.6616 129.253 42.3366 130.044 42.9338C130.291 43.1201 130.528 43.2988 130.758 43.4706C131.654 44.0691 132.55 44.6673 133.447 45.2649C133.598 45.3534 133.756 45.4459 133.922 45.5426C134.753 46.0277 135.775 46.6243 137.011 47.4074C138.966 48.6469 140.634 49.8059 142.393 51.0287C143.763 51.9808 145.189 52.9714 146.848 54.0685C147.98 54.8166 149.278 55.6539 150.565 56.4838C152.477 57.7164 154.365 58.9338 155.648 59.8215C156.129 60.1541 156.524 60.467 156.916 60.7768C156.917 60.7782 156.919 60.7796 156.921 60.781C156.947 60.8021 156.974 60.8231 157.001 60.8441C160.176 62.9319 163.354 65.0172 166.532 67.1008C166.811 67.2753 167.093 67.4519 167.373 67.627C168.044 68.0472 168.706 68.4616 169.311 68.8351C170.321 69.5194 169.982 70.8611 168.766 70.96C168.036 71.0508 167.38 71.1374 166.866 71.2169C165.77 71.3863 163.003 71.6711 160.086 71.9713C158.177 72.1679 156.202 72.3711 154.592 72.5528C153.65 72.659 152.751 72.6961 151.827 72.7341C150.964 72.7697 150.078 72.8062 149.115 72.9006C148.632 72.9479 148.112 73.0106 147.557 73.0776C147.068 73.1365 146.551 73.1989 146.009 73.2568C145.506 73.3106 144.381 73.3864 142.939 73.4838C142.048 73.544 141.035 73.6125 139.973 73.6889C137.17 73.9599 134.367 74.23 131.565 74.4982C130.983 74.5856 130.479 74.6769 130.083 74.7723C129.798 74.8407 129.557 74.9138 129.31 74.9887C128.973 75.0905 128.624 75.1958 128.14 75.2978C127.762 75.3776 127.312 75.4354 127.008 75.4427C126.866 75.4461 126.756 75.4387 126.656 75.4321C126.542 75.4244 126.44 75.4177 126.318 75.4289C126.229 75.437 126.138 75.4574 126.026 75.4823C125.847 75.5221 125.615 75.5736 125.257 75.606C123.925 75.7266 122.409 75.8492 120.925 75.9693C119.274 76.1027 117.661 76.2333 116.377 76.3549C114.939 76.4912 112.884 76.6246 110.826 76.7585C109.39 76.8519 107.952 76.9456 106.719 77.0403C105.512 77.1331 104.258 77.2684 103.043 77.3997C101.585 77.5572 100.183 77.7089 98.986 77.773C98.7439 77.7859 98.4398 77.7623 98.0582 77.7329C97.7878 77.712 97.4767 77.6883 97.1234 77.6723C95.6039 77.8052 94.0839 77.9361 92.5641 78.0653C92.5112 78.0767 92.4566 78.0884 92.4019 78.1003C92.401 78.1005 92.4002 78.1008 92.3993 78.101C91.1652 78.3688 89.4763 78.7352 87.0656 78.8157C86.4528 78.8361 86.0635 78.8089 85.7128 78.7845C85.3684 78.7605 85.0605 78.739 84.6152 78.7678C84.1093 78.8005 83.5163 78.8857 82.8697 78.9784C81.9618 79.1085 80.9477 79.254 79.9206 79.291C79.8504 79.2936 79.775 79.2962 79.6965 79.2991C78.9521 79.3267 77.85 79.3676 76.7484 79.3522C73.5065 79.6059 70.2637 79.8547 67.021 80.1003C61.6158 80.5096 56.2087 80.9101 50.8033 81.3106C48.1734 81.505 45.641 81.5743 43.7624 81.495C41.8836 81.4153 40.8126 81.1954 40.7844 80.8735C40.7564 80.5516 41.773 80.1492 43.6092 79.7446C45.4456 79.3402 47.9514 78.9688 50.5752 78.7035C54.8536 78.2717 59.1334 77.8397 63.4127 77.4123C63.6367 77.3859 63.8616 77.3597 64.0855 77.334C65.7516 77.1428 67.2931 76.9167 68.8357 76.6903C69.1901 76.6383 69.5451 76.5862 69.9011 76.5346Z" fill="#0E0626"/>
</svg>
