<svg width="46" height="34" viewBox="0 0 46 34" fill="none" xmlns="http://www.w3.org/2000/svg">
<path d="M38.4072 6.19704C44.3198 8.95413 46.8777 15.9821 44.1207 21.8947L28.423 27.6082C22.5105 24.851 19.9525 17.8231 22.7096 11.9105L38.4072 6.19704ZM31.1352 10.3102C27.6322 11.5853 25.8259 15.4587 27.1009 18.9618C28.376 22.4647 32.2495 24.271 35.7525 22.996C39.2555 21.7211 41.0616 17.8475 39.7867 14.3445C38.5117 10.8414 34.6383 9.03517 31.1352 10.3102Z" fill="#F5F5F5"/>
<path d="M22.5206 11.9104C25.2777 17.823 22.7198 24.8509 16.8072 27.608L1.10952 21.8945C-1.64747 15.9819 0.910415 8.95397 6.82299 6.1969L22.5206 11.9104ZM14.3061 10.3869C10.803 9.11203 6.92949 10.9181 5.6545 14.4212C4.37968 17.9241 6.18594 21.7976 9.68879 23.0727C13.1918 24.3477 17.0652 22.5414 18.3404 19.0384C19.6154 15.5353 17.8092 11.6619 14.3061 10.3869Z" fill="#F5F5F5"/>
</svg>
