<svg width="45" height="34" viewBox="0 0 45 34" fill="none" xmlns="http://www.w3.org/2000/svg">
<path d="M24.8345 8.52226C29.4476 3.90919 36.9275 3.90919 41.5406 8.52226C46.1534 13.1352 46.1533 20.6143 41.5406 25.2273H24.8345C20.2219 20.6143 20.2218 13.1352 24.8345 8.52226ZM33.3004 9.90018C29.5724 9.90018 26.5504 12.9223 26.5504 16.6502C26.5505 20.378 29.5725 23.4002 33.3004 23.4002C37.0281 23.4 40.0503 20.3779 40.0504 16.6502C40.0504 12.9224 37.0282 9.90034 33.3004 9.90018Z" fill="#F5F5F5"/>
<path d="M3.45954 8.52226C8.07261 3.90919 15.5525 3.90919 20.1656 8.52226C24.7784 13.1352 24.7783 20.6143 20.1656 25.2273H3.45954C-1.15311 20.6143 -1.15325 13.1352 3.45954 8.52226ZM11.9254 9.90018C8.19744 9.90018 5.17536 12.9223 5.17536 16.6502C5.17546 20.378 8.1975 23.4002 11.9254 23.4002C15.6531 23.4 18.6753 20.3779 18.6754 16.6502C18.6754 12.9224 15.6532 9.90034 11.9254 9.90018Z" fill="#F5F5F5"/>
</svg>
