<svg width="46" height="34" viewBox="0 0 46 34" fill="none" xmlns="http://www.w3.org/2000/svg">
<path d="M41.7648 8.55C46.3779 13.1631 46.3778 20.642 41.7648 25.2551H25.0597C20.4468 20.642 20.4467 13.163 25.0597 8.55H41.7648ZM33.5246 9.92793C29.7968 9.92808 26.7746 12.9501 26.7746 16.6779C26.7747 20.4056 29.7968 23.4278 33.5246 23.4279C37.2524 23.4279 40.2744 20.4057 40.2746 16.6779C40.2746 12.95 37.2525 9.92793 33.5246 9.92793Z" fill="#F5F5F5"/>
<path d="M20.1648 8.55C24.7779 13.1631 24.7779 20.642 20.1648 25.2551H3.45974C-1.15321 20.642 -1.15329 13.163 3.45974 8.55H20.1648ZM11.9246 9.92793C8.19678 9.92808 5.17458 12.9501 5.17458 16.6779C5.17472 20.4057 8.19687 23.4278 11.9246 23.4279C15.6524 23.4279 18.6745 20.4057 18.6746 16.6779C18.6746 12.95 15.6525 9.92793 11.9246 9.92793Z" fill="#F5F5F5"/>
</svg>
