<svg width="45" height="34" viewBox="0 0 45 34" fill="none" xmlns="http://www.w3.org/2000/svg">
<path d="M16.9326 5.66406C16.692 5.6381 16.4477 5.62501 16.2002 5.625C12.4723 5.625 9.4502 8.64708 9.4502 12.375C9.4502 16.1029 12.4723 19.125 16.2002 19.125C19.8114 19.1249 22.7605 16.289 22.9414 12.7227L22.9502 12.375C23.3857 13.6068 23.625 14.9316 23.625 16.3125C23.625 22.8364 18.3364 28.125 11.8125 28.125C5.28864 28.125 0 22.8364 0 16.3125C0 9.78864 5.28864 4.5 11.8125 4.5C13.6469 4.5 15.3837 4.91792 16.9326 5.66406Z" fill="#F5F5F5"/>
<path d="M33.1875 5.0625C34.5049 5.0625 35.7708 5.28173 36.9541 5.67969C33.6256 6.09597 31.0498 8.93366 31.0498 12.375C31.0498 16.1029 34.072 19.1249 37.7998 19.125C41.1849 19.125 43.9876 16.6332 44.4746 13.3838C44.8155 14.4873 45 15.6596 45 16.875C45 23.3989 39.7114 28.6875 33.1875 28.6875C26.6636 28.6875 21.375 23.3989 21.375 16.875C21.375 10.3511 26.6636 5.0625 33.1875 5.0625Z" fill="#F5F5F5"/>
</svg>
