<svg width="45" height="34" viewBox="0 0 45 34" fill="none" xmlns="http://www.w3.org/2000/svg">
<path d="M11.8125 4.5C18.3364 4.5 23.625 9.78864 23.625 16.3125C23.625 22.8364 18.3364 28.125 11.8125 28.125C5.28864 28.125 0 22.8364 0 16.3125C0 15.157 0.168222 14.0409 0.477539 12.9854C0.786034 16.4273 3.67801 19.125 7.2002 19.125C10.928 19.1249 13.9502 16.1029 13.9502 12.375C13.9502 8.64714 10.928 5.62511 7.2002 5.625C7.04598 5.625 6.89285 5.63142 6.74121 5.6416C8.27788 4.91 9.99724 4.5 11.8125 4.5Z" fill="#F5F5F5"/>
<path d="M33.1875 5.0625C39.7114 5.0625 45 10.3511 45 16.875C45 18.0901 44.8154 19.262 44.4746 20.3652C43.9872 17.1163 41.1845 14.625 37.7998 14.625C34.072 14.6251 31.0498 17.6471 31.0498 21.375C31.0498 24.8163 33.6256 27.653 36.9541 28.0693C35.7707 28.4674 34.505 28.6875 33.1875 28.6875C26.6636 28.6875 21.375 23.3989 21.375 16.875C21.375 10.3511 26.6636 5.0625 33.1875 5.0625Z" fill="#F5F5F5"/>
</svg>
