<svg width="45" height="34" viewBox="0 0 45 34" fill="none" xmlns="http://www.w3.org/2000/svg">
<path d="M11.8125 4.5C18.3364 4.5 23.625 9.78864 23.625 16.3125C23.625 17.3844 23.4785 18.4219 23.2109 19.4092C22.133 17.1146 19.8026 15.5254 17.0996 15.5254C13.3719 15.5256 10.3496 18.5476 10.3496 22.2754C10.3497 24.6905 11.6193 26.8082 13.5264 28.001C12.9668 28.0823 12.3946 28.125 11.8125 28.125C5.28864 28.125 0 22.8364 0 16.3125C0 9.78864 5.28864 4.5 11.8125 4.5Z" fill="#F5F5F5"/>
<path d="M33.1875 5.0625C39.7114 5.0625 45 10.3511 45 16.875C45 17.7014 44.9134 18.5076 44.752 19.2861C43.6494 17.058 41.3545 15.5255 38.7002 15.5254C34.9723 15.5254 31.9502 18.5475 31.9502 22.2754C31.9503 24.9775 33.5385 27.3075 35.832 28.3857C34.9815 28.5803 34.097 28.6875 33.1875 28.6875C26.6636 28.6875 21.375 23.3989 21.375 16.875C21.375 10.3511 26.6636 5.0625 33.1875 5.0625Z" fill="#F5F5F5"/>
</svg>
