<svg width="45" height="34" viewBox="0 0 45 34" fill="none" xmlns="http://www.w3.org/2000/svg">
<path d="M11.8125 4.5C18.3364 4.5 23.625 9.78864 23.625 16.3125C23.625 22.8364 18.3364 28.125 11.8125 28.125C5.28864 28.125 0 22.8364 0 16.3125C0 15.157 0.168222 14.0409 0.477539 12.9854C0.786034 16.4273 3.67801 19.125 7.2002 19.125C10.928 19.1249 13.9502 16.1029 13.9502 12.375C13.9502 8.64714 10.928 5.62511 7.2002 5.625C7.04598 5.625 6.89285 5.63142 6.74121 5.6416C8.27788 4.91 9.99724 4.5 11.8125 4.5Z" fill="#F5F5F5"/>
<path d="M33.1875 5.0625C39.7114 5.0625 45 10.3511 45 16.875C45 23.3989 39.7114 28.6875 33.1875 28.6875C26.6636 28.6875 21.375 23.3989 21.375 16.875C21.375 15.4712 21.621 14.125 22.0703 12.876C22.3267 16.3698 25.2405 19.1249 28.7998 19.125C32.5277 19.125 35.5498 16.1029 35.5498 12.375C35.5498 8.87677 32.8888 6.00039 29.4805 5.65918C30.6466 5.27395 31.8922 5.0625 33.1875 5.0625Z" fill="#F5F5F5"/>
</svg>
