<svg width="46" height="34" viewBox="0 0 46 34" fill="none" xmlns="http://www.w3.org/2000/svg">
<path d="M44.121 11.9105C46.8781 17.8231 44.3201 24.851 38.4075 27.6081L22.7099 21.8947C19.9528 15.9821 22.5108 8.95412 28.4234 6.19703L44.121 11.9105ZM35.9064 10.387C32.4034 9.11202 28.5299 10.9182 27.2549 14.4213C25.98 17.9243 27.7862 21.7978 31.2892 23.0729C34.7922 24.3479 38.6656 22.5415 39.9407 19.0386C41.2158 15.5355 39.4095 11.662 35.9064 10.387Z" fill="#F5F5F5"/>
<path d="M16.8071 6.19706C22.7197 8.95415 25.2777 15.9821 22.5206 21.8947L6.82298 27.6082C0.910429 24.851 -1.64758 17.8231 1.10951 11.9105L16.8071 6.19706ZM9.53514 10.3102C6.03214 11.5853 4.22585 15.4587 5.50085 18.9618C6.77595 22.4647 10.6494 24.271 14.1524 22.9961C17.6554 21.7211 19.4616 17.8475 18.1867 14.3445C16.9117 10.8414 13.0382 9.03519 9.53514 10.3102Z" fill="#F5F5F5"/>
</svg>
