<svg width="45" height="34" viewBox="0 0 45 34" fill="none" xmlns="http://www.w3.org/2000/svg">
<path d="M20.1648 7.95982C24.7779 12.5729 24.7778 20.0518 20.1648 24.6649C15.5518 29.278 8.07283 29.278 3.45976 24.6649C-1.15322 20.0518 -1.15328 12.5729 3.45976 7.95982H20.1648ZM11.7 9.90025C7.97207 9.90025 4.94999 12.9223 4.94999 16.6502C4.95013 20.3781 7.97215 23.4002 11.7 23.4002C15.4277 23.4001 18.4499 20.378 18.45 16.6502C18.45 12.9224 15.4278 9.90035 11.7 9.90025Z" fill="#F5F5F5"/>
<path d="M24.8344 8.52187C29.4474 3.90881 36.9274 3.9088 41.5404 8.52187C46.1534 13.1349 46.1535 20.6149 41.5404 25.2279H24.8344C20.2213 20.6149 20.2213 13.1349 24.8344 8.52187ZM33.3002 9.8998C29.5723 9.8998 26.5502 12.9219 26.5502 16.6498C26.5502 20.3777 29.5723 23.3998 33.3002 23.3998C37.028 23.3996 40.0502 20.3776 40.0502 16.6498C40.0502 12.922 37.0279 9.89999 33.3002 9.8998Z" fill="#F5F5F5"/>
</svg>
