<svg width="46" height="34" viewBox="0 0 46 34" fill="none" xmlns="http://www.w3.org/2000/svg">
<path d="M16.8071 5.7112C22.7197 8.46829 25.2777 15.4962 22.5206 21.4088C19.7635 27.3215 12.7356 29.8794 6.82296 27.1223C0.910447 24.3652 -1.64759 17.3372 1.10949 11.4247L16.8071 5.7112ZM9.51644 10.4298C6.01334 11.7048 4.20713 15.5782 5.48216 19.0813C6.75726 22.5843 10.6307 24.3906 14.1337 23.1156C17.6367 21.8406 19.4429 17.967 18.168 14.464C16.893 10.961 13.0195 9.15481 9.51644 10.4298Z" fill="#F5F5F5"/>
<path d="M44.854 11.4245C47.6111 17.3371 45.0531 24.365 39.1406 27.1222C33.2279 29.8793 26.2 27.3213 23.4429 21.4087C20.6859 15.4961 23.2438 8.46814 29.1564 5.71105L44.854 11.4245ZM36.236 10.3528C32.7329 9.07776 28.8595 10.884 27.5844 14.3871C26.3096 17.8901 28.1157 21.7636 31.6187 23.0386C35.1217 24.3136 38.9952 22.5072 40.2703 19.0043C41.5453 15.5013 39.739 11.6278 36.236 10.3528Z" fill="#F5F5F5"/>
</svg>
