<svg width="45" height="34" viewBox="0 0 45 34" fill="none" xmlns="http://www.w3.org/2000/svg">
<path d="M23.1097 11.4246C25.8667 17.3371 23.3087 24.365 17.3962 27.1222C11.4836 29.8793 4.45565 27.3214 1.69855 21.4087C-1.05852 15.4961 1.49941 8.46818 7.41202 5.71109L23.1097 11.4246ZM14.4916 10.3528C10.9885 9.0778 7.11511 10.884 5.84008 14.3871C4.56521 17.8902 6.37134 21.7637 9.87437 23.0387C13.3773 24.3135 17.2509 22.5072 18.5259 19.0044C19.8009 15.5014 17.9946 11.628 14.4916 10.3528Z" fill="#F5F5F5"/>
<path d="M37.3626 5.71121C43.2753 8.46832 45.8332 15.4962 43.0761 21.4089C40.319 27.3214 33.2911 29.8794 27.3785 27.1223C21.466 24.3652 18.908 17.3372 21.665 11.4247L37.3626 5.71121ZM30.0719 10.4298C26.5689 11.7048 24.7626 15.5783 26.0377 19.0813C27.3127 22.5843 31.1862 24.3905 34.6892 23.1156C38.1922 21.8406 39.9984 17.9671 38.7235 14.4641C37.4485 10.961 33.575 9.15474 30.0719 10.4298Z" fill="#F5F5F5"/>
</svg>
