<svg width="45" height="34" viewBox="0 0 45 34" fill="none" xmlns="http://www.w3.org/2000/svg">
<path d="M11.8125 4.5C18.3364 4.5 23.625 9.78864 23.625 16.3125C23.625 22.8364 18.3364 28.125 11.8125 28.125C10.9086 28.125 10.0293 28.0194 9.18359 27.8271C11.9433 26.9798 13.9502 24.4124 13.9502 21.375C13.9502 17.6471 10.928 14.6251 7.2002 14.625C3.94375 14.625 1.22522 16.9309 0.589844 19.999C0.20894 18.8388 0 17.6002 0 16.3125C0 9.78864 5.28864 4.5 11.8125 4.5Z" fill="#F5F5F5"/>
<path d="M33.1875 5.0625C39.7114 5.0625 45 10.3511 45 16.875C45 23.3989 39.7114 28.6875 33.1875 28.6875C31.8921 28.6875 30.6467 28.4751 29.4805 28.0898C32.8888 27.7486 35.5498 24.8732 35.5498 21.375C35.5498 17.6471 32.5277 14.625 28.7998 14.625C25.2409 14.6251 22.3272 17.3797 22.0703 20.873C21.6212 19.6243 21.375 18.2785 21.375 16.875C21.375 10.3511 26.6636 5.0625 33.1875 5.0625Z" fill="#F5F5F5"/>
</svg>
