<svg width="45" height="34" viewBox="0 0 45 34" fill="none" xmlns="http://www.w3.org/2000/svg">
<path d="M20.1649 7.95982C24.7779 12.5729 24.7779 20.0518 20.1649 24.6649C15.5518 29.2779 8.07283 29.2779 3.45979 24.6649C-1.15305 20.0518 -1.15315 12.5728 3.45979 7.95982H20.1649ZM11.7 9.90025C7.97212 9.90027 4.95002 12.9223 4.95002 16.6502C4.95015 20.378 7.9722 23.4002 11.7 23.4002C15.4279 23.4002 18.4499 20.3781 18.45 16.6502C18.45 12.9223 15.4279 9.90025 11.7 9.90025Z" fill="#F5F5F5"/>
<path d="M41.3148 7.95982C45.9278 12.5729 45.9278 20.0518 41.3148 24.6649C36.7017 29.2779 29.2228 29.2779 24.6097 24.6649C19.9968 20.0518 19.9967 12.5728 24.6097 7.95982H41.3148ZM32.8499 9.90025C29.122 9.90026 26.0999 12.9223 26.0999 16.6502C26.1001 20.378 29.1221 23.4002 32.8499 23.4002C36.5778 23.4002 39.5998 20.3781 39.5999 16.6502C39.5999 12.9223 36.5779 9.90025 32.8499 9.90025Z" fill="#F5F5F5"/>
</svg>
